<?xml version="1.0" standalone="no"?>
<!DOCTYPE svg PUBLIC "-//W3C//DTD SVG 1.1//EN" "http://www.w3.org/Graphics/SVG/1.1/DTD/svg11.dtd" >
<svg>
<metadata>
Created by FontForge 20090622 at Sun Apr 30 00:28:34 2017
 By deploy user
Digitized data copyright The Monotype Corporation 1991-1995. All rights reserved. Bookman Old Style&#226;&#132;&#162; is a trademark of The Monotype Corporation which may be registered in certain jurisdictions.
</metadata>
<defs>
<font id="BookmanOldStyle" horiz-adv-x="1454" >
  <font-face 
    font-family="Bookman Old Style"
    font-weight="300"
    font-stretch="normal"
    units-per-em="2048"
    panose-1="2 5 6 4 5 5 5 2 2 4"
    ascent="1638"
    descent="-410"
    x-height="965"
    cap-height="1395"
    bbox="-381 -651 2697 2031"
    underline-thickness="123"
    underline-position="-195"
    unicode-range="U+0020-U+F108"
  />
<missing-glyph horiz-adv-x="1536" 
d="M256 0v1280h1024v-1280h-1024zM288 32h960v1216h-960v-1216z" />
    <glyph glyph-name=".notdef" horiz-adv-x="1536" 
d="M256 0v1280h1024v-1280h-1024zM288 32h960v1216h-960v-1216z" />
    <glyph glyph-name="glyph1" horiz-adv-x="0" 
 />
    <glyph glyph-name="glyph2" horiz-adv-x="655" 
 />
    <glyph glyph-name="space" unicode=" " horiz-adv-x="655" 
 />
    <glyph glyph-name="exclam" unicode="!" horiz-adv-x="614" 
d="M264 335l-76 894q-4 38 -4 48q0 73 32 107.5t94 34.5q54 0 87.5 -33t33.5 -89q0 -18 -5 -60l-80 -902h-82zM307 233q53 0 89.5 -36.5t36.5 -88.5t-37 -88.5t-89 -36.5q-51 0 -88 36.5t-37 88.5t36.5 88.5t88.5 36.5z" />
    <glyph glyph-name="quotedbl" unicode="&#x22;" horiz-adv-x="778" 
d="M201 905l-48 350q-3 26 -3 55q0 56 21.5 82.5t57.5 26.5q33 0 53.5 -24t20.5 -71q0 -27 -7 -66l-54 -353h-41zM526 905l-47 350q-4 26 -4 54q0 57 21.5 83.5t57.5 26.5q34 0 54 -24t20 -69q0 -28 -6 -68l-55 -353h-41z" />
    <glyph glyph-name="numbersign" unicode="#" horiz-adv-x="1229" 
d="M1061 559v-117h-219l-65 -443h-119l65 443h-273l-62 -443h-122l67 443h-218v117h236l37 271h-217v116h239l62 417h115l-61 -417h272l61 417h118l-61 -417h196v-117h-213l-40 -270h202zM781 829h-273l-40 -270h271z" />
    <glyph glyph-name="dollar" unicode="$" horiz-adv-x="1270" 
d="M580 1620h96v-237q70 -9 122.5 -32t107.5 -69l44 88h70l103 -405l-90 -31q-53 118 -108 190t-111.5 110.5t-137.5 58.5v-487l132 -46q117 -41 138 -51q62 -30 116 -80.5t81.5 -113t27.5 -132.5q0 -101 -56.5 -186t-172 -140t-266.5 -57v-240h-96v250q-80 19 -148.5 55.5
t-138.5 99.5l-48 -138h-70l-90 482l90 19q63 -140 116.5 -212t123 -122.5t165.5 -83.5v549q-28 10 -100 33q-94 31 -123 45q-74 35 -131.5 88t-82.5 106.5t-25 114.5q0 92 53 171.5t160 128t249 49.5v225zM580 1302q-77 1 -130 -18q-74 -27 -118 -79.5t-44 -120.5
q0 -52 24.5 -95t81 -77t186.5 -77v467zM676 99q78 -1 139 22q86 32 133.5 93.5t47.5 139.5q0 91 -67 156.5t-253 116.5v-528z" />
    <glyph glyph-name="percent" unicode="%" horiz-adv-x="1843" 
d="M399 1419q147 0 231 -95q93 -105 93 -286q0 -171 -92.5 -270.5t-239.5 -99.5q-153 0 -244 117q-75 97 -75 259q0 179 90 277t237 98zM397 1355q-53 0 -93 -30.5t-67.5 -108t-27.5 -181.5q0 -102 25 -170t67.5 -100.5t92.5 -32.5q51 0 95 32.5t70 103.5t26 176
q0 140 -47.5 225.5t-140.5 85.5zM1446 1419l-929 -1443h-120l928 1443h121zM1448 726q147 0 231 -95q92 -104 92 -286q0 -170 -92.5 -269.5t-239.5 -99.5q-153 0 -243 116q-75 97 -75 260q0 179 89.5 276.5t237.5 97.5zM1445 663q-52 0 -92.5 -30.5t-68 -108t-27.5 -181.5
q0 -102 25.5 -170.5t68 -100.5t91.5 -32q52 0 95.5 32.5t69.5 103t26 175.5q0 141 -47 226.5t-141 85.5z" />
    <glyph glyph-name="ampersand" unicode="&#x26;" horiz-adv-x="1638" 
d="M1020 881h466v-85h-56q-61 0 -82 -8.5t-37 -29.5t-23 -64q-37 -213 -151 -393q20 -55 67 -115t82 -80t75 -20q51 0 85 31.5t34 73.5q0 35 -13 55q-14 20 -59 42q-36 18 -51 41t-15 51q0 40 25.5 65t67.5 25q71 0 123.5 -61.5t52.5 -155.5q0 -112 -85 -194.5t-205 -82.5
q-82 0 -155.5 41t-145.5 140q-102 -91 -180 -128q-112 -53 -243 -53q-145 0 -260 58.5t-177.5 157.5t-62.5 216q0 110 52.5 200t157.5 160q77 51 190 87q-83 34 -126 72t-66 88t-23 108q0 121 93 203q105 93 252 93q145 0 240 -85t95 -201q0 -78 -39 -144.5t-109 -109.5
q-44 -29 -116 -46q87 -28 147 -73.5t123.5 -132.5t123.5 -221q97 215 97 322q0 36 -22 52t-88 16h-59v85zM627 1327q-81 0 -136 -58t-55 -151q0 -91 55.5 -150t135.5 -59q78 0 134.5 59t56.5 147q0 94 -55.5 153t-135.5 59zM586 806q-123 -61 -151 -82q-46 -33 -82 -81.5
t-53 -98t-17 -103.5q0 -126 84 -227q107 -129 271 -129q81 0 157 35q105 50 172 118q-8 13 -25 47l-157 308q-20 40 -55 93q-22 33 -56.5 63t-87.5 57z" />
    <glyph glyph-name="quotesingle" unicode="'" horiz-adv-x="451" 
d="M200 905l-48 350q-3 26 -3 55q0 56 21.5 82.5t57.5 26.5q33 0 53.5 -24t20.5 -71q0 -27 -7 -66l-54 -353h-41z" />
    <glyph glyph-name="parenleft" unicode="(" horiz-adv-x="614" 
d="M493 1457l63 -62q-54 -57 -90 -140q-53 -125 -76.5 -293.5t-23.5 -475.5q0 -316 22 -474t75 -281q36 -86 93 -147l-63 -57q-97 86 -169.5 217t-108 302.5t-35.5 459.5q0 287 39.5 459.5t128.5 322.5q67 113 145 169z" />
    <glyph glyph-name="parenright" unicode=")" horiz-adv-x="614" 
d="M122 -473l-63 63q55 56 90 140q53 124 76.5 292.5t23.5 476.5q0 315 -22 473t-74 281q-37 86 -94 147l63 57q97 -85 169.5 -216.5t108 -302.5t35.5 -460q0 -287 -39 -459t-128 -322q-68 -114 -146 -170z" />
    <glyph glyph-name="asterisk" unicode="*" horiz-adv-x="901" 
d="M428 1116l-43 153q-9 29 -9 58q0 45 20.5 68.5t54.5 23.5t50 -21q23 -29 23 -75q0 -24 -8 -54l-40 -153l40 -30l129 90q48 35 89 35q39 0 60 -22t21 -59q0 -33 -35 -59.5t-90 -26.5h-159l-15 -52l129 -97q62 -47 62 -107q0 -26 -24.5 -48.5t-54.5 -22.5q-18 0 -48 21.5
t-49 74.5l-55 152h-48l-55 -152q-18 -49 -45.5 -73.5t-51.5 -24.5q-30 0 -54.5 23.5t-24.5 46.5q0 59 64 110l124 97l-12 52h-161q-57 0 -91.5 25.5t-34.5 58.5q0 34 20.5 56.5t51.5 22.5q53 0 96 -31l131 -90z" />
    <glyph glyph-name="plus" unicode="+" horiz-adv-x="1229" 
d="M1102 759v-123h-426v-426h-123v426h-426v123h426v426h123v-426h426z" />
    <glyph glyph-name="comma" unicode="," horiz-adv-x="655" 
d="M221 -362l-54 66q205 167 205 279q0 13 -2 32q-17 -7 -33 -11t-30 -4q-48 0 -77 31t-29 79q0 47 35 82t84 35q68 0 116.5 -54.5t48.5 -140.5q0 -56 -23 -117.5t-67 -114t-174 -162.5z" />
    <glyph glyph-name="hyphen" unicode="-" horiz-adv-x="819" 
d="M112 571h594v-124h-594v124z" />
    <glyph glyph-name="hyphen" unicode="&#xad;" horiz-adv-x="819" 
d="M112 571h594v-124h-594v124z" />
    <glyph glyph-name="period" unicode="." horiz-adv-x="655" 
d="M327 233q53 0 89.5 -36.5t36.5 -88.5t-37 -88.5t-89 -36.5q-51 0 -88 36.5t-37 88.5t36.5 88.5t88.5 36.5z" />
    <glyph glyph-name="slash" unicode="/" horiz-adv-x="1229" 
d="M1001 1467l-683 -1913h-148l679 1913h152z" />
    <glyph glyph-name="zero" unicode="0" horiz-adv-x="1270" 
d="M638 1419q154 0 269 -78.5t187 -246.5t72 -407q0 -354 -177 -551q-144 -160 -364 -160q-149 0 -264 79.5t-186 238.5t-71 404q0 247 69.5 403t189.5 237t275 81zM633 1320q-104 0 -183 -76q-69 -66 -109 -208q-46 -162 -46 -358q0 -152 28.5 -275.5t75.5 -192
t106.5 -101.5t125.5 -33q99 0 185 77q69 63 109 188q48 152 48 357q0 212 -49 360t-120.5 205t-170.5 57z" />
    <glyph glyph-name="one" unicode="1" horiz-adv-x="1270" 
d="M688 1395h75v-1158q0 -82 10.5 -105.5t34.5 -35.5t95 -12h98v-84h-659v84h109q71 0 94.5 12.5t36.5 40t13 100.5v952h-253v86q207 29 346 120z" />
    <glyph glyph-name="two" unicode="2" horiz-adv-x="1270" 
d="M232 869l-97 -12q-8 71 -8 116q0 118 64 223t178.5 164t262.5 59q143 0 251 -55.5t165.5 -152t57.5 -220.5q0 -105 -37.5 -194.5t-120.5 -180.5q-62 -68 -251 -208q-238 -178 -365 -258h520q92 0 120 17q39 22 53 102l9 57h85l-68 -376h-64l-11 50h-874v84l160 121
q182 135 267 207q161 136 242.5 232.5t112 174t30.5 162.5q0 141 -90.5 231t-235.5 90q-104 0 -185.5 -45t-128.5 -126t-47 -175q0 -35 5 -87z" />
    <glyph glyph-name="three" unicode="3" horiz-adv-x="1270" 
d="M271 1022l-96 15q13 108 56 179q57 96 161 149.5t239 53.5q133 0 234 -47.5t152.5 -126t51.5 -169.5q0 -80 -39 -143t-116 -113q-54 -35 -141 -61q93 -13 152 -43q96 -49 151 -135t55 -189q0 -165 -145 -290.5t-375 -125.5q-227 0 -382 121q-130 103 -130 207
q0 41 26.5 68.5t66.5 27.5q44 0 75 -34q17 -19 39 -91q31 -101 105 -154t184 -53q98 0 175.5 43t122.5 122t45 173q0 76 -32.5 136.5t-92.5 102.5q-46 33 -117.5 46t-128.5 13h-93v97h59q88 0 168 20.5t128 84.5t48 145q0 70 -33.5 126t-98.5 89t-150 33q-83 0 -152.5 -34
t-111.5 -91t-60 -152z" />
    <glyph glyph-name="four" unicode="4" horiz-adv-x="1270" 
d="M742 1395h169v-811h262v-125h-262v-459h-169v459h-657v176zM742 584v656l-566 -656h566z" />
    <glyph glyph-name="five" unicode="5" horiz-adv-x="1270" 
d="M275 1395h622q57 0 69 6q17 10 20 43h73v-211h-691l-17 -352q43 12 109 20q85 10 152 10q167 0 291 -60t188.5 -164.5t64.5 -233.5q0 -200 -150 -338.5t-382 -138.5q-134 0 -242.5 48t-169.5 126.5t-61 137.5q0 39 26 67.5t67 28.5q42 0 74 -35q18 -18 43 -88
q34 -98 101 -144q66 -47 166 -47t178 43.5t123 125t45 181.5q0 105 -48.5 187t-139 127t-220.5 45q-79 0 -169.5 -17t-155.5 -43z" />
    <glyph glyph-name="six" unicode="6" horiz-adv-x="1270" 
d="M1036 1421v-91q-247 -3 -399.5 -72t-224.5 -206.5t-81 -338.5q51 78 104.5 121.5t125 67t156.5 23.5q136 0 242 -60t165 -162.5t59 -241.5q0 -221 -133 -347q-147 -138 -381 -138q-169 0 -285 70t-184.5 214t-68.5 356q0 213 72.5 378t200.5 265t280.5 131t273.5 31h78z
M671 819q-144 0 -236.5 -109t-92.5 -262q0 -108 45 -199.5t116 -136t160 -44.5q138 0 229.5 104.5t91.5 280.5q0 168 -89 267t-224 99z" />
    <glyph glyph-name="seven" unicode="7" horiz-adv-x="1270" 
d="M222 1446h66l12 -51h874v-85q-157 -181 -284.5 -412.5t-197.5 -471.5q-51 -173 -83 -426h-205q30 223 98.5 417t198 405.5t314.5 422.5h-623q-68 0 -93 -7t-39 -22t-24 -53l-5 -19l-34 -118l-85 18z" />
    <glyph glyph-name="eight" unicode="8" horiz-adv-x="1270" 
d="M792 774q118 -45 180 -85q91 -58 137 -136.5t46 -170.5q0 -165 -142 -285.5t-383 -120.5q-255 0 -400 136q-115 109 -115 247q0 111 78 199q94 105 268 164q-136 64 -196 130q-77 87 -77 209q0 151 114 244q140 114 350 114q192 0 310.5 -98.5t118.5 -225.5
q0 -63 -29.5 -120.5t-90.5 -107t-169 -93.5zM701 811q114 86 148 120t52.5 77.5t18.5 84.5q0 59 -35 112.5t-102.5 86.5t-151.5 33q-124 0 -206 -68.5t-82 -158.5q0 -72 51 -129t190 -112zM560 683q-141 -62 -223 -161q-64 -78 -64 -162q0 -114 101 -202.5t261 -88.5
q163 0 272 101q89 82 89 176q0 74 -58.5 141.5t-217.5 131.5z" />
    <glyph glyph-name="nine" unicode="9" horiz-adv-x="1270" 
d="M235 -24v93q248 3 400.5 71.5t224 206.5t80.5 338q-51 -78 -104.5 -121t-125 -67t-155.5 -24q-136 0 -242.5 60t-165.5 162t-59 240q0 220 133 346q147 138 382 138q169 0 285 -70t184 -214t68 -354t-71 -375t-198.5 -264.5t-280.5 -132.5t-277 -33h-78zM601 580
q143 0 235.5 108.5t92.5 261.5q0 108 -45 199.5t-115.5 136t-160.5 44.5q-137 0 -229 -104.5t-92 -280.5q0 -168 89.5 -266.5t224.5 -98.5z" />
    <glyph glyph-name="colon" unicode=":" horiz-adv-x="655" 
d="M327 989q52 0 89 -37t37 -89q0 -53 -37 -90t-89 -37q-51 0 -88 36.5t-37 88.5t38 90t87 38zM327 233q53 0 89.5 -36.5t36.5 -88.5t-37 -88.5t-89 -36.5q-51 0 -88 36.5t-37 88.5t36.5 88.5t88.5 36.5z" />
    <glyph glyph-name="semicolon" unicode=";" horiz-adv-x="655" 
d="M328 989q52 0 88.5 -37t36.5 -89q0 -53 -36.5 -90t-88.5 -37t-89 36.5t-37 88.5t38.5 90t87.5 38zM221 -362l-54 66q205 167 205 279q0 13 -2 32q-17 -7 -33 -11t-30 -4q-48 0 -77 31t-29 79q0 47 35 82t84 35q68 0 116.5 -54.5t48.5 -140.5q0 -56 -23 -117.5t-67 -114
t-174 -162.5z" />
    <glyph glyph-name="semicolon" unicode="&#x37e;" horiz-adv-x="655" 
d="M328 989q52 0 88.5 -37t36.5 -89q0 -53 -36.5 -90t-88.5 -37t-89 36.5t-37 88.5t38.5 90t87.5 38zM221 -362l-54 66q205 167 205 279q0 13 -2 32q-17 -7 -33 -11t-30 -4q-48 0 -77 31t-29 79q0 47 35 82t84 35q68 0 116.5 -54.5t48.5 -140.5q0 -56 -23 -117.5t-67 -114
t-174 -162.5z" />
    <glyph glyph-name="less" unicode="&#x3c;" horiz-adv-x="1229" 
d="M1047 181l-901 400v100l901 401v-144l-718 -307l718 -307v-143z" />
    <glyph glyph-name="equal" unicode="=" horiz-adv-x="1229" 
d="M1102 916v-123h-975v123h975zM1102 602v-123h-975v123h975z" />
    <glyph glyph-name="greater" unicode="&#x3e;" horiz-adv-x="1229" 
d="M182 1082l901 -401v-100l-901 -400v143l718 307l-718 307v144z" />
    <glyph glyph-name="question" unicode="?" horiz-adv-x="1106" 
d="M355 335v355q199 -2 296.5 33t149 107.5t51.5 162.5q0 82 -45.5 161.5t-120.5 123.5t-160 44q-68 0 -117 -25.5t-92 -86.5q-42 -61 -60 -75q-35 -27 -70 -27q-24 0 -47.5 12.5t-32.5 28.5q-13 24 -13 48q0 79 92 139q128 83 308 83q162 0 286 -60.5t188 -160.5t64 -226
q0 -197 -156.5 -306t-416.5 -110v-221h-104zM406 233q52 0 88.5 -36.5t36.5 -88.5t-37 -88.5t-88 -36.5q-52 0 -89 36.5t-37 88.5t36.5 88.5t89.5 36.5z" />
    <glyph glyph-name="at" unicode="@" horiz-adv-x="1679" 
d="M1268 958l-117 -399l-67 -239q-16 -56 -22 -96q-4 -27 -4 -43q0 -34 21 -56t55 -22q80 0 181.5 78.5t171.5 238t70 335.5q0 175 -82.5 316.5t-230 220.5t-335.5 79q-231 0 -424 -119.5t-313.5 -346t-120.5 -487.5q0 -234 100 -416t279 -282.5t404 -100.5q178 0 332 64
t274.5 186t197.5 303h58q-33 -102 -75 -172q-75 -128 -196.5 -229.5t-275 -157t-320.5 -55.5q-247 0 -446 115t-312.5 316.5t-113.5 454.5q0 272 126 496.5t345.5 353t474.5 128.5q214 0 374 -85.5t250 -244.5t90 -355q0 -202 -89.5 -379t-209.5 -252t-251 -75
q-77 0 -116 36t-39 103q0 54 18 145q-142 -172 -231.5 -228.5t-161.5 -56.5q-49 0 -89.5 28t-66.5 84.5t-26 122.5q0 134 84 303t221.5 282.5t245.5 113.5q43 0 81 -17.5t58.5 -43.5t32.5 -77l33 110zM917 917q-44 0 -100.5 -35.5t-129.5 -140t-123.5 -237t-50.5 -208.5
q0 -64 35 -104.5t81 -40.5q57 0 130 50.5t158 173.5q43 63 70 140q55 159 55 255q0 68 -36 107.5t-89 39.5z" />
    <glyph glyph-name="A" unicode="A" horiz-adv-x="1393" 
d="M616 1395h165l433 -1166q32 -88 64.5 -116.5t87.5 -28.5h22v-84h-497v84q24 2 47 2q48 0 63 10q29 19 29 48q0 21 -28 103l-92 270h-506l-108 -302q-17 -47 -17 -65q0 -20 10.5 -35t28.5 -22.5t58 -7.5q27 0 44 -1v-84h-417v84q58 0 83.5 11.5t44.5 37t50 107.5zM441 615
h431l-216 600z" />
    <glyph glyph-name="B" unicode="B" horiz-adv-x="1515" 
d="M83 1395h663q243 0 333 -22q133 -32 210.5 -116t77.5 -202q0 -85 -41 -152.5t-119 -115.5q-50 -31 -136 -53q109 -20 166 -48q86 -42 136 -120t50 -176q0 -95 -49 -176t-138.5 -133t-208.5 -66.5t-245 -14.5h-699v84h47q68 0 93 21q36 29 36 96v969q0 68 -11 93t-33 36
t-85 11h-47v85zM446 1284v-511h255q179 0 245 17q103 27 157.5 92t54.5 167q0 86 -49.5 143.5t-132.5 78.5q-54 13 -224 13h-306zM446 677v-458q0 -69 6 -82q8 -18 32 -25q17 -5 96 -5h136q202 0 288.5 22.5t147.5 95t61 174.5q0 86 -49.5 152.5t-137 96t-310.5 29.5h-270z
" />
    <glyph glyph-name="C" unicode="C" horiz-adv-x="1515" 
d="M1208 1395h72l127 -465l-93 -26q-75 161 -114 216q-64 89 -159.5 141t-210.5 52q-135 0 -248.5 -72.5t-184 -212.5t-70.5 -315q0 -180 71.5 -321t193.5 -217t263 -76q133 0 272 76t241 213l80 -55q-62 -92 -134 -156q-114 -103 -237 -152t-270 -49q-325 0 -528 241
q-168 200 -168 476q0 203 93 367.5t256.5 261.5t352.5 97q101 0 187.5 -27.5t175.5 -88.5z" />
    <glyph glyph-name="D" unicode="D" horiz-adv-x="1638" 
d="M97 1310v85h498q342 0 477 -43q199 -63 323 -235q137 -190 137 -437q0 -168 -67.5 -312.5t-177.5 -232.5q-91 -74 -219 -104.5t-258 -30.5h-713v84h58l19 -1q37 0 60.5 15t33.5 40q7 19 7 88v933q0 79 -10 102q-14 31 -45 43q-18 6 -123 6zM461 108h302q45 0 149.5 16
t149.5 39q66 34 128 109.5t95.5 181t33.5 241.5q0 135 -33.5 234t-101 178t-150 120.5t-184.5 52.5q-55 5 -184 5h-205v-1177z" />
    <glyph glyph-name="E" unicode="E" horiz-adv-x="1475" 
d="M98 1395h1134l131 -367l-88 -33q-33 90 -72 141.5t-93.5 87.5t-110 48t-200.5 12h-338v-511h168q93 0 140.5 31.5t65.5 78.5q14 35 14 122v23h98v-612h-98v53q0 70 -10.5 101t-38.5 58.5t-60.5 37.5t-110.5 10h-168v-454q0 -71 6.5 -86.5t21.5 -22.5t82 -7h209
q175 0 273.5 42t173.5 129q59 68 113 192l91 -32l-156 -437h-1177v84h40q70 0 87 9q26 13 40 42q10 20 10 87v960q0 65 -13 87t-45 34q-17 7 -119 7v85z" />
    <glyph glyph-name="F" unicode="F" horiz-adv-x="1311" 
d="M109 1395h1067l129 -366l-87 -33q-55 128 -108 184t-123 80t-220 24h-301v-536h137q108 0 155 21t72 66.5t25 129.5v37h98v-612h-98v54q0 79 -24 123t-65.5 63.5t-147.5 19.5h-152v-434q0 -60 12.5 -83.5t37 -36t87.5 -12.5h37v-84h-531v84h34q64 0 88.5 12t36 37.5
t11.5 92.5v949q0 62 -11 87t-33.5 36.5t-78.5 11.5h-47v85z" />
    <glyph glyph-name="G" unicode="G" horiz-adv-x="1638" 
d="M1197 1395h73l114 -430l-90 -31q-90 204 -207 291t-265 87q-213 0 -357 -177t-144 -422q0 -176 73.5 -323t196.5 -224t261 -77q89 0 169.5 32.5t130.5 77.5q37 34 50 75t12 114v66q0 79 -18.5 112t-52.5 47q-26 11 -140 11v84h566v-84h-46q-59 0 -80.5 -11.5t-31.5 -35.5
t-10 -94v-483h-99l-53 122q-84 -61 -179 -95q-142 -51 -281 -51q-281 0 -481.5 206.5t-200.5 514.5q0 306 203 514t486 208q71 0 140 -14t126 -40q43 -19 100 -62z" />
    <glyph glyph-name="H" unicode="H" horiz-adv-x="1638" 
d="M97 1395h538v-85h-37q-64 0 -91.5 -12t-38.5 -42q-9 -22 -9 -93v-389h723v379q0 77 -5 93q-8 32 -34.5 48t-80.5 16h-55v85h534v-85h-48q-56 0 -79.5 -12.5t-33 -34t-9.5 -92.5v-950q0 -79 10 -100.5t40 -30.5q18 -6 120 -6v-84h-534v84h39q74 0 98.5 10t31.5 32
q6 17 6 107v433h-723v-445q0 -79 10.5 -101t40.5 -30q22 -6 125 -6v-84h-538v84h34q78 0 97.5 8.5t31 32.5t11.5 85v961q0 65 -10.5 90t-33 37t-74.5 12h-56v85z" />
    <glyph glyph-name="I" unicode="I" horiz-adv-x="696" 
d="M81 1395h534v-85h-41q-58 0 -84 -16t-38 -45.5t-12 -114.5v-899q0 -68 13 -96.5t36.5 -41.5t84.5 -13h41v-84h-534v84h44q59 0 83.5 13.5t35.5 39t11 98.5v920q0 77 -11 103.5t-35.5 39t-83.5 12.5h-44v85z" />
    <glyph glyph-name="J" unicode="J" horiz-adv-x="1229" 
d="M614 1395h534v-85h-53q-54 0 -76.5 -11t-34.5 -35t-12 -72v-737q0 -167 -54 -261.5t-172.5 -156t-278.5 -61.5q-213 0 -342.5 113t-129.5 263q0 75 34 116t85 41q40 0 66.5 -30t26.5 -78q0 -14 -8 -57q-9 -45 -9 -63q0 -74 75.5 -134.5t195.5 -60.5q99 0 178 44
t113.5 110t34.5 191v729q0 74 -11.5 99.5t-36.5 38t-92 12.5h-33v85z" />
    <glyph glyph-name="K" unicode="K" horiz-adv-x="1475" 
d="M103 1395h538v-85h-38q-66 0 -93 -16t-38 -50q-9 -25 -9 -82v-527l524 555q41 44 48.5 57t7.5 27q0 18 -17.5 27t-75.5 9h-32v85h500v-85q-59 1 -107 -13t-76 -35q-61 -45 -87 -72l-374 -383l427 -566q58 -77 92 -105.5t70 -40t112 -11.5v-84h-592v84h35q59 0 70 3
q17 4 27 16t10 25q0 26 -69 119l-315 428l-178 -184v-267q0 -69 14 -94t43 -37q23 -9 121 -9v-84h-538v84h42q63 0 86 12.5t35.5 41.5t12.5 103v921q0 73 -12 99.5t-35 37.5t-98 11h-31v85z" />
    <glyph glyph-name="L" unicode="L" horiz-adv-x="1229" 
d="M94 1395h541v-85h-50q-58 0 -82 -11t-35 -32t-11 -75v-973q0 -67 5 -80q6 -18 26 -26q14 -6 81 -6h75q129 0 224 37.5t164 109t133 213.5l89 -30l-156 -437h-1004v84h44q64 0 86 11t34 36.5t12 87.5v949q0 72 -11 96.5t-32 35t-89 10.5h-44v85z" />
    <glyph glyph-name="M" unicode="M" horiz-adv-x="1884" 
d="M96 1395h441l412 -1105l401 1105h426v-85h-36q-65 0 -87.5 -11t-35.5 -38.5t-13 -90.5v-920q0 -87 10.5 -113t35 -39.5t90.5 -13.5h36v-84h-533v84h38q51 0 74.5 8t39 26.5t17.5 38.5q5 41 5 64v1027l-455 -1248h-99l-459 1230v-989q0 -75 13 -101.5t40.5 -41t98.5 -14.5
h32v-84h-492v84h28q71 0 101.5 15t43.5 42.5t13 108.5v911q0 76 -11 100.5t-36.5 36.5t-90.5 12h-48v85z" />
    <glyph glyph-name="N" unicode="N" horiz-adv-x="1515" 
d="M88 1395h428l635 -1046v796q0 71 -14 102t-42 47t-83 16h-36v85h467v-85h-25q-62 0 -84 -10q-31 -14 -46.5 -51t-15.5 -104v-1145h-121l-765 1257v-996q0 -83 5 -101q7 -23 25.5 -42t43.5 -26t101 -8v-84h-473v84h25q72 0 97.5 14t39.5 48t14 115v884q0 83 -4 101
q-9 34 -34.5 49t-101.5 15h-36v85z" />
    <glyph glyph-name="O" unicode="O" horiz-adv-x="1638" 
d="M839 1419q191 0 345 -92q167 -99 256.5 -257t89.5 -366q0 -322 -200 -525t-510 -203q-346 0 -548 244q-165 199 -165 476q0 206 93 369.5t264 258.5t375 95zM839 1311q-156 0 -268 -71.5t-179.5 -210.5t-67.5 -343q0 -195 66.5 -330.5t178.5 -207.5t252 -72
q139 0 246 70.5t177 222t70 336.5q0 188 -70 344q-60 134 -159 198t-246 64z" />
    <glyph glyph-name="P" unicode="P" horiz-adv-x="1270" 
d="M92 1395h551q251 0 346 -32q119 -38 196.5 -130t77.5 -234q0 -121 -59 -209q-71 -106 -172.5 -150.5t-319.5 -44.5h-255v-358q0 -80 9 -101q12 -29 33 -40.5t85 -11.5h48v-84h-540v84h33q69 0 94 11.5t36.5 36t11.5 92.5v954q0 66 -10.5 88.5t-35 33t-96.5 10.5h-33v85z
M457 1286v-585h215q163 0 228.5 29t108.5 100.5t43 167.5q0 105 -50 175.5t-136 95.5q-60 17 -234 17h-175z" />
    <glyph glyph-name="Q" unicode="Q" horiz-adv-x="1638" 
d="M916 -19q-2 -22 -2 -37q0 -81 61 -134.5t159 -53.5q57 0 115 17.5t132 60.5l54 -80q-198 -120 -352 -120q-105 0 -201 44q-72 34 -113.5 101t-41.5 150q0 16 3 52q-272 27 -447.5 227t-175.5 489q0 206 93 369.5t262.5 258t372.5 94.5q194 0 348 -91q167 -99 257 -257.5
t90 -367.5q0 -295 -170 -491.5t-444 -230.5zM839 1311q-156 0 -268 -71.5t-179.5 -210.5t-67.5 -343q0 -195 66.5 -330.5t178.5 -207.5t252 -72q139 0 246 70.5t177 222t70 336.5q0 188 -70 344q-60 134 -159 198t-246 64z" />
    <glyph glyph-name="R" unicode="R" horiz-adv-x="1475" 
d="M99 1395h720q205 0 310 -42.5t161.5 -123t56.5 -186.5q0 -109 -55 -193.5t-158.5 -133t-274.5 -50.5l368 -450q45 -56 59 -69q35 -31 73.5 -47t86.5 -16h25v-84h-318l-512 666h-179v-430q0 -72 5 -90q11 -34 35.5 -48t95.5 -14h36v-84h-535v84h48q54 0 72.5 7t33 24.5
t20.5 44.5q2 11 3 101v914q0 60 -12 86t-33.5 37.5t-74.5 11.5h-57v85zM462 1286v-525h287q146 0 205 18q84 24 132.5 88t48.5 163q0 84 -35 141.5t-95.5 86t-180.5 28.5h-362z" />
    <glyph glyph-name="S" unicode="S" horiz-adv-x="1352" 
d="M1036 1395h72l107 -430l-92 -28q-88 181 -234 285q-120 87 -266 87q-88 0 -158 -31.5t-105 -81.5t-35 -102q0 -47 27 -91t82 -77.5t180 -70.5l261 -77q48 -14 139.5 -54t142.5 -84.5t80 -109t29 -139.5q0 -166 -145.5 -290.5t-376.5 -124.5q-119 0 -213 34.5t-203 122.5
l-46 -133h-70l-93 501l93 19q51 -139 135.5 -236t187 -146.5t208.5 -49.5q144 0 252 87q90 73 90 172q0 91 -65 149q-66 58 -236 108l-250 72q-210 61 -296 156t-86 218q0 96 56 177.5t172 136.5t254 55q116 0 222 -40q75 -28 138 -80z" />
    <glyph glyph-name="T" unicode="T" horiz-adv-x="1270" 
d="M125 1442h70l10 -47h856l8 47h73l147 -410l-90 -32q-65 164 -154 230.5t-228 66.5q-58 0 -69 -4.5t-15.5 -15.5t-4.5 -70v-968q0 -69 7.5 -93t21.5 -37t38.5 -18.5t109.5 -6.5v-84h-538v84q89 1 109 6q35 10 50 38t15 103v989q0 46 -4.5 56t-17 15.5t-51.5 5.5
q-109 0 -174.5 -28t-123.5 -95t-99 -174l-90 32z" />
    <glyph glyph-name="U" unicode="U" horiz-adv-x="1597" 
d="M78 1395h539v-85h-36q-66 0 -94 -13q-22 -10 -33 -34t-11 -96v-628q0 -168 40.5 -249t135 -136t207.5 -55q114 0 216 59t143 140t41 256v604q0 66 -13 95t-39.5 43t-82.5 14h-39v85h467v-85h-32q-79 0 -108.5 -30t-29.5 -113v-643q0 -176 -66 -293.5t-192 -186
t-293 -68.5q-158 0 -289 70t-192.5 174.5t-61.5 262.5v684q0 66 -12 92.5t-35 38.5t-80 12h-50v85z" />
    <glyph glyph-name="V" unicode="V" horiz-adv-x="1434" 
d="M2 1395h509v-85h-39q-54 0 -68 -4q-20 -6 -30.5 -19.5t-10.5 -30.5q0 -27 20 -78l370 -966l374 966q20 51 20 77q0 29 -20 42t-82 13h-46v85h433v-85q-56 1 -82.5 -10t-43.5 -31q-21 -27 -47 -91l-474 -1178h-142l-469 1178q-23 58 -32 72q-14 21 -31.5 34t-41.5 19.5
t-67 6.5v85z" />
    <glyph glyph-name="W" unicode="W" horiz-adv-x="1966" 
d="M26 1395h500v-85h-53q-52 0 -71 -10q-29 -16 -29 -48q0 -23 16 -73l286 -930l248 764l-58 185q-21 66 -64 95q-26 17 -91 17v85h496v-85h-47q-61 0 -82 -15t-21 -41q0 -22 16 -75l287 -936l289 936q15 49 15 74q0 29 -20 43t-79 14h-50v85h426v-85q-54 1 -80.5 -10.5
t-43.5 -33t-37 -87.5l-385 -1179h-145l-269 834l-270 -834h-144l-378 1179q-27 85 -67 112q-30 19 -95 19v85z" />
    <glyph glyph-name="X" unicode="X" horiz-adv-x="1475" 
d="M66 1395h533v-85h-42q-60 0 -76 -8t-16 -26q0 -12 6 -24t36 -52l261 -356l285 356q40 50 40 76q0 16 -15.5 25t-65.5 9h-51v85h453v-85q-81 0 -116.5 -17t-98.5 -93l-364 -437l429 -563q41 -54 69 -76.5t54 -31t86 -8.5v-84h-535v84h42q62 0 78.5 8.5t16.5 27.5
q0 11 -6 23q-2 5 -40 57l-319 426l-349 -439q-32 -39 -36 -48q-6 -11 -6 -21q0 -19 23 -28q15 -6 71 -6h42v-84h-452v84q62 0 90.5 8.5t57.5 30.5t74 77l421 507l-374 493q-56 74 -91.5 92t-114.5 18v85z" />
    <glyph glyph-name="Y" unicode="Y" horiz-adv-x="1311" 
d="M5 1395h522v-85h-59q-54 0 -69.5 -10t-15.5 -33q0 -20 19 -54q5 -8 13 -23l272 -504l301 523q18 32 21.5 41.5t3.5 19.5q0 14 -7.5 23.5t-23.5 14.5q-10 2 -56 2h-52v85h431v-85q-57 1 -84.5 -7t-45 -24.5t-49.5 -69.5l-378 -630v-351q0 -77 12.5 -100t39.5 -33.5
t126 -10.5v-84h-545v84h42q67 0 89.5 12t35.5 39q9 19 9 93v314l-369 656q-44 79 -73.5 94.5t-109.5 17.5v85z" />
    <glyph glyph-name="Z" unicode="Z" horiz-adv-x="1311" 
d="M245 1395h971v-85l-911 -1202h335q228 0 347.5 76.5t213.5 279.5l92 -31l-161 -433h-1079v84l913 1203h-290q-146 0 -231 -28t-149 -87.5t-134 -186.5l-86 42z" />
    <glyph glyph-name="bracketleft" unicode="[" horiz-adv-x="614" 
d="M208 1457h310v-95h-165v-1739h165v-96h-310v1930z" />
    <glyph glyph-name="backslash" unicode="\" horiz-adv-x="1229" 
d="M392 1467l667 -1913h-149l-670 1913h152z" />
    <glyph glyph-name="bracketright" unicode="]" horiz-adv-x="614" 
d="M406 -473h-310v96h165v1739h-165v95h310v-1930z" />
    <glyph glyph-name="asciicircum" unicode="^" horiz-adv-x="1229" 
d="M246 595h-142l442 824h135l443 -824h-142l-368 662z" />
    <glyph glyph-name="underscore" unicode="_" horiz-adv-x="1024" 
d="M-12 -154h1048v-102h-1048v102z" />
    <glyph glyph-name="grave" unicode="`" horiz-adv-x="696" 
d="M557 1170l-286 60q-75 16 -103 41.5t-28 62.5q0 34 20.5 55.5t52.5 21.5q64 0 159 -70l185 -136v-35z" />
    <glyph glyph-name="a" unicode="a" horiz-adv-x="1188" 
d="M793 579v109q0 111 -62 158.5t-175 47.5q-56 0 -98 -13.5t-67.5 -37t-37.5 -53.5q-5 -11 -24 -85q-23 -90 -93 -90q-40 0 -64.5 26.5t-24.5 71.5q0 66 49 129.5t149.5 105t237.5 41.5q128 0 219 -39.5t134 -113.5q30 -51 30 -186v-385q0 -82 5 -107q11 -43 38.5 -64.5
t71.5 -21.5q46 0 110 22v-87q-83 -24 -149 -24q-71 0 -119.5 20t-79.5 58.5t-40 91.5q-120 -94 -217 -132t-196 -38q-138 0 -224 75t-86 176q0 61 31.5 116t96 97t202.5 74t383 58zM793 492q-232 -34 -287 -47q-109 -25 -156 -55t-67 -64.5t-20 -73.5t22.5 -75.5t63.5 -57.5
t87 -21q65 0 147 31t210 121v242z" />
    <glyph glyph-name="b" unicode="b" horiz-adv-x="1270" 
d="M57 1300v83q66 5 127.5 24t137.5 60h73v-610q88 66 181 99t190 33q112 0 207 -60t149.5 -169.5t54.5 -258.5q0 -234 -137 -385q-127 -140 -322 -140q-117 0 -209 49q-68 36 -132 111l-55 -136h-93v1300h-172zM395 758v-385q0 -91 13 -127.5t53.5 -75t95 -61t112.5 -22.5
q89 0 162 47t115 139t42 221q0 181 -89 290q-71 90 -199 90q-66 0 -134 -24.5t-171 -91.5z" />
    <glyph glyph-name="c" unicode="c" horiz-adv-x="1065" 
d="M958 279l64 -52q-188 -251 -451 -251q-205 0 -346 146t-141 363q0 145 65.5 260.5t182 179.5t267.5 64q172 0 287 -84.5t115 -170.5q0 -46 -27 -71t-61 -25q-18 0 -35 9t-35 29q-8 9 -29 56q-27 58 -42 78q-31 40 -76.5 63t-101.5 23q-85 0 -157.5 -47t-115 -138.5
t-42.5 -218.5q0 -197 105 -313q91 -100 217 -100q58 0 117.5 19.5t112.5 57.5q39 27 127 123z" />
    <glyph glyph-name="d" unicode="d" horiz-adv-x="1270" 
d="M697 1298v85q68 6 124.5 23.5t141.5 60.5h75v-1213q0 -84 4 -102q10 -38 34 -53t93 -15h43v-84l-347 -16v159q-100 -91 -187.5 -129t-175.5 -38q-181 0 -300.5 145.5t-119.5 350.5q0 146 63.5 267.5t167.5 185.5t228 64q95 0 176 -33t148 -99v441h-168zM865 242v378
q0 81 -30.5 132.5t-100 89.5t-142.5 38q-87 0 -160.5 -47.5t-115 -137t-41.5 -216.5q0 -120 38.5 -207.5t103.5 -133t133 -45.5q67 0 152 38.5t163 110.5z" />
    <glyph glyph-name="e" unicode="e" horiz-adv-x="1065" 
d="M930 258l64 -52q-73 -87 -141.5 -138t-129.5 -71.5t-143 -20.5q-147 0 -250 60q-118 69 -181 180t-63 262q0 158 61 270t170.5 176.5t253.5 64.5q107 0 186 -33.5t134 -101t80 -154.5q14 -51 16 -132h-707q-3 -49 -3 -73q0 -126 44 -224.5t116.5 -145t164.5 -46.5
q78 0 151 36.5t177 142.5zM802 662q-15 92 -42.5 136t-78 70t-113.5 26t-118 -26t-91.5 -72t-63.5 -134h507z" />
    <glyph glyph-name="f" unicode="f" horiz-adv-x="655" 
d="M68 965h171v150q0 155 102.5 253.5t267.5 98.5q110 0 171.5 -46t61.5 -100q0 -36 -24.5 -60.5t-61.5 -24.5q-33 0 -57 12t-74 60q-53 50 -101 50q-33 0 -59.5 -20.5t-41 -60t-14.5 -121.5v-191h188v-102h-188v-649q0 -67 10 -89.5t30 -31.5t93 -9h41v-84h-515v84h31
q79 0 100.5 10t31 32.5t8.5 102.5v634h-171v102z" />
    <glyph glyph-name="g" unicode="g" horiz-adv-x="1106" 
d="M847 886q45 53 91.5 78t85.5 25q36 0 60.5 -21.5t24.5 -52.5q0 -32 -22 -54t-56 -22q-14 0 -38 5q-28 7 -47 7q-25 0 -52 -23q62 -75 62 -176q0 -138 -116 -239t-293 -101q-98 0 -197 41q-66 -47 -75 -58q-14 -17 -14 -36q0 -29 30 -48q38 -25 150 -42l289 -43
q96 -15 193 -50t140.5 -91t43.5 -134q0 -132 -122 -211q-155 -101 -460 -101q-160 0 -260 34t-155 96q-40 45 -40 93q0 62 40.5 121t187.5 168q-95 24 -136 56q-52 41 -52 93q0 26 9.5 48.5t31 45t78.5 62.5q36 25 51 37q-73 52 -110 116.5t-37 141.5q0 127 98 222
q119 116 321 116q90 0 157 -22.5t138 -80.5zM543 896q-98 0 -166 -71t-68 -176q0 -70 31 -126.5t87 -89t118 -32.5t118.5 33t87 89t30.5 126q0 110 -66.5 178.5t-171.5 68.5zM384 28q-96 -82 -127.5 -133t-31.5 -98q0 -40 31.5 -77.5t107.5 -61.5t191 -24q136 0 233.5 29.5
t139.5 75.5q31 36 31 85q0 42 -25.5 71t-96 50.5t-131.5 31.5z" />
    <glyph glyph-name="h" unicode="h" horiz-adv-x="1352" 
d="M74 1297v86q97 13 151 30.5t113 53.5h78v-661q113 95 214 139t193 44q134 0 221 -80q86 -80 86 -195v-491q0 -73 11.5 -95.5t38.5 -33t121 -10.5v-84h-516v84h38q73 0 96 11.5t33.5 38t10.5 109.5v341q0 113 -8 147q-15 58 -62 93t-120 35q-82 0 -171.5 -40.5
t-185.5 -121.5v-501q0 -56 10 -75t33 -28t92 -9h41v-84h-518v84h31q73 0 106 18q18 9 26 35t8 144v1016h-171z" />
    <glyph glyph-name="i" unicode="i" horiz-adv-x="614" 
d="M321 1440q48 0 82 -33.5t34 -81.5t-34 -82t-82 -34t-82 34t-34 82t34 81.5t82 33.5zM66 821v83q83 10 139.5 28t128.5 57h73v-802q0 -42 12 -63t33.5 -30.5t78.5 -9.5h47v-84h-512v84h41q67 0 90 12t32.5 34t9.5 103v588h-173z" />
    <glyph glyph-name="j" unicode="j" horiz-adv-x="614" 
d="M333 1440q48 0 82 -33.5t34 -81.5t-34 -82t-82 -34t-81.5 34t-33.5 82t33.5 81.5t81.5 33.5zM78 821v82q75 7 129 24t140 62h73v-1089q0 -118 -45 -198t-126 -127t-193 -47q-108 0 -172 45t-64 93q0 40 25.5 66t66.5 26q24 0 41.5 -9t49.5 -41q48 -48 77 -64
q21 -12 47 -12q62 0 98 60q27 44 27 143v986h-174z" />
    <glyph glyph-name="k" unicode="k" horiz-adv-x="1270" 
d="M60 1301v82q128 10 265 84h77v-998l367 292q88 70 88 93q0 14 -19 22q-12 5 -59 5h-53v84h507v-84q-85 0 -136 -17.5t-118 -68.5l-290 -221l342 -374q49 -54 80 -76t62 -30.5t97 -9.5v-84h-532v84h41q61 0 77 9.5t16 25.5t-30 46q-5 5 -11 12l-266 306l-163 -125v-131
q0 -73 11 -96t34.5 -35t90.5 -12h37v-84h-515v84q87 1 107 7q35 11 50.5 39t15.5 108v1063h-173z" />
    <glyph glyph-name="l" unicode="l" horiz-adv-x="614" 
d="M63 1301v82q136 10 265 84h74v-1231q0 -78 10 -98q13 -28 38 -41t96 -13h32v-84h-515v84h52q49 0 73.5 15t35 41t10.5 104v1057h-171z" />
    <glyph glyph-name="m" unicode="m" horiz-adv-x="1925" 
d="M72 821v85q75 7 131 24.5t128 58.5h74v-168q114 90 178 121q98 47 187 47q61 0 119.5 -22.5t94 -55.5t60.5 -90q105 93 194.5 130.5t181.5 37.5q88 0 155.5 -36.5t98 -91.5t30.5 -161v-464q0 -73 3 -85q5 -19 21.5 -36t37.5 -24t78 -7h32v-84h-503v84q86 1 111.5 12.5
t38 37.5t12.5 102v441q0 84 -15 116t-53.5 53.5t-95.5 21.5q-71 0 -149 -38q-104 -52 -164 -117v-477q0 -69 6.5 -90.5t22 -36t36 -20t99.5 -5.5v-84h-493v84h28q59 0 83.5 14t38.5 43q10 23 10 95v426q0 94 -14.5 127t-55.5 56t-96 23q-65 0 -131 -32q-98 -47 -180 -123
v-514q0 -46 12.5 -67.5t39.5 -34.5t74 -13h37v-84h-503v84h27q69 0 91 11q32 15 46 48q8 18 8 93v585h-172z" />
    <glyph glyph-name="n" unicode="n" horiz-adv-x="1352" 
d="M75 821v84q89 10 133 24t127 60h72v-190q132 111 225.5 150.5t189.5 39.5q82 0 145 -27.5t102.5 -74.5t52.5 -107q8 -37 8 -112v-440q0 -79 11.5 -101.5t36.5 -32.5t123 -10v-84h-515v84h28q72 0 98 13t37.5 38t11.5 102v368q0 114 -18.5 158t-63 71.5t-112.5 27.5
q-81 0 -173 -41.5t-178 -122.5v-461q0 -78 11.5 -104t37.5 -39q18 -10 96 -10h29v-84h-515v84h25q74 0 101 12.5t38 44.5q6 16 6 110v570h-170z" />
    <glyph glyph-name="o" unicode="o" horiz-adv-x="1147" 
d="M579 989q147 0 254.5 -61t169.5 -178t62 -267t-63.5 -267t-173 -178.5t-261.5 -61.5q-242 0 -363.5 151t-121.5 355q0 149 63 264.5t176.5 179t257.5 63.5zM571 892q-114 0 -193 -90q-100 -112 -100 -326q0 -206 85 -314q77 -96 209 -96q85 0 151.5 45t107.5 143.5
t41 231.5q0 130 -44 233q-34 82 -102.5 127.5t-154.5 45.5z" />
    <glyph glyph-name="p" unicode="p" horiz-adv-x="1270" 
d="M64 822v82q75 0 133 19t127 66h79v-167q125 99 208 133t166 34q171 0 291.5 -134t120.5 -349q0 -238 -137 -390q-125 -140 -322 -140q-98 0 -184 37q-62 26 -143 93v-329q0 -74 4 -87q5 -19 20 -32t38 -17q17 -3 114 -3v-84h-515v84h45q69 0 89.5 10.5t30.5 32.5
q6 17 6 104v1037h-171zM403 719v-344q0 -68 8 -101q12 -51 46.5 -92t94 -70t124.5 -29q130 0 225.5 98t95.5 297q0 186 -79 287.5t-187 101.5q-70 0 -152 -37t-176 -111z" />
    <glyph glyph-name="q" unicode="q" horiz-adv-x="1188" 
d="M916 965h109v-1180q0 -74 9 -95q13 -28 37 -40t87 -12h44v-84h-517v84h44q58 0 80 11t33.5 33.5t11.5 80.5v356q-42 -40 -106 -74t-133 -54q-52 -15 -111 -15q-117 0 -215.5 61t-158 178.5t-59.5 261.5q0 202 119 348q134 164 349 164q93 0 166.5 -31.5t168.5 -120.5z
M854 217v376q0 104 -28.5 156.5t-99 91t-146.5 38.5q-85 0 -158.5 -47.5t-116 -137.5t-42.5 -214q0 -176 87 -283t204 -107q63 0 135.5 28.5t164.5 98.5z" />
    <glyph glyph-name="r" unicode="r" horiz-adv-x="901" 
d="M72 822v82q73 6 130 24.5t130 60.5h75v-189q71 87 165 138t169 51q74 0 117 -35t43 -85q0 -36 -28.5 -63.5t-68.5 -27.5q-18 0 -31 5t-38 22q-55 36 -92 36q-50 0 -110 -42q-76 -54 -119 -106v-461q0 -60 6.5 -81.5t21.5 -37t37 -22.5t77 -7h33v-84h-517v84h43
q61 0 80 11q26 15 38.5 41.5t12.5 95.5v590h-174z" />
    <glyph glyph-name="s" unicode="s" horiz-adv-x="1065" 
d="M751 965h70l90 -306l-90 -30q-54 123 -151.5 193.5t-197.5 70.5q-77 0 -125 -37.5t-48 -86.5q0 -46 35 -79q34 -34 153 -77l195 -69q165 -59 225 -126q59 -68 59 -154q0 -73 -44 -140.5t-127.5 -107.5t-191.5 -40q-168 0 -288 96l-21 -72h-71l-125 327l91 36
q91 -144 172 -204q113 -85 244 -85q87 0 143 46.5t56 103.5q0 47 -35 86q-36 38 -138 74l-231 84q-149 54 -207 118t-58 147q0 101 94.5 178.5t240.5 77.5q76 0 136 -19.5t118 -64.5z" />
    <glyph glyph-name="t" unicode="t" horiz-adv-x="778" 
d="M337 1305h71v-340h297v-100h-297v-603q0 -77 13.5 -110t46 -54t72.5 -21q95 0 210 85v-97q-131 -89 -265 -89q-76 0 -137.5 34t-84 80t-22.5 160v615h-175v84q84 19 135.5 59t83.5 104t52 193z" />
    <glyph glyph-name="u" unicode="u" horiz-adv-x="1393" 
d="M20 965l379 15v-644q0 -85 23.5 -135t72 -77.5t113.5 -27.5q80 0 181.5 43t202.5 128v466q0 74 -11 97t-39 37t-88 14h-73v84l379 15v-746q0 -72 12 -99.5t35.5 -39t94.5 -11.5h31v-84l-332 -17v185q-137 -109 -239 -150.5t-207 -41.5q-78 0 -135.5 21t-101 63t-66.5 101
t-23 126v455q0 61 -11 85.5t-36.5 39t-69.5 14.5h-92v84z" />
    <glyph glyph-name="v" unicode="v" horiz-adv-x="1065" 
d="M0 965h458v-84h-28q-57 0 -71 -4q-20 -6 -30 -19t-10 -31q0 -25 22 -81l228 -569l221 569q21 55 21 80q0 26 -20 40.5t-72 14.5h-48v84h395v-84q-41 -1 -68.5 -13t-43 -31t-46.5 -91l-319 -746h-120l-321 763q-20 47 -44 77q-16 19 -42.5 30t-61.5 11v84z" />
    <glyph glyph-name="w" unicode="w" horiz-adv-x="1597" 
d="M-1 965h460v-84h-32q-59 0 -78 -9q-30 -14 -30 -44q0 -28 23 -90l207 -547l202 508l-18 47q-31 81 -72 112q-27 20 -80 23v84h458v-84h-39q-55 0 -71 -9q-28 -16 -28 -51q0 -30 21 -83l207 -547l202 555q16 45 17 51q3 11 3 23q0 28 -22 44.5t-81 16.5h-37v84h388v-84
q-43 -2 -70 -15t-43 -34t-45 -94l-292 -738h-120l-231 576l-228 -576h-119l-295 738q-28 71 -46 94t-44.5 36t-66.5 13v84z" />
    <glyph glyph-name="x" unicode="x" horiz-adv-x="1147" 
d="M37 965h503v-84h-35q-30 0 -55 -7q-15 -4 -24.5 -15.5t-9.5 -21.5q0 -23 38 -69l143 -180l167 180q46 50 46 75q0 18 -16 28t-69 10h-38v84h427v-84q-63 -3 -108.5 -26t-107.5 -87l-229 -238l285 -325l11 -14q42 -54 94 -87q29 -19 90 -20v-84h-491v84h42q48 0 61 6
q22 10 22 34q0 22 -48 81l-182 223l-203 -223l-20 -24l-11 -12q-25 -27 -25 -48q0 -19 15.5 -28t69.5 -9h40v-84h-421v84q49 1 77 10.5t54 29.5q45 36 65 57l293 301l-249 286q-47 53 -74.5 74.5t-53.5 30t-73 8.5v84z" />
    <glyph glyph-name="y" unicode="y" horiz-adv-x="1106" 
d="M-11 965h486v-84h-40q-57 0 -68 -3q-13 -4 -22 -16.5t-9 -31.5q0 -27 27 -91l232 -545l215 521q38 92 38 122q0 23 -17 33.5t-77 10.5h-47v84h409v-84h-24q-60 0 -78 -8t-35 -32.5t-54 -111.5l-367 -855q-40 -92 -89 -170.5t-123 -121.5t-163 -43q-103 0 -165 47
q-53 40 -53 100q0 37 23 61.5t54 24.5q24 0 45 -10q13 -5 54 -42q50 -44 70.5 -54t40.5 -10q41 0 81 28t68 79q40 73 66 137l41 100l-330 739q-35 78 -59 105t-48 33q-13 4 -82 4v84z" />
    <glyph glyph-name="z" unicode="z" horiz-adv-x="983" 
d="M205 965h729v-84l-674 -788h166q195 0 280 47q117 66 174 223l89 -32l-123 -331h-810v84l674 781h-197q-137 0 -213.5 -49t-141.5 -186l-86 41z" />
    <glyph glyph-name="braceleft" unicode="{" horiz-adv-x="573" 
d="M637 -407v-35q-98 14 -170 56q-97 56 -151.5 144t-54.5 189q0 67 21 156q25 104 25 153q0 76 -61.5 138t-166.5 76v41q105 14 166.5 75.5t61.5 139.5q0 48 -25 152q-21 89 -21 157q0 102 58 192t155 144q69 39 163 51v-35q-116 -28 -171 -90.5t-55 -146.5q0 -52 24 -157
q21 -91 21 -156q0 -104 -75.5 -198.5t-219.5 -145.5q141 -52 218 -148t77 -201q0 -66 -21 -156q-24 -105 -24 -158q0 -82 55 -145t171 -92z" />
    <glyph glyph-name="bar" unicode="|" horiz-adv-x="1229" 
d="M543 1467h146v-1913h-146v1913z" />
    <glyph glyph-name="braceright" unicode="}" horiz-adv-x="573" 
d="M-27 1387v35q97 -13 170 -55q97 -56 151.5 -144t54.5 -189q0 -68 -21 -156q-25 -104 -25 -153q0 -76 61.5 -138t166.5 -76v-41q-105 -14 -166.5 -75.5t-61.5 -139.5q0 -48 25 -152q21 -89 21 -157q0 -102 -58 -192t-155 -144q-69 -39 -163 -52v35q116 29 171 91.5
t55 146.5q0 52 -24 157q-22 90 -22 156q0 104 76 198.5t220 145.5q-141 52 -218.5 148t-77.5 201q0 65 22 156q24 105 24 158q0 82 -55 145t-171 91z" />
    <glyph glyph-name="asciitilde" unicode="~" horiz-adv-x="1229" 
d="M981 841l87 -97q-31 -78 -70.5 -122.5t-87.5 -67.5t-102 -23q-40 0 -81 15q-20 7 -122 59l-133 64q-25 10 -51 10q-48 0 -77.5 -34t-88.5 -146l-95 98q40 80 80.5 122.5t86.5 64.5t93 22q35 0 75 -13t146 -67q96 -49 120.5 -58.5t40.5 -9.5q47 0 88 41q28 28 91 142z" />
    <glyph glyph-name="Adieresis" unicode="&#xc4;" horiz-adv-x="1393" 
d="M616 1395h165l433 -1166q32 -88 64.5 -116.5t87.5 -28.5h22v-84h-497v84q24 2 47 2q48 0 63 10q29 19 29 48q0 21 -28 103l-92 270h-506l-108 -302q-17 -47 -17 -65q0 -20 10.5 -35t28.5 -22.5t58 -7.5q27 0 44 -1v-84h-417v84q58 0 83.5 11.5t44.5 37t50 107.5zM441 615
h431l-216 600zM529 1709q50 0 86 -36t36 -87q0 -50 -36 -86t-86 -36t-86 36t-36 86q0 51 35.5 87t86.5 36zM863 1709q50 0 86 -36t36 -87q0 -50 -36 -86t-86 -36q-51 0 -86.5 36t-35.5 86q0 51 35.5 87t86.5 36z" />
    <glyph glyph-name="Aring" unicode="&#xc5;" horiz-adv-x="1393" 
d="M616 1395h165l433 -1166q32 -88 64.5 -116.5t87.5 -28.5h22v-84h-497v84q24 2 47 2q48 0 63 10q29 19 29 48q0 21 -28 103l-92 270h-506l-108 -302q-17 -47 -17 -65q0 -20 10.5 -35t28.5 -22.5t58 -7.5q27 0 44 -1v-84h-417v84q58 0 83.5 11.5t44.5 37t50 107.5zM441 615
h431l-216 600zM696 1831q79 0 134 -55.5t55 -133.5q0 -79 -55.5 -134.5t-133.5 -55.5t-133 55.5t-55 134.5q0 78 55 133.5t133 55.5zM696 1761q-49 0 -83.5 -35t-34.5 -84q0 -50 34.5 -85t83.5 -35t84 35t35 85q0 49 -35 84t-84 35z" />
    <glyph glyph-name="Ccedilla" unicode="&#xc7;" horiz-adv-x="1515" 
d="M1208 1395h72l127 -465l-93 -26q-75 161 -114 216q-64 89 -159.5 141t-210.5 52q-135 0 -248.5 -72.5t-184 -212.5t-70.5 -315q0 -180 71.5 -321t193.5 -217t263 -76q133 0 272 76t241 213l80 -55q-62 -92 -134 -156q-114 -103 -237 -152t-270 -49q-325 0 -528 241
q-168 200 -168 476q0 203 93 367.5t256.5 261.5t352.5 97q101 0 187.5 -27.5t175.5 -88.5zM748 0l-26 -87q41 3 49 3q56 0 104 -22q36 -16 56.5 -49.5t20.5 -79.5q0 -78 -51.5 -126.5t-138.5 -48.5t-150 43q-47 31 -47 72q0 22 14.5 37t37.5 15t38 -10.5t26 -39.5
q15 -34 25 -43q23 -18 54 -18q40 0 68 30.5t28 79.5q0 51 -30 78t-93 27q-41 0 -98 -20l51 159h62z" />
    <glyph glyph-name="Eacute" unicode="&#xc9;" horiz-adv-x="1475" 
d="M98 1395h1134l131 -367l-88 -33q-33 90 -72 141.5t-93.5 87.5t-110 48t-200.5 12h-338v-511h168q93 0 140.5 31.5t65.5 78.5q14 35 14 122v23h98v-612h-98v53q0 70 -10.5 101t-38.5 58.5t-60.5 37.5t-110.5 10h-168v-454q0 -71 6.5 -86.5t21.5 -22.5t82 -7h209
q175 0 273.5 42t173.5 129q59 68 113 192l91 -32l-156 -437h-1177v84h40q70 0 87 9q26 13 40 42q10 20 10 87v960q0 65 -13 87t-45 34q-17 7 -119 7v85zM529 1501v35l185 136q95 70 159 70q30 0 50.5 -21.5t20.5 -53.5q0 -39 -28 -64.5t-101 -41.5z" />
    <glyph glyph-name="Ntilde" unicode="&#xd1;" horiz-adv-x="1515" 
d="M88 1395h428l635 -1046v796q0 71 -14 102t-42 47t-83 16h-36v85h467v-85h-25q-62 0 -84 -10q-31 -14 -46.5 -51t-15.5 -104v-1145h-121l-765 1257v-996q0 -83 5 -101q7 -23 25.5 -42t43.5 -26t101 -8v-84h-473v84h25q72 0 97.5 14t39.5 48t14 115v884q0 83 -4 101
q-9 34 -34.5 49t-101.5 15h-36v85zM1073 1657q-17 -66 -74.5 -110t-128.5 -44q-23 0 -42 4t-90 26q-109 34 -155 34q-44 0 -81 -41l-59 20q19 63 68.5 101.5t108.5 38.5q60 0 194 -38q66 -18 101 -18q64 0 98 45z" />
    <glyph glyph-name="Odieresis" unicode="&#xd6;" horiz-adv-x="1638" 
d="M839 1419q191 0 345 -92q167 -99 256.5 -257t89.5 -366q0 -322 -200 -525t-510 -203q-346 0 -548 244q-165 199 -165 476q0 206 93 369.5t264 258.5t375 95zM839 1311q-156 0 -268 -71.5t-179.5 -210.5t-67.5 -343q0 -195 66.5 -330.5t178.5 -207.5t252 -72
q139 0 246 70.5t177 222t70 336.5q0 188 -70 344q-60 134 -159 198t-246 64zM652 1709q50 0 86 -36t36 -87q0 -50 -36 -86t-86 -36t-86 36t-36 86q0 51 35.5 87t86.5 36zM986 1709q50 0 86 -36t36 -87q0 -50 -36 -86t-86 -36q-51 0 -86.5 36t-35.5 86q0 51 35.5 87t86.5 36z
" />
    <glyph glyph-name="Udieresis" unicode="&#xdc;" horiz-adv-x="1597" 
d="M78 1395h539v-85h-36q-66 0 -94 -13q-22 -10 -33 -34t-11 -96v-628q0 -168 40.5 -249t135 -136t207.5 -55q114 0 216 59t143 140t41 256v604q0 66 -13 95t-39.5 43t-82.5 14h-39v85h467v-85h-32q-79 0 -108.5 -30t-29.5 -113v-643q0 -176 -66 -293.5t-192 -186
t-293 -68.5q-158 0 -289 70t-192.5 174.5t-61.5 262.5v684q0 66 -12 92.5t-35 38.5t-80 12h-50v85zM632 1709q50 0 86 -36t36 -87q0 -50 -36 -86t-86 -36t-86 36t-36 86q0 51 35.5 87t86.5 36zM966 1709q50 0 86 -36t36 -87q0 -50 -36 -86t-86 -36q-51 0 -86.5 36t-35.5 86
q0 51 35.5 87t86.5 36z" />
    <glyph glyph-name="aacute" unicode="&#xe1;" horiz-adv-x="1188" 
d="M793 579v109q0 111 -62 158.5t-175 47.5q-56 0 -98 -13.5t-67.5 -37t-37.5 -53.5q-5 -11 -24 -85q-23 -90 -93 -90q-40 0 -64.5 26.5t-24.5 71.5q0 66 49 129.5t149.5 105t237.5 41.5q128 0 219 -39.5t134 -113.5q30 -51 30 -186v-385q0 -82 5 -107q11 -43 38.5 -64.5
t71.5 -21.5q46 0 110 22v-87q-83 -24 -149 -24q-71 0 -119.5 20t-79.5 58.5t-40 91.5q-120 -94 -217 -132t-196 -38q-138 0 -224 75t-86 176q0 61 31.5 116t96 97t202.5 74t383 58zM793 492q-232 -34 -287 -47q-109 -25 -156 -55t-67 -64.5t-20 -73.5t22.5 -75.5t63.5 -57.5
t87 -21q65 0 147 31t210 121v242zM386 1170v35l185 136q95 70 159 70q30 0 50.5 -21.5t20.5 -53.5q0 -39 -28 -64.5t-101 -41.5z" />
    <glyph glyph-name="agrave" unicode="&#xe0;" horiz-adv-x="1188" 
d="M793 579v109q0 111 -62 158.5t-175 47.5q-56 0 -98 -13.5t-67.5 -37t-37.5 -53.5q-5 -11 -24 -85q-23 -90 -93 -90q-40 0 -64.5 26.5t-24.5 71.5q0 66 49 129.5t149.5 105t237.5 41.5q128 0 219 -39.5t134 -113.5q30 -51 30 -186v-385q0 -82 5 -107q11 -43 38.5 -64.5
t71.5 -21.5q46 0 110 22v-87q-83 -24 -149 -24q-71 0 -119.5 20t-79.5 58.5t-40 91.5q-120 -94 -217 -132t-196 -38q-138 0 -224 75t-86 176q0 61 31.5 116t96 97t202.5 74t383 58zM793 492q-232 -34 -287 -47q-109 -25 -156 -55t-67 -64.5t-20 -73.5t22.5 -75.5t63.5 -57.5
t87 -21q65 0 147 31t210 121v242zM782 1170l-286 60q-75 16 -103 41.5t-28 62.5q0 34 20.5 55.5t52.5 21.5q64 0 159 -70l185 -136v-35z" />
    <glyph glyph-name="acircumflex" unicode="&#xe2;" horiz-adv-x="1188" 
d="M793 579v109q0 111 -62 158.5t-175 47.5q-56 0 -98 -13.5t-67.5 -37t-37.5 -53.5q-5 -11 -24 -85q-23 -90 -93 -90q-40 0 -64.5 26.5t-24.5 71.5q0 66 49 129.5t149.5 105t237.5 41.5q128 0 219 -39.5t134 -113.5q30 -51 30 -186v-385q0 -82 5 -107q11 -43 38.5 -64.5
t71.5 -21.5q46 0 110 22v-87q-83 -24 -149 -24q-71 0 -119.5 20t-79.5 58.5t-40 91.5q-120 -94 -217 -132t-196 -38q-138 0 -224 75t-86 176q0 61 31.5 116t96 97t202.5 74t383 58zM793 492q-232 -34 -287 -47q-109 -25 -156 -55t-67 -64.5t-20 -73.5t22.5 -75.5t63.5 -57.5
t87 -21q65 0 147 31t210 121v242zM593 1404l291 -191l-27 -51l-264 93l-263 -93l-27 51z" />
    <glyph glyph-name="adieresis" unicode="&#xe4;" horiz-adv-x="1188" 
d="M793 579v109q0 111 -62 158.5t-175 47.5q-56 0 -98 -13.5t-67.5 -37t-37.5 -53.5q-5 -11 -24 -85q-23 -90 -93 -90q-40 0 -64.5 26.5t-24.5 71.5q0 66 49 129.5t149.5 105t237.5 41.5q128 0 219 -39.5t134 -113.5q30 -51 30 -186v-385q0 -82 5 -107q11 -43 38.5 -64.5
t71.5 -21.5q46 0 110 22v-87q-83 -24 -149 -24q-71 0 -119.5 20t-79.5 58.5t-40 91.5q-120 -94 -217 -132t-196 -38q-138 0 -224 75t-86 176q0 61 31.5 116t96 97t202.5 74t383 58zM793 492q-232 -34 -287 -47q-109 -25 -156 -55t-67 -64.5t-20 -73.5t22.5 -75.5t63.5 -57.5
t87 -21q65 0 147 31t210 121v242zM427 1378q50 0 86 -36t36 -87q0 -50 -36 -86t-86 -36t-86 36t-36 86q0 51 35.5 87t86.5 36zM761 1378q50 0 86 -36t36 -87q0 -50 -36 -86t-86 -36q-51 0 -86.5 36t-35.5 86q0 51 35.5 87t86.5 36z" />
    <glyph glyph-name="atilde" unicode="&#xe3;" horiz-adv-x="1188" 
d="M793 579v109q0 111 -62 158.5t-175 47.5q-56 0 -98 -13.5t-67.5 -37t-37.5 -53.5q-5 -11 -24 -85q-23 -90 -93 -90q-40 0 -64.5 26.5t-24.5 71.5q0 66 49 129.5t149.5 105t237.5 41.5q128 0 219 -39.5t134 -113.5q30 -51 30 -186v-385q0 -82 5 -107q11 -43 38.5 -64.5
t71.5 -21.5q46 0 110 22v-87q-83 -24 -149 -24q-71 0 -119.5 20t-79.5 58.5t-40 91.5q-120 -94 -217 -132t-196 -38q-138 0 -224 75t-86 176q0 61 31.5 116t96 97t202.5 74t383 58zM793 492q-232 -34 -287 -47q-109 -25 -156 -55t-67 -64.5t-20 -73.5t22.5 -75.5t63.5 -57.5
t87 -21q65 0 147 31t210 121v242zM909 1325q-17 -66 -74.5 -110t-128.5 -44q-23 0 -42 4t-90 26q-109 34 -155 34q-44 0 -81 -41l-59 20q19 63 68.5 101.5t108.5 38.5q60 0 194 -38q66 -18 101 -18q64 0 98 45z" />
    <glyph glyph-name="aring" unicode="&#xe5;" horiz-adv-x="1188" 
d="M793 579v109q0 111 -62 158.5t-175 47.5q-56 0 -98 -13.5t-67.5 -37t-37.5 -53.5q-5 -11 -24 -85q-23 -90 -93 -90q-40 0 -64.5 26.5t-24.5 71.5q0 66 49 129.5t149.5 105t237.5 41.5q128 0 219 -39.5t134 -113.5q30 -51 30 -186v-385q0 -82 5 -107q11 -43 38.5 -64.5
t71.5 -21.5q46 0 110 22v-87q-83 -24 -149 -24q-71 0 -119.5 20t-79.5 58.5t-40 91.5q-120 -94 -217 -132t-196 -38q-138 0 -224 75t-86 176q0 61 31.5 116t96 97t202.5 74t383 58zM793 492q-232 -34 -287 -47q-109 -25 -156 -55t-67 -64.5t-20 -73.5t22.5 -75.5t63.5 -57.5
t87 -21q65 0 147 31t210 121v242zM593 1499q79 0 134 -55.5t55 -133.5q0 -79 -55.5 -134.5t-133.5 -55.5t-133 55.5t-55 134.5q0 78 55 133.5t133 55.5zM593 1429q-49 0 -83.5 -35t-34.5 -84q0 -50 34.5 -85t83.5 -35t84 35t35 85q0 49 -35 84t-84 35z" />
    <glyph glyph-name="ccedilla" unicode="&#xe7;" horiz-adv-x="1065" 
d="M958 279l64 -52q-188 -251 -451 -251q-205 0 -346 146t-141 363q0 145 65.5 260.5t182 179.5t267.5 64q172 0 287 -84.5t115 -170.5q0 -46 -27 -71t-61 -25q-18 0 -35 9t-35 29q-8 9 -29 56q-27 58 -42 78q-31 40 -76.5 63t-101.5 23q-85 0 -157.5 -47t-115 -138.5
t-42.5 -218.5q0 -197 105 -313q91 -100 217 -100q58 0 117.5 19.5t112.5 57.5q39 27 127 123zM522 0l-26 -87q41 3 49 3q56 0 104 -22q36 -16 56.5 -49.5t20.5 -79.5q0 -78 -51.5 -126.5t-138.5 -48.5t-150 43q-47 31 -47 72q0 22 14.5 37t37.5 15t38 -10.5t26 -39.5
q15 -34 25 -43q23 -18 54 -18q40 0 68 30.5t28 79.5q0 51 -30 78t-93 27q-41 0 -98 -20l51 159h62z" />
    <glyph glyph-name="eacute" unicode="&#xe9;" horiz-adv-x="1065" 
d="M930 258l64 -52q-73 -87 -141.5 -138t-129.5 -71.5t-143 -20.5q-147 0 -250 60q-118 69 -181 180t-63 262q0 158 61 270t170.5 176.5t253.5 64.5q107 0 186 -33.5t134 -101t80 -154.5q14 -51 16 -132h-707q-3 -49 -3 -73q0 -126 44 -224.5t116.5 -145t164.5 -46.5
q78 0 151 36.5t177 142.5zM802 662q-15 92 -42.5 136t-78 70t-113.5 26t-118 -26t-91.5 -72t-63.5 -134h507zM355 1170v35l185 136q95 70 159 70q30 0 50.5 -21.5t20.5 -53.5q0 -39 -28 -64.5t-101 -41.5z" />
    <glyph glyph-name="egrave" unicode="&#xe8;" horiz-adv-x="1065" 
d="M930 258l64 -52q-73 -87 -141.5 -138t-129.5 -71.5t-143 -20.5q-147 0 -250 60q-118 69 -181 180t-63 262q0 158 61 270t170.5 176.5t253.5 64.5q107 0 186 -33.5t134 -101t80 -154.5q14 -51 16 -132h-707q-3 -49 -3 -73q0 -126 44 -224.5t116.5 -145t164.5 -46.5
q78 0 151 36.5t177 142.5zM802 662q-15 92 -42.5 136t-78 70t-113.5 26t-118 -26t-91.5 -72t-63.5 -134h507zM741 1170l-286 60q-75 16 -103 41.5t-28 62.5q0 34 20.5 55.5t52.5 21.5q64 0 159 -70l185 -136v-35z" />
    <glyph glyph-name="ecircumflex" unicode="&#xea;" horiz-adv-x="1065" 
d="M930 258l64 -52q-73 -87 -141.5 -138t-129.5 -71.5t-143 -20.5q-147 0 -250 60q-118 69 -181 180t-63 262q0 158 61 270t170.5 176.5t253.5 64.5q107 0 186 -33.5t134 -101t80 -154.5q14 -51 16 -132h-707q-3 -49 -3 -73q0 -126 44 -224.5t116.5 -145t164.5 -46.5
q78 0 151 36.5t177 142.5zM802 662q-15 92 -42.5 136t-78 70t-113.5 26t-118 -26t-91.5 -72t-63.5 -134h507zM612 1404l291 -191l-27 -51l-264 93l-263 -93l-27 51z" />
    <glyph glyph-name="edieresis" unicode="&#xeb;" horiz-adv-x="1065" 
d="M930 258l64 -52q-73 -87 -141.5 -138t-129.5 -71.5t-143 -20.5q-147 0 -250 60q-118 69 -181 180t-63 262q0 158 61 270t170.5 176.5t253.5 64.5q107 0 186 -33.5t134 -101t80 -154.5q14 -51 16 -132h-707q-3 -49 -3 -73q0 -126 44 -224.5t116.5 -145t164.5 -46.5
q78 0 151 36.5t177 142.5zM802 662q-15 92 -42.5 136t-78 70t-113.5 26t-118 -26t-91.5 -72t-63.5 -134h507zM396 1378q50 0 86 -36t36 -87q0 -50 -36 -86t-86 -36t-86 36t-36 86q0 51 35.5 87t86.5 36zM730 1378q50 0 86 -36t36 -87q0 -50 -36 -86t-86 -36q-51 0 -86.5 36
t-35.5 86q0 51 35.5 87t86.5 36z" />
    <glyph glyph-name="iacute" unicode="&#xed;" horiz-adv-x="614" 
d="M61 821v83q83 10 139.5 28t128.5 57h73v-756q0 -77 5 -93q9 -30 36 -44q21 -12 83 -12h47v-84h-512v84h41q67 0 90 12t32.5 34t9.5 103v588h-173zM99 1170v35l185 136q95 70 159 70q30 0 50.5 -21.5t20.5 -53.5q0 -39 -28 -64.5t-101 -41.5z" />
    <glyph glyph-name="igrave" unicode="&#xec;" horiz-adv-x="614" 
d="M61 821v83q83 10 139.5 28t128.5 57h73v-756q0 -77 5 -93q9 -30 36 -44q21 -12 83 -12h47v-84h-512v84h41q67 0 90 12t32.5 34t9.5 103v588h-173zM476 1170l-286 60q-75 16 -103 41.5t-28 62.5q0 34 20.5 55.5t52.5 21.5q64 0 159 -70l185 -136v-35z" />
    <glyph glyph-name="icircumflex" unicode="&#xee;" horiz-adv-x="614" 
d="M61 821v83q83 10 139.5 28t128.5 57h73v-756q0 -77 5 -93q9 -30 36 -44q21 -12 83 -12h47v-84h-512v84h41q67 0 90 12t32.5 34t9.5 103v588h-173zM307 1404l291 -191l-27 -51l-264 93l-263 -93l-27 51z" />
    <glyph glyph-name="idieresis" unicode="&#xef;" horiz-adv-x="614" 
d="M61 821v83q83 10 139.5 28t128.5 57h73v-756q0 -77 5 -93q9 -30 36 -44q21 -12 83 -12h47v-84h-512v84h41q67 0 90 12t32.5 34t9.5 103v588h-173zM140 1378q50 0 86 -36t36 -87q0 -50 -36 -86t-86 -36t-86 36t-36 86q0 51 35.5 87t86.5 36zM474 1378q50 0 86 -36t36 -87
q0 -50 -36 -86t-86 -36q-51 0 -86.5 36t-35.5 86q0 51 35.5 87t86.5 36z" />
    <glyph glyph-name="ntilde" unicode="&#xf1;" horiz-adv-x="1352" 
d="M75 821v84q89 10 133 24t127 60h72v-190q132 111 225.5 150.5t189.5 39.5q82 0 145 -27.5t102.5 -74.5t52.5 -107q8 -37 8 -112v-440q0 -79 11.5 -101.5t36.5 -32.5t123 -10v-84h-515v84h28q72 0 98 13t37.5 38t11.5 102v368q0 114 -18.5 158t-63 71.5t-112.5 27.5
q-81 0 -173 -41.5t-178 -122.5v-461q0 -78 11.5 -104t37.5 -39q18 -10 96 -10h29v-84h-515v84h25q74 0 101 12.5t38 44.5q6 16 6 110v570h-170zM991 1325q-17 -66 -74.5 -110t-128.5 -44q-23 0 -42 4t-90 26q-109 34 -155 34q-44 0 -81 -41l-59 20q19 63 68.5 101.5
t108.5 38.5q60 0 194 -38q66 -18 101 -18q64 0 98 45z" />
    <glyph glyph-name="oacute" unicode="&#xf3;" horiz-adv-x="1147" 
d="M579 989q147 0 254.5 -61t169.5 -178t62 -267t-63.5 -267t-173 -178.5t-261.5 -61.5q-242 0 -363.5 151t-121.5 355q0 149 63 264.5t176.5 179t257.5 63.5zM571 892q-114 0 -193 -90q-100 -112 -100 -326q0 -206 85 -314q77 -96 209 -96q85 0 151.5 45t107.5 143.5
t41 231.5q0 130 -44 233q-34 82 -102.5 127.5t-154.5 45.5zM410 1170v35l185 136q95 70 159 70q30 0 50.5 -21.5t20.5 -53.5q0 -39 -28 -64.5t-101 -41.5z" />
    <glyph glyph-name="ograve" unicode="&#xf2;" horiz-adv-x="1147" 
d="M579 989q147 0 254.5 -61t169.5 -178t62 -267t-63.5 -267t-173 -178.5t-261.5 -61.5q-242 0 -363.5 151t-121.5 355q0 149 63 264.5t176.5 179t257.5 63.5zM571 892q-114 0 -193 -90q-100 -112 -100 -326q0 -206 85 -314q77 -96 209 -96q85 0 151.5 45t107.5 143.5
t41 231.5q0 130 -44 233q-34 82 -102.5 127.5t-154.5 45.5zM782 1170l-286 60q-75 16 -103 41.5t-28 62.5q0 34 20.5 55.5t52.5 21.5q64 0 159 -70l185 -136v-35z" />
    <glyph glyph-name="ocircumflex" unicode="&#xf4;" horiz-adv-x="1147" 
d="M579 989q147 0 254.5 -61t169.5 -178t62 -267t-63.5 -267t-173 -178.5t-261.5 -61.5q-242 0 -363.5 151t-121.5 355q0 149 63 264.5t176.5 179t257.5 63.5zM571 892q-114 0 -193 -90q-100 -112 -100 -326q0 -206 85 -314q77 -96 209 -96q85 0 151.5 45t107.5 143.5
t41 231.5q0 130 -44 233q-34 82 -102.5 127.5t-154.5 45.5zM573 1404l291 -191l-27 -51l-264 93l-263 -93l-27 51z" />
    <glyph glyph-name="odieresis" unicode="&#xf6;" horiz-adv-x="1147" 
d="M579 989q147 0 254.5 -61t169.5 -178t62 -267t-63.5 -267t-173 -178.5t-261.5 -61.5q-242 0 -363.5 151t-121.5 355q0 149 63 264.5t176.5 179t257.5 63.5zM571 892q-114 0 -193 -90q-100 -112 -100 -326q0 -206 85 -314q77 -96 209 -96q85 0 151.5 45t107.5 143.5
t41 231.5q0 130 -44 233q-34 82 -102.5 127.5t-154.5 45.5zM407 1378q50 0 86 -36t36 -87q0 -50 -36 -86t-86 -36t-86 36t-36 86q0 51 35.5 87t86.5 36zM741 1378q50 0 86 -36t36 -87q0 -50 -36 -86t-86 -36q-51 0 -86.5 36t-35.5 86q0 51 35.5 87t86.5 36z" />
    <glyph glyph-name="otilde" unicode="&#xf5;" horiz-adv-x="1147" 
d="M579 989q147 0 254.5 -61t169.5 -178t62 -267t-63.5 -267t-173 -178.5t-261.5 -61.5q-242 0 -363.5 151t-121.5 355q0 149 63 264.5t176.5 179t257.5 63.5zM571 892q-114 0 -193 -90q-100 -112 -100 -326q0 -206 85 -314q77 -96 209 -96q85 0 151.5 45t107.5 143.5
t41 231.5q0 130 -44 233q-34 82 -102.5 127.5t-154.5 45.5zM889 1325q-17 -66 -74.5 -110t-128.5 -44q-23 0 -42 4t-90 26q-109 34 -155 34q-44 0 -81 -41l-59 20q19 63 68.5 101.5t108.5 38.5q60 0 194 -38q66 -18 101 -18q64 0 98 45z" />
    <glyph glyph-name="uacute" unicode="&#xfa;" horiz-adv-x="1393" 
d="M20 965l379 15v-644q0 -85 23.5 -135t72 -77.5t113.5 -27.5q80 0 181.5 43t202.5 128v466q0 74 -11 97t-39 37t-88 14h-73v84l379 15v-746q0 -72 12 -99.5t35.5 -39t94.5 -11.5h31v-84l-332 -17v185q-137 -109 -239 -150.5t-207 -41.5q-78 0 -135.5 21t-101 63t-66.5 101
t-23 126v455q0 61 -11 85.5t-36.5 39t-69.5 14.5h-92v84zM489 1170v35l185 136q95 70 159 70q30 0 50.5 -21.5t20.5 -53.5q0 -39 -28 -64.5t-101 -41.5z" />
    <glyph glyph-name="ugrave" unicode="&#xf9;" horiz-adv-x="1393" 
d="M20 965l379 15v-644q0 -85 23.5 -135t72 -77.5t113.5 -27.5q80 0 181.5 43t202.5 128v466q0 74 -11 97t-39 37t-88 14h-73v84l379 15v-746q0 -72 12 -99.5t35.5 -39t94.5 -11.5h31v-84l-332 -17v185q-137 -109 -239 -150.5t-207 -41.5q-78 0 -135.5 21t-101 63t-66.5 101
t-23 126v455q0 61 -11 85.5t-36.5 39t-69.5 14.5h-92v84zM905 1170l-286 60q-75 16 -103 41.5t-28 62.5q0 34 20.5 55.5t52.5 21.5q64 0 159 -70l185 -136v-35z" />
    <glyph glyph-name="ucircumflex" unicode="&#xfb;" horiz-adv-x="1393" 
d="M20 965l379 15v-644q0 -85 23.5 -135t72 -77.5t113.5 -27.5q80 0 181.5 43t202.5 128v466q0 74 -11 97t-39 37t-88 14h-73v84l379 15v-746q0 -72 12 -99.5t35.5 -39t94.5 -11.5h31v-84l-332 -17v185q-137 -109 -239 -150.5t-207 -41.5q-78 0 -135.5 21t-101 63t-66.5 101
t-23 126v455q0 61 -11 85.5t-36.5 39t-69.5 14.5h-92v84zM696 1404l291 -191l-27 -51l-264 93l-263 -93l-27 51z" />
    <glyph glyph-name="udieresis" unicode="&#xfc;" horiz-adv-x="1393" 
d="M20 965l379 15v-644q0 -85 23.5 -135t72 -77.5t113.5 -27.5q80 0 181.5 43t202.5 128v466q0 74 -11 97t-39 37t-88 14h-73v84l379 15v-746q0 -72 12 -99.5t35.5 -39t94.5 -11.5h31v-84l-332 -17v185q-137 -109 -239 -150.5t-207 -41.5q-78 0 -135.5 21t-101 63t-66.5 101
t-23 126v455q0 61 -11 85.5t-36.5 39t-69.5 14.5h-92v84zM530 1378q50 0 86 -36t36 -87q0 -50 -36 -86t-86 -36t-86 36t-36 86q0 51 35.5 87t86.5 36zM864 1378q50 0 86 -36t36 -87q0 -50 -36 -86t-86 -36q-51 0 -86.5 36t-35.5 86q0 51 35.5 87t86.5 36z" />
    <glyph glyph-name="dagger" unicode="&#x2020;" horiz-adv-x="1106" 
d="M601 -333h-94v417q0 344 -87 542q53 77 65.5 102t36.5 104l-158 -44q-71 -20 -113 -20q-43 0 -66.5 26.5t-23.5 75.5q0 43 26.5 68t72.5 25q22 0 42 -4q7 -1 45 -13l175 -46q-8 67 -18 117t-38 152q-19 71 -22 90q-5 28 -5 56q0 48 30 76t84 28q55 0 85 -28.5t30 -79.5
t-33 -176l-26 -103l-25 -132l164 46q61 17 102 17q40 0 68 -27.5t28 -67.5q0 -45 -24.5 -72t-65.5 -27q-47 0 -116 19l-156 44q14 -60 29 -93q10 -22 65 -113q-77 -229 -77 -542v-417z" />
    <glyph glyph-name="degree" unicode="&#xb0;" horiz-adv-x="819" 
d="M409 1419q114 0 194 -80t80 -194q0 -113 -80 -193t-194 -80q-113 0 -193 80t-80 193q0 114 80 194t193 80zM409 1320q-73 0 -125 -51t-52 -124q0 -72 52 -123.5t125 -51.5q74 0 126 51.5t52 123.5q0 73 -52 124t-126 51z" />
    <glyph glyph-name="cent" unicode="&#xa2;" horiz-adv-x="1270" 
d="M634 1395h96v-215q120 -16 198.5 -56.5t116.5 -92t38 -96.5q0 -38 -27 -64.5t-66 -26.5q-37 0 -62.5 20.5t-49.5 84.5q-24 66 -59.5 98t-88.5 42v-749q89 16 151.5 52.5t151.5 132.5l65 -55q-92 -115 -182 -170t-186 -65v-235h-96v235q-124 11 -222 74t-151.5 166.5
t-53.5 234.5t51.5 231t151.5 164t224 75v215zM634 1085q-56 -11 -97 -39t-75 -75t-50.5 -110t-16.5 -149q0 -103 33 -180.5t99 -130.5q40 -34 107 -55v739z" />
    <glyph glyph-name="sterling" unicode="&#xa3;" horiz-adv-x="1270" 
d="M57 823h265q-45 104 -45 206q0 103 56.5 191.5t167 143.5t242.5 55q124 0 215 -47.5t144.5 -137t65.5 -228.5l-97 -14q-24 129 -62.5 188.5t-103.5 94.5t-146 35q-123 0 -205.5 -77t-82.5 -184t53 -226h366v-97h-334q38 -114 51.5 -189t13.5 -147q0 -58 -13 -116
q214 -116 341 -116q55 0 104 33.5t83.5 109.5t45.5 189l93 -7q1 -150 -52.5 -276.5t-124.5 -178.5t-165 -52q-78 0 -161.5 39t-199.5 144q-48 -92 -119 -134q-82 -49 -177 -49q-75 0 -134 31t-90.5 84.5t-31.5 118.5q0 64 32 119t88 85.5t124 30.5q128 0 234 -109
q-7 62 -24 111q-26 82 -82 202q-24 54 -32 77h-303v97zM498 220q-16 13 -49 43q-44 40 -62 50q-32 18 -62 27t-56 9q-56 0 -98.5 -41.5t-42.5 -96.5q0 -60 44 -101.5t112 -41.5q66 0 125 40.5t89 111.5z" />
    <glyph glyph-name="section" unicode="&#xa7;" horiz-adv-x="1065" 
d="M290 825q-97 48 -145.5 115.5t-48.5 153.5q0 135 118.5 230t323.5 95q207 0 328 -94q95 -74 95 -172q0 -52 -27.5 -81t-72.5 -29q-24 0 -44 12t-32.5 34.5t-22.5 72.5q-10 53 -23.5 75.5t-42 43t-71 32t-93.5 11.5q-123 0 -194.5 -56t-71.5 -137q0 -58 31 -97t111 -73
q32 -14 200 -62q153 -44 228 -93.5t111 -113.5t36 -140q0 -73 -41.5 -155t-120.5 -157q79 -35 122 -94q56 -76 56 -169q0 -92 -55.5 -174.5t-161.5 -131.5t-253 -49q-144 0 -247.5 43t-159.5 118t-56 143q0 44 29.5 78t64.5 34q26 0 49.5 -14t33 -32t15.5 -69q7 -61 23 -91
q26 -51 91.5 -84t159.5 -33q93 0 163 30.5t103 81t33 111.5q0 41 -18 75t-54 61t-94 48q-19 7 -111 29q-125 30 -177 47q-105 36 -167 80t-95 106t-33 128q0 75 45.5 150t162.5 163zM370 793q-72 -62 -103 -119.5t-31 -105.5q0 -51 33 -101.5t101.5 -83.5t228.5 -71
q106 -24 144 -38q45 45 70 100.5t25 107.5q0 59 -26.5 106t-81.5 81.5t-190.5 73.5t-169.5 50z" />
    <glyph glyph-name="bullet" unicode="&#x2022;" horiz-adv-x="942" 
d="M182 704q0 125 84.5 212t204.5 87t205 -86.5t85 -211.5q0 -123 -85 -209t-204 -86q-120 0 -205 86t-85 208z" />
    <glyph glyph-name="paragraph" unicode="&#xb6;" horiz-adv-x="1229" 
d="M854 1262h-151v-1706h-95v1071q-21 -1 -32 -1q-147 0 -243 44t-144 121.5t-48 184.5q0 79 29 147.5t81.5 118.5t109.5 72.5t149 32.5q45 5 157 5h416v-72q-72 -6 -93.5 -18.5t-31.5 -41t-10 -115.5v-1549h-94v1706z" />
    <glyph glyph-name="germandbls" unicode="&#xdf;" horiz-adv-x="1352" 
d="M71 965h172v45q0 62 14.5 146t70.5 155.5t145.5 113.5t207.5 42q114 0 193 -39t124.5 -108.5t45.5 -147.5q0 -40 -15 -72q-11 -22 -32 -35t-78 -22q-126 -20 -165 -49q-39 -30 -39 -76q0 -47 42 -84t179 -101t196 -114.5t90.5 -120t31.5 -142.5q0 -97 -56 -187.5
t-155 -141.5t-221 -51q-100 0 -186 35.5t-125 85t-39 96.5q0 32 25.5 58t57.5 26q30 0 57.5 -18.5t55.5 -66.5q41 -69 81.5 -93.5t99.5 -24.5q101 0 177.5 72.5t76.5 164.5q0 64 -32 118t-98 98q-46 30 -151 77q-74 33 -94 44q-54 32 -93.5 72.5t-54 74.5t-14.5 81
q0 62 34 114t108.5 87.5t189.5 45.5q-14 16 -17 27q-6 23 -9 74q-2 25 -10 43q-11 26 -29 46.5t-41.5 34.5t-53.5 21t-65 7q-132 0 -206 -94q-57 -73 -57 -231v-1051h-339v84h56q52 0 71 12q24 14 36 43q9 21 9 96v629h-172v101z" />
    <glyph glyph-name="registered" unicode="&#xae;" horiz-adv-x="1516" 
d="M798 1387q190 0 355 -95t260 -259.5t95 -354.5t-95 -354.5t-260 -259.5t-355 -95t-354.5 95t-259.5 259.5t-95 354.5t95 354.5t259.5 259.5t354.5 95zM798 1326q-173 0 -323.5 -87t-237 -237t-86.5 -324t86.5 -324t237 -237t323.5 -87q174 0 324.5 87t237 237t86.5 324
t-86.5 324t-237 237t-324.5 87zM406 1114h386q142 0 219.5 -64t77.5 -160q0 -83 -56 -138.5t-166 -83.5l209 -298q36 -51 66 -71q19 -14 55 -17v-33h-184l-294 405h-76v-309q7 -34 30 -48.5t88 -14.5v-33h-367v33q49 0 70.5 13t30.5 41q3 12 3 84v523q0 71 -2 82
q-6 26 -25 39.5t-65 13.5v36zM643 697q113 0 168.5 21t86 64t30.5 97q0 81 -56.5 136t-144.5 55q-38 0 -84 -16v-357z" />
    <glyph glyph-name="copyright" unicode="&#xa9;" horiz-adv-x="1516" 
d="M798 1387q190 0 355 -95t260 -259.5t95 -354.5t-95 -354.5t-260 -259.5t-355 -95t-354.5 95t-259.5 259.5t-95 354.5t95 354.5t259.5 259.5t354.5 95zM798 1326q-173 0 -323.5 -87t-237 -237t-86.5 -324t86.5 -324t237 -237t323.5 -87q174 0 324.5 87t237 237t86.5 324
t-86.5 324t-237 237t-324.5 87zM1149 1134l20 -280h-39q-26 84 -66 132t-102 76t-135 28q-94 0 -167.5 -46.5t-108.5 -122.5q-45 -96 -45 -220q0 -141 39 -229t116 -136t176 -48q63 0 121.5 19t103 51.5t87.5 91.5l37 -19q-62 -91 -141 -138q-106 -65 -242 -65
q-132 0 -237 58.5t-165.5 161.5t-60.5 224q0 125 64 232t177.5 169t256.5 62q46 0 76.5 -6t108.5 -32q25 -8 37 -8q17 0 27.5 9t21.5 36h40z" />
    <glyph glyph-name="trademark" unicode="&#x2122;" horiz-adv-x="2007" 
d="M11 1356h728l22 -201h-34q-10 73 -53 107t-141 34h-75v-579q0 -65 8.5 -86.5t27.5 -32.5t70 -13v-36h-374v36q53 5 69 15t23.5 30.5t7.5 85.5v580h-76q-94 0 -134.5 -31t-55.5 -110h-34zM1116 1356l273 -572l265 572h279v-37q-57 -1 -75 -11.5t-27 -32t-9 -91.5v-468
q0 -69 7.5 -88t27.5 -29.5t76 -13.5v-36h-398v36q59 1 79.5 12t30 32t9.5 86v492l-307 -658h-32l-308 649v-482q0 -66 7 -84q9 -25 28 -36t58 -11h36v-36h-306v36q57 0 76 10.5t28 31.5t9 89v466q0 74 -8 95t-29 31.5t-76 10.5v37h286z" />
    <glyph glyph-name="acute" unicode="&#xb4;" horiz-adv-x="696" 
d="M140 1170v35l185 136q95 70 159 70q30 0 50.5 -21.5t20.5 -53.5q0 -39 -28 -64.5t-101 -41.5z" />
    <glyph glyph-name="dieresis" unicode="&#xa8;" horiz-adv-x="860" 
d="M263 1378q50 0 86 -36t36 -87q0 -50 -36 -86t-86 -36t-86 36t-36 86q0 51 35.5 87t86.5 36zM597 1378q50 0 86 -36t36 -87q0 -50 -36 -86t-86 -36q-51 0 -86.5 36t-35.5 86q0 51 35.5 87t86.5 36z" />
    <glyph glyph-name="notequal" unicode="&#x2260;" horiz-adv-x="1124" 
d="M773 916h277v-123h-359l-128 -191h487v-123h-569l-247 -369h-129l246 369h-276v123h358l128 191h-486v123h568l247 369h130z" />
    <glyph glyph-name="AE" unicode="&#xc6;" horiz-adv-x="2580" 
d="M738 1395h1600l131 -363l-88 -31q-67 161 -150 221q-94 68 -290 68h-428v-515h204q96 0 141 21.5t71.5 65.5t26.5 109v61h96v-614h-96v57q0 80 -24 121t-67.5 61t-147.5 20h-204v-490l1 -24q0 -24 4 -31q8 -13 22 -19q10 -4 47 -4h323q143 0 236.5 35.5t162.5 106.5
t136 218l91 -30l-155 -439h-1230v84h55q71 0 100 33q24 27 24 97v463h-665l-280 -451l-8 -11q-35 -46 -35 -82q0 -23 19.5 -36t76.5 -13h43v-84h-479v84q55 1 82 10.5t48 28.5q34 32 67 82l641 983q34 52 34 79q0 21 -18 32t-71 11h-47v85zM1047 1290l-321 -515h604v515
h-283z" />
    <glyph glyph-name="Oslash" unicode="&#xd8;" horiz-adv-x="1638" 
d="M1267 1270l133 149h130l-192 -215q99 -104 145.5 -224t46.5 -276q0 -322 -200 -525t-510 -203q-265 0 -450 148l-133 -148h-130l192 214q-192 208 -192 506q0 206 93 369.5t263.5 258.5t373.5 95q243 0 430 -149zM1175 1167q-59 73 -141.5 108.5t-196.5 35.5
q-155 0 -266.5 -71.5t-179 -210.5t-67.5 -341q0 -227 88 -372zM1228 1081l-758 -846q138 -159 351 -159q139 0 246.5 70.5t177 222t69.5 338.5q0 207 -86 374z" />
    <glyph glyph-name="infinity" unicode="&#x221e;" horiz-adv-x="1460" 
d="M653 667q51 118 98 170.5t113.5 79.5t158.5 27q109 0 196 -53.5t137 -146.5t50 -217q0 -204 -133 -327q-101 -93 -216 -93q-98 0 -183 72q-57 48 -154 214q-47 -91 -93.5 -138t-104 -71t-126.5 -24q-145 0 -244 103.5t-99 265.5t91 264.5t216 102.5q94 0 164 -54
q58 -44 129 -175zM749 464q73 -152 145.5 -207.5t166.5 -55.5q135 0 211.5 95.5t76.5 230.5q0 145 -86 242t-196 97q-64 0 -112.5 -29.5t-91.5 -99.5q-29 -49 -114 -273zM624 590q-53 119 -118 166.5t-149 47.5q-106 0 -177.5 -75t-71.5 -199q0 -130 69.5 -211t160.5 -81
q87 0 158 74q55 58 117 244z" />
    <glyph glyph-name="plusminus" unicode="&#xb1;" horiz-adv-x="1124" 
d="M1050 875v-123h-426v-426h-123v426h-426v123h426v425h123v-425h426zM1050 251v-123h-975v123h975z" />
    <glyph glyph-name="lessequal" unicode="&#x2264;" horiz-adv-x="1124" 
d="M994 283l-901 401v100l901 401v-144l-718 -307l718 -307v-144zM994 201v-123h-901v123h901z" />
    <glyph glyph-name="greaterequal" unicode="&#x2265;" horiz-adv-x="1124" 
d="M130 1185l901 -401v-100l-901 -401v144l718 307l-718 307v144zM1031 201v-123h-901v123h901z" />
    <glyph glyph-name="yen" unicode="&#xa5;" horiz-adv-x="1270" 
d="M791 685h374v-97h-432l-5 -9v-127h437v-97h-437v-127q0 -77 12.5 -100t39.5 -33.5t126 -10.5v-84h-545v84h42q67 0 89.5 12t35.5 39q9 19 9 93v127h-431v97h431v90l-26 46h-405v97h350l-288 513q-44 79 -73.5 94.5t-109.5 17.5v85h522v-85h-59q-54 0 -69.5 -10t-15.5 -33
q0 -20 19 -54q5 -8 13 -23l272 -504l301 523q18 32 21.5 41.5t3.5 19.5q0 14 -7.5 23.5t-23.5 14.5q-10 2 -56 2h-52v85h431v-85q-57 1 -84.5 -7t-45 -24.5t-49.5 -69.5z" />
    <glyph glyph-name="mu1" unicode="&#xb5;" horiz-adv-x="1180" 
d="M203 965h171v-623q0 -99 18.5 -148t56.5 -75.5t85 -26.5q52 0 117 40t142 119v714h167v-732q0 -72 10 -91q15 -28 51 -28q29 0 83 24v-54q-90 -65 -130.5 -83t-65.5 -18q-31 0 -57.5 18.5t-40 52.5t-17.5 106q-116 -121 -180.5 -156t-132.5 -35q-53 0 -100.5 20t-77.5 53
t-60 106q-3 -39 -3 -59q0 -82 39 -241q22 -89 22 -116q0 -41 -26 -69t-64 -28q-42 0 -67.5 29t-25.5 82q0 38 21 153q36 190 50.5 356.5t14.5 398.5v311z" />
    <glyph glyph-name="partialdiff" unicode="&#x2202;" horiz-adv-x="1012" 
d="M930 717q12 113 12 186q0 178 -94 277.5t-252 99.5q-66 0 -121 -17.5t-96 -49t-84 -92.5h-46q59 121 112 179.5t124.5 90t144.5 31.5q114 0 202 -66.5t126 -177t38 -258.5q0 -203 -56 -394.5t-147 -321.5t-186.5 -182.5t-202.5 -52.5q-135 0 -227 73q-112 88 -112 262
q0 155 78.5 299t207.5 224.5t266 80.5q68 0 128.5 -23t112.5 -69q39 -34 72 -99zM913 628q-27 77 -68 124t-100 74t-119 27q-108 0 -202 -82q-79 -69 -134.5 -221.5t-55.5 -286.5q0 -72 26 -127.5t69.5 -82.5t99.5 -27q87 0 193.5 79.5t192.5 244.5q61 115 98 278z" />
    <glyph glyph-name="summation" unicode="&#x2211;" horiz-adv-x="1460" 
d="M1356 -442h-1313v37l669 901l-669 887v37h1278l27 -337h-40q-8 72 -28.5 120.5t-48.5 76.5t-69.5 43.5t-102.5 15.5h-740l562 -757l-629 -847h818q65 0 137 22t110 71t63 153l40 -8z" />
    <glyph glyph-name="product" unicode="&#x220f;" horiz-adv-x="1685" 
d="M1240 1342h-795v-1591q0 -56 20 -95q13 -28 39 -39q48 -21 103 -21h36v-38h-597v38h35q58 0 100 19q30 14 42 39q21 42 21 97v1477q0 56 -20 95q-14 27 -39 38q-48 22 -104 22h-35v37h1594v-37h-35q-58 0 -100 -20q-30 -14 -42 -38q-20 -43 -20 -97v-1477q0 -56 19 -95
q14 -28 39 -39q48 -21 104 -21h35v-38h-597v38h35q58 0 100 19q30 14 42 39q20 42 20 97v1591z" />
    <glyph glyph-name="pi1" unicode="&#xf006;" horiz-adv-x="1124" 
d="M1024 916v-146h-232q-17 -101 -28 -238t-11 -220q0 -88 34.5 -130.5t90.5 -42.5q45 0 74.5 28t35.5 83h36q-11 -94 -42 -157t-74.5 -92t-89.5 -29q-71 0 -123 67t-52 279q0 86 10 190q16 185 28 262h-235q-2 -21 -8 -114q-12 -201 -36.5 -364.5t-49.5 -223.5t-56 -82
q-19 -14 -44 -14q-38 0 -64 24.5t-26 58.5q0 28 10 52q6 15 55 83q25 34 39 64.5t25 77.5q15 66 24 157l20 281h-29q-52 0 -83 -12t-60.5 -40.5t-64.5 -88.5h-36q30 111 75.5 176.5t92.5 88t156 22.5h638z" />
    <glyph glyph-name="integral" unicode="&#x222b;" horiz-adv-x="561" 
d="M200 895q0 185 11 429q8 186 21 265q17 106 51 176q19 41 64.5 69.5t87.5 28.5q49 0 87 -33t38 -74q0 -46 -26.5 -75t-65.5 -29q-35 0 -76 36q-23 20 -40 20q-18 0 -29 -14.5t-11 -49.5q0 -41 9 -145q37 -411 37 -663q0 -70 -7 -312l-11 -332q-8 -119 -30 -206.5
t-51.5 -128.5t-64.5 -59t-76 -18q-52 0 -85 34t-33 87q0 44 25.5 71.5t64.5 27.5q40 0 70 -33q20 -21 28 -26t20 -5q17 0 28 14.5t11 46.5q0 42 -9 120q-15 128 -26.5 349t-11.5 429z" />
    <glyph glyph-name="ordfeminine" unicode="&#xaa;" horiz-adv-x="860" 
d="M548 1172v59q0 61 -33.5 89.5t-108.5 28.5q-40 0 -67 -10t-40 -26t-24 -54q-14 -48 -30.5 -63t-46.5 -15q-33 0 -52 18t-19 47q0 65 78.5 119t215.5 54q94 0 154.5 -27t87.5 -69q21 -33 21 -115v-230q0 -53 6 -72t19.5 -28.5t37.5 -9.5q27 0 83 18v-67q-63 -17 -111 -17
t-74 10q-38 15 -63 39q-16 15 -24 43q-65 -46 -130 -69t-130 -23q-97 0 -155.5 47.5t-58.5 110.5q0 76 83 128.5t381 83.5zM548 1106q-155 -22 -189 -30q-75 -18 -103.5 -45.5t-28.5 -59.5q0 -37 28.5 -62t72.5 -25q39 0 90 18t130 68v136z" />
    <glyph glyph-name="ordmasculine" unicode="&#xba;" horiz-adv-x="860" 
d="M433 1419q156 0 242 -89t86 -222q0 -130 -86.5 -220t-251.5 -90q-162 0 -243.5 92.5t-81.5 217.5q0 136 92 223.5t243 87.5zM428 1347q-76 0 -127 -63.5t-51 -179.5q0 -119 48.5 -179t129.5 -60q91 0 137.5 69.5t46.5 174.5q0 76 -24 130.5t-65.5 81t-94.5 26.5z" />
    <glyph glyph-name="Ohm" unicode="&#x2126;" horiz-adv-x="1573" 
d="M86 313h36q3 -45 21.5 -74t45.5 -41t96 -12h270v67q-153 31 -279 155q-155 154 -155 389q0 167 78 292q86 138 238.5 218t352.5 80q199 0 350 -79t236 -215q77 -123 77 -293q0 -201 -114 -345.5t-322 -201.5v-67h275q64 0 92 12.5t45 39.5t21 75h36v-313h-559l22 302
q119 38 188.5 153t69.5 324q0 174 -55.5 289.5t-154 179.5t-212.5 64q-113 0 -208 -61.5t-153 -181.5t-58 -276q0 -135 37 -256q26 -88 79.5 -145.5t139.5 -89.5l23 -302h-559v313z" />
    <glyph glyph-name="ae" unicode="&#xe6;" horiz-adv-x="1761" 
d="M1625 259l66 -52q-92 -120 -197 -175.5t-234 -55.5q-126 0 -223.5 55t-165.5 165q-94 -92 -256 -169q-108 -51 -218 -51q-140 0 -225.5 75t-85.5 179q0 65 31 119.5t99 98t212 77t370 54.5v83q0 91 -23 134.5t-78 70.5t-136 27q-65 0 -112 -19t-71.5 -50t-38.5 -96
q-12 -53 -24 -73.5t-31 -31.5t-42 -11q-41 0 -65 25.5t-24 74.5q0 105 117 190.5t313 85.5q89 0 155 -18.5t116 -53.5q38 -26 70 -76q148 148 337 148q188 0 301.5 -112.5t118.5 -306.5h-707q-4 -51 -4 -76q0 -121 47 -218.5t121.5 -146.5t161.5 -49q80 0 164 43.5
t161 135.5zM1498 662q-8 105 -73.5 169t-160.5 64t-170.5 -61.5t-104.5 -171.5h509zM798 490q-156 -17 -273.5 -43.5t-166.5 -56t-69 -63.5t-20 -72q0 -40 21.5 -77.5t64 -59.5t87.5 -22q61 0 156.5 38t199.5 116v240z" />
    <glyph glyph-name="oslash" unicode="&#xf8;" horiz-adv-x="1147" 
d="M880 898l79 91h106l-126 -146q59 -65 92.5 -159.5t33.5 -200.5q0 -150 -63.5 -267.5t-173 -178.5t-263.5 -61q-182 0 -299 90l-77 -90h-107l126 146q-126 153 -126 359q0 150 63 265.5t176.5 179t258.5 63.5q179 0 300 -91zM787 791q-36 46 -94 73.5t-120 27.5
q-119 0 -198 -93q-97 -113 -97 -325q0 -128 38 -227zM829 716l-472 -546q78 -104 215 -104q85 0 152 45t107.5 143.5t40.5 231.5q0 131 -43 230z" />
    <glyph glyph-name="questiondown" unicode="&#xbf;" horiz-adv-x="1106" 
d="M701 725q-52 0 -89 36.5t-37 88.5q0 51 37 88t89 37t88.5 -36.5t36.5 -88.5t-36.5 -88.5t-88.5 -36.5zM752 623v-355q-200 1 -297.5 -33.5t-149 -107t-51.5 -162.5q0 -82 46 -162t120.5 -124t159.5 -44q68 0 117.5 26t91.5 87t60 75q35 27 70 27q24 0 47.5 -12.5
t32.5 -28.5q13 -24 13 -48q0 -79 -92 -139q-128 -83 -308 -83q-161 0 -285.5 60.5t-188.5 160.5t-64 225q0 198 156.5 307t416.5 109v222h105z" />
    <glyph glyph-name="exclamdown" unicode="&#xa1;" horiz-adv-x="614" 
d="M307 725q-52 0 -88.5 36.5t-36.5 88.5q0 51 37 88t88 37q52 0 89 -36.5t37 -88.5t-37 -88.5t-89 -36.5zM351 623l76 -894q4 -38 4 -48q0 -73 -32 -107.5t-94 -34.5q-54 0 -87.5 33t-33.5 88q0 19 5 61l79 902h83z" />
    <glyph glyph-name="logicalnot" unicode="&#xac;" horiz-adv-x="1229" 
d="M127 718h975v-737h-117v620h-858v117z" />
    <glyph glyph-name="radical" unicode="&#x221a;" horiz-adv-x="1124" 
d="M1050 1869h74l-312 -1947l-496 1021l-198 -91l-34 64l301 151l405 -823z" />
    <glyph glyph-name="florin" unicode="&#x192;" horiz-adv-x="1270" 
d="M396 965h186l46 165q11 42 41 109.5t73 108.5q58 57 134.5 88t163.5 31q111 0 175.5 -44t64.5 -97q0 -37 -24 -62t-61 -25q-26 0 -45.5 8.5t-46.5 35.5q-50 48 -84 66q-21 12 -47 12q-46 0 -90.5 -44.5t-72.5 -145.5l-57 -206h220l-24 -97h-222l-217 -797
q-46 -170 -106.5 -260.5t-143.5 -135t-181 -44.5q-86 0 -135.5 36.5t-49.5 82.5q0 35 25.5 59.5t61.5 24.5q23 0 41.5 -8.5t47.5 -35.5q32 -29 50 -38.5t35 -9.5q45 0 85 48.5t80 196.5l239 881h-190z" />
    <glyph glyph-name="approxequal" unicode="&#x2248;" horiz-adv-x="1124" 
d="M929 1022l87 -97q-31 -78 -70.5 -122.5t-87.5 -67.5t-102 -23q-40 0 -81 15q-20 7 -122 59l-133 64q-25 10 -51 10q-48 0 -77.5 -34t-88.5 -146l-95 98q40 80 80.5 122.5t86.5 64.5t93 22q35 0 75 -13t146 -68q96 -48 120.5 -57.5t40.5 -9.5q47 0 88 41q28 28 91 142z
M929 661l87 -97q-31 -79 -70.5 -123.5t-87.5 -67.5t-102 -23q-40 0 -81 15q-20 7 -122 59l-133 64q-25 10 -51 10q-48 0 -77.5 -34t-88.5 -146l-95 98q40 80 80.5 122.5t86.5 64.5t93 22q35 0 75 -13t146 -67q96 -49 120.5 -58.5t40.5 -9.5q47 0 88 41q28 28 91 143z" />
    <glyph glyph-name="increment" unicode="&#x2206;" horiz-adv-x="1253" 
d="M1226 0h-1200l628 1387zM990 82l-399 967l-440 -967h839z" />
    <glyph glyph-name="guillemotleft" unicode="&#xab;" horiz-adv-x="737" 
d="M275 851l76 -36l-107 -319l107 -311l-76 -38l-185 349zM520 851l77 -36l-107 -319l107 -311l-77 -38l-184 349z" />
    <glyph glyph-name="guillemotright" unicode="&#xbb;" horiz-adv-x="737" 
d="M463 147l-76 36l107 319l-107 311l76 38l185 -349zM217 147l-76 36l107 319l-107 311l76 38l185 -349z" />
    <glyph glyph-name="ellipsis" unicode="&#x2026;" horiz-adv-x="2048" 
d="M1707 236q52 0 88.5 -37t36.5 -89q0 -53 -37 -90t-88 -37q-52 0 -89 37t-37 89t38.5 89.5t87.5 37.5zM1024 236q52 0 89 -37t37 -89q0 -53 -37 -90t-89 -37t-88.5 37t-36.5 89t38 89.5t87 37.5zM341 233q53 0 89.5 -36.5t36.5 -88.5t-37 -88.5t-89 -36.5q-51 0 -88 36.5
t-37 88.5t36.5 88.5t88.5 36.5z" />
    <glyph glyph-name="nbspace" unicode="&#xa0;" horiz-adv-x="696" 
 />
    <glyph glyph-name="Agrave" unicode="&#xc0;" horiz-adv-x="1393" 
d="M616 1395h165l433 -1166q32 -88 64.5 -116.5t87.5 -28.5h22v-84h-497v84q24 2 47 2q48 0 63 10q29 19 29 48q0 21 -28 103l-92 270h-506l-108 -302q-17 -47 -17 -65q0 -20 10.5 -35t28.5 -22.5t58 -7.5q27 0 44 -1v-84h-417v84q58 0 83.5 11.5t44.5 37t50 107.5zM441 615
h431l-216 600zM844 1501l-286 60q-75 16 -103 41.5t-28 62.5q0 34 20.5 55.5t52.5 21.5q64 0 159 -70l185 -136v-35z" />
    <glyph glyph-name="Atilde" unicode="&#xc3;" horiz-adv-x="1393" 
d="M616 1395h165l433 -1166q32 -88 64.5 -116.5t87.5 -28.5h22v-84h-497v84q24 2 47 2q48 0 63 10q29 19 29 48q0 21 -28 103l-92 270h-506l-108 -302q-17 -47 -17 -65q0 -20 10.5 -35t28.5 -22.5t58 -7.5q27 0 44 -1v-84h-417v84q58 0 83.5 11.5t44.5 37t50 107.5zM441 615
h431l-216 600zM1011 1657q-17 -66 -74.5 -110t-128.5 -44q-23 0 -42 4t-90 26q-109 34 -155 34q-44 0 -81 -41l-59 20q19 63 68.5 101.5t108.5 38.5q60 0 194 -38q66 -18 101 -18q64 0 98 45z" />
    <glyph glyph-name="Otilde" unicode="&#xd5;" horiz-adv-x="1638" 
d="M839 1419q191 0 345 -92q167 -99 256.5 -257t89.5 -366q0 -322 -200 -525t-510 -203q-346 0 -548 244q-165 199 -165 476q0 206 93 369.5t264 258.5t375 95zM839 1311q-156 0 -268 -71.5t-179.5 -210.5t-67.5 -343q0 -195 66.5 -330.5t178.5 -207.5t252 -72
q139 0 246 70.5t177 222t70 336.5q0 188 -70 344q-60 134 -159 198t-246 64zM1134 1657q-17 -66 -74.5 -110t-128.5 -44q-23 0 -42 4t-90 26q-109 34 -155 34q-44 0 -81 -41l-59 20q19 63 68.5 101.5t108.5 38.5q60 0 194 -38q66 -18 101 -18q64 0 98 45z" />
    <glyph glyph-name="OE" unicode="&#x152;" horiz-adv-x="2539" 
d="M2280 1395l130 -367l-87 -33q-34 90 -72.5 141.5t-93.5 87.5t-110.5 48t-199.5 12h-338v-511h167q93 0 140.5 31.5t66.5 78.5q14 35 14 122v23h97v-612h-97v53q0 70 -11 101t-39 58.5t-60.5 37.5t-110.5 10h-167v-456q0 -70 6 -85t21.5 -22t81.5 -7h209q175 0 273.5 42
t174.5 129q59 68 112 192l91 -32l-155 -437h-1001v220q-50 -69 -98 -107q-84 -68 -182.5 -102.5t-225.5 -34.5q-207 0 -355 86q-162 95 -254 258.5t-92 369.5q0 213 92 378.5t253 258t364 92.5q178 0 316 -74q97 -52 182 -155v205h958zM828 1317q-211 0 -346 -159
q-150 -177 -150 -463q0 -194 64.5 -333t176 -210t249.5 -71q218 0 359 173.5t141 445.5q0 282 -153 464q-128 153 -341 153z" />
    <glyph glyph-name="oe" unicode="&#x153;" horiz-adv-x="1843" 
d="M1710 261l63 -50q-168 -235 -435 -235q-88 0 -152.5 23t-119.5 70.5t-99 122.5q-49 -79 -104.5 -123t-132 -68.5t-167.5 -24.5q-214 0 -346.5 137.5t-132.5 366.5q0 232 135.5 370.5t358.5 138.5q104 0 183 -28.5t137 -81.5q34 -30 69 -87q139 197 378 197
q133 0 231 -57.5t150 -168.5q38 -82 39 -191h-707q-5 -56 -5 -84q0 -115 46.5 -211.5t121 -145.5t155.5 -49q170 0 334 179zM1580 665q-10 104 -77 168t-160 64q-104 0 -183 -76q-56 -54 -88 -156h508zM576 894q-80 0 -148.5 -46.5t-109 -141t-40.5 -230.5q0 -135 39 -227
t103.5 -135.5t151.5 -43.5q129 0 215 108t86 306q0 216 -101 325q-79 85 -196 85z" />
    <glyph glyph-name="endash" unicode="&#x2013;" horiz-adv-x="1024" 
d="M1036 592v-117h-1048v117h1048z" />
    <glyph glyph-name="emdash" unicode="&#x2014;" horiz-adv-x="2048" 
d="M2060 592v-117h-2072v117h2072z" />
    <glyph glyph-name="quotedblleft" unicode="&#x201c;" horiz-adv-x="819" 
d="M695 1467l54 -66q-205 -167 -205 -279q0 -13 2 -32q18 8 34 11.5t30 3.5q47 0 76 -31t29 -79q0 -47 -35 -82t-84 -35q-67 0 -116 54.5t-49 140.5q0 56 23 117.5t67 114t174 162.5zM338 1467l54 -66q-205 -167 -205 -279q0 -13 2 -32q18 8 34 11.5t30 3.5q47 0 76.5 -31
t29.5 -79q0 -47 -35.5 -82t-84.5 -35q-67 0 -116 54.5t-49 140.5q0 56 23 117.5t67 114t174 162.5z" />
    <glyph glyph-name="quotedblright" unicode="&#x201d;" horiz-adv-x="819" 
d="M124 878l-54 66q205 167 205 279q0 13 -2 32q-17 -7 -33 -11t-30 -4q-48 0 -77 31t-29 79q0 47 35 82t84 35q68 0 116.5 -54.5t48.5 -140.5q0 -56 -23 -117.5t-67 -114t-174 -162.5zM481 878l-54 66q205 167 205 279q0 13 -2 32q-17 -7 -33 -11t-31 -4q-47 0 -76 31
t-29 79q0 47 35 82t84 35q68 0 116.5 -54.5t48.5 -140.5q0 -56 -23 -117.5t-67 -114t-174 -162.5z" />
    <glyph glyph-name="quoteleft" unicode="&#x2018;" horiz-adv-x="451" 
d="M434 1467l54 -66q-205 -167 -205 -279q0 -13 2 -32q18 8 34 11.5t30 3.5q47 0 76.5 -31t29.5 -79q0 -47 -35.5 -82t-84.5 -35q-67 0 -116 54.5t-49 140.5q0 56 23 117.5t67 114t174 162.5z" />
    <glyph glyph-name="quoteright" unicode="&#x2019;" horiz-adv-x="451" 
d="M221 878l-54 66q205 167 205 279q0 13 -2 32q-17 -7 -33 -11t-30 -4q-48 0 -77 31t-29 79q0 47 35 82t84 35q68 0 116.5 -54.5t48.5 -140.5q0 -56 -23 -117.5t-67 -114t-174 -162.5z" />
    <glyph glyph-name="divide" unicode="&#xf7;" horiz-adv-x="1124" 
d="M564 1128q41 0 70 -28.5t29 -69.5q0 -42 -30 -72t-71 -30t-70.5 30t-29.5 72q0 41 29.5 69.5t72.5 28.5zM1050 759v-123h-975v123h975zM562 467q41 0 70 -28.5t29 -69.5q0 -43 -29.5 -73t-71.5 -30q-41 0 -70.5 30t-29.5 73q0 41 29.5 69.5t72.5 28.5z" />
    <glyph glyph-name="lozenge" unicode="&#x25ca;" horiz-adv-x="1012" 
d="M549 1422l418 -713l-418 -709h-111l-391 709l391 713h111zM495 1325l-340 -616l340 -615l359 615z" />
    <glyph glyph-name="ydieresis" unicode="&#xff;" horiz-adv-x="1106" 
d="M-11 965h486v-84h-40q-57 0 -68 -3q-13 -4 -22 -16.5t-9 -31.5q0 -27 27 -91l232 -545l215 521q38 92 38 122q0 23 -17 33.5t-77 10.5h-47v84h409v-84h-24q-60 0 -78 -8t-35 -32.5t-54 -111.5l-367 -855q-40 -92 -89 -170.5t-123 -121.5t-163 -43q-103 0 -165 47
q-53 40 -53 100q0 37 23 61.5t54 24.5q24 0 45 -10q13 -5 54 -42q50 -44 70.5 -54t40.5 -10q41 0 81 28t68 79q40 73 66 137l41 100l-330 739q-35 78 -59 105t-48 33q-13 4 -82 4v84zM386 1378q50 0 86 -36t36 -87q0 -50 -36 -86t-86 -36t-86 36t-36 86q0 51 35.5 87
t86.5 36zM720 1378q50 0 86 -36t36 -87q0 -50 -36 -86t-86 -36q-51 0 -86.5 36t-35.5 86q0 51 35.5 87t86.5 36z" />
    <glyph glyph-name="Ydieresis" unicode="&#x178;" horiz-adv-x="1311" 
d="M5 1395h522v-85h-59q-54 0 -69.5 -10t-15.5 -33q0 -20 19 -54q5 -8 13 -23l272 -504l301 523q18 32 21.5 41.5t3.5 19.5q0 14 -7.5 23.5t-23.5 14.5q-10 2 -56 2h-52v85h431v-85q-57 1 -84.5 -7t-45 -24.5t-49.5 -69.5l-378 -630v-351q0 -77 12.5 -100t39.5 -33.5
t126 -10.5v-84h-545v84h42q67 0 89.5 12t35.5 39q9 19 9 93v314l-369 656q-44 79 -73.5 94.5t-109.5 17.5v85zM488 1709q50 0 86 -36t36 -87q0 -50 -36 -86t-86 -36t-86 36t-36 86q0 51 35.5 87t86.5 36zM822 1709q50 0 86 -36t36 -87q0 -50 -36 -86t-86 -36q-51 0 -86.5 36
t-35.5 86q0 51 35.5 87t86.5 36z" />
    <glyph glyph-name="fraction" unicode="&#x2044;" horiz-adv-x="287" 
d="M668 1419l-930 -1443h-119l928 1443h121z" />
    <glyph glyph-name="fraction" unicode="&#x2215;" horiz-adv-x="287" 
d="M668 1419l-930 -1443h-119l928 1443h121z" />
    <glyph glyph-name="Euro" unicode="&#x20ac;" horiz-adv-x="1270" 
d="M355 840h565l-14 -95h-557v-36q0 -45 2 -60h542l-14 -94h-518q38 -217 141.5 -337t241.5 -120q190 0 356 258l80 -53q-104 -168 -220 -248t-267 -80q-203 0 -356 155.5t-195 424.5h-137l14 94h115q-2 18 -2 45q0 33 2 51h-129l14 95h123q42 253 197.5 416t359.5 163
q142 0 252 -96l18 72h72l110 -424l-94 -25q-73 217 -157 292t-181 75q-134 0 -232.5 -124t-131.5 -349z" />
    <glyph glyph-name="guilsinglleft" unicode="&#x2039;" horiz-adv-x="491" 
d="M275 851l76 -36l-107 -319l107 -311l-76 -38l-185 349z" />
    <glyph glyph-name="guilsinglright" unicode="&#x203a;" horiz-adv-x="491" 
d="M217 147l-76 36l107 319l-107 311l76 38l185 -349z" />
    <glyph glyph-name="fi" unicode="&#xf001;" horiz-adv-x="1270" 
d="M74 965h174v110q0 84 11 129q16 70 69.5 131t137.5 96.5t196 35.5q141 0 228.5 -60t87.5 -123q0 -40 -23 -63.5t-61 -23.5q-21 0 -40 7.5t-39 24.5q-12 10 -37 45q-24 35 -34 44q-28 27 -61 41t-70 14q-48 0 -92 -24t-68 -62t-31.5 -91t-7.5 -91v-140h477q43 0 60 6
q12 4 22 18h74v-755q0 -77 9 -97q12 -27 36 -40t89 -13h39v-84h-513v84h40q63 0 85 11t35 38t13 83v641h-466v-641q0 -58 11.5 -83t35 -37t79.5 -12h48v-84h-514v84h32q68 0 84 8q33 16 47 47q11 23 11 87v631h-174v108z" />
    <glyph glyph-name="fi" unicode="&#xfb01;" horiz-adv-x="1270" 
d="M74 965h174v110q0 84 11 129q16 70 69.5 131t137.5 96.5t196 35.5q141 0 228.5 -60t87.5 -123q0 -40 -23 -63.5t-61 -23.5q-21 0 -40 7.5t-39 24.5q-12 10 -37 45q-24 35 -34 44q-28 27 -61 41t-70 14q-48 0 -92 -24t-68 -62t-31.5 -91t-7.5 -91v-140h477q43 0 60 6
q12 4 22 18h74v-755q0 -77 9 -97q12 -27 36 -40t89 -13h39v-84h-513v84h40q63 0 85 11t35 38t13 83v641h-466v-641q0 -58 11.5 -83t35 -37t79.5 -12h48v-84h-514v84h32q68 0 84 8q33 16 47 47q11 23 11 87v631h-174v108z" />
    <glyph glyph-name="fl" unicode="&#xf002;" horiz-adv-x="1270" 
d="M1049 1467v-1246q0 -62 7 -81.5t22.5 -33.5t34 -18t106.5 -4v-84h-512v84h36q65 0 89 13t36.5 41t12.5 103v624h-466v-644q0 -67 11.5 -90t36 -35t89.5 -12h37v-84h-514v84h39q62 0 86.5 13t36.5 41.5t12 102.5v624h-174v100h174v125q0 120 46 199.5t139 128.5t214 49
q38 0 111 -9q65 -8 91 -8q49 0 125 17h74zM881 965v320q-29 -10 -48 -10q-16 0 -32 7.5t-61 41.5q-66 50 -133 50q-81 0 -136.5 -63t-55.5 -187v-159h466z" />
    <glyph glyph-name="fl" unicode="&#xfb02;" horiz-adv-x="1270" 
d="M1049 1467v-1246q0 -62 7 -81.5t22.5 -33.5t34 -18t106.5 -4v-84h-512v84h36q65 0 89 13t36.5 41t12.5 103v624h-466v-644q0 -67 11.5 -90t36 -35t89.5 -12h37v-84h-514v84h39q62 0 86.5 13t36.5 41.5t12 102.5v624h-174v100h174v125q0 120 46 199.5t139 128.5t214 49
q38 0 111 -9q65 -8 91 -8q49 0 125 17h74zM881 965v320q-29 -10 -48 -10q-16 0 -32 7.5t-61 41.5q-66 50 -133 50q-81 0 -136.5 -63t-55.5 -187v-159h466z" />
    <glyph glyph-name="daggerdbl" unicode="&#x2021;" horiz-adv-x="1106" 
d="M435 543q40 61 57.5 114.5t31.5 167.5l-183 -51q-44 -12 -80 -12q-51 0 -75 23.5t-24 69.5q0 37 11 58t30 29q32 15 65 15q27 0 60 -9l196 -53q-20 135 -54 260q-31 112 -31 151q0 55 29 84t85 29t85.5 -28.5t29.5 -83.5q0 -23 -5 -51.5t-34 -140.5q-40 -175 -46 -220
l196 53q33 9 65 9q48 0 74 -24.5t26 -69.5q0 -52 -23 -76.5t-68 -24.5q-43 0 -87 12l-183 51q12 -104 28 -158.5t53 -123.5q-37 -70 -53 -125t-28 -158l183 51q41 11 78 11q53 0 76.5 -23t23.5 -69q0 -37 -11 -58t-29 -29q-32 -15 -66 -15q-26 0 -59 9l-196 53
q11 -88 56 -260q29 -112 29 -151q0 -54 -29.5 -83t-83.5 -29q-58 0 -87 28t-29 82q0 42 31 153q14 51 27 116q21 99 27 144l-196 -53q-33 -9 -65 -9q-48 0 -74.5 25t-26.5 69q0 53 23.5 77.5t69.5 24.5q37 0 86 -13l183 -51q-18 123 -34.5 173.5t-54.5 109.5z" />
    <glyph glyph-name="periodcentered" unicode="&#x2219;" horiz-adv-x="655" 
d="M327 824q52 0 89 -37t37 -90q0 -52 -37 -89t-89 -37q-51 0 -88 36.5t-37 88.5t38 90t87 38z" />
    <glyph glyph-name="quotesinglbase" unicode="&#x201a;" horiz-adv-x="451" 
d="M221 -362l-54 66q205 167 205 279q0 13 -2 32q-17 -7 -33 -11t-30 -4q-48 0 -77 31t-29 79q0 47 35 82t84 35q68 0 116.5 -54.5t48.5 -140.5q0 -56 -23 -117.5t-67 -114t-174 -162.5z" />
    <glyph glyph-name="quotedblbase" unicode="&#x201e;" horiz-adv-x="819" 
d="M124 -362l-54 66q205 167 205 279q0 13 -2 32q-17 -7 -33 -11t-30 -4q-48 0 -77 31t-29 79q0 47 35 82t84 35q68 0 116.5 -54.5t48.5 -140.5q0 -56 -23 -117.5t-67 -114t-174 -162.5zM481 -362l-54 66q205 167 205 279q0 13 -2 32q-17 -7 -33 -11t-31 -4q-47 0 -76 31
t-29 79q0 47 35 82t84 35q68 0 116.5 -54.5t48.5 -140.5q0 -56 -23 -117.5t-67 -114t-174 -162.5z" />
    <glyph glyph-name="perthousand" unicode="&#x2030;" horiz-adv-x="2621" 
d="M399 1419q147 0 231 -95q93 -105 93 -286q0 -171 -92.5 -270.5t-239.5 -99.5q-153 0 -244 117q-75 97 -75 259q0 179 90 277t237 98zM397 1355q-53 0 -93 -30.5t-67.5 -108t-27.5 -181.5q0 -102 25 -170t67.5 -100.5t92.5 -32.5q51 0 95 32.5t70 103.5t26 176
q0 140 -47.5 225.5t-140.5 85.5zM1416 1419l-929 -1443h-120l928 1443h121zM1387 726q148 0 231 -95q93 -104 93 -286q0 -170 -92.5 -269.5t-239.5 -99.5q-153 0 -243 116q-76 97 -76 260q0 179 90 276.5t237 97.5zM1385 663q-53 0 -93 -30.5t-67.5 -108t-27.5 -181.5
q0 -102 25.5 -170.5t67.5 -100.5t92 -32q51 0 95 32.5t70 103t26 175.5q0 141 -47.5 226.5t-140.5 85.5zM2226 726q147 0 231 -95q92 -104 92 -286q0 -170 -92.5 -269.5t-238.5 -99.5q-154 0 -244 116q-75 97 -75 260q0 179 89.5 276.5t237.5 97.5zM2223 663
q-52 0 -92.5 -30.5t-68 -108t-27.5 -181.5q0 -102 25.5 -170.5t68 -100.5t92.5 -32q51 0 94.5 32.5t69.5 103t26 175.5q0 141 -47 226.5t-141 85.5z" />
    <glyph glyph-name="Acircumflex" unicode="&#xc2;" horiz-adv-x="1393" 
d="M616 1395h165l433 -1166q32 -88 64.5 -116.5t87.5 -28.5h22v-84h-497v84q24 2 47 2q48 0 63 10q29 19 29 48q0 21 -28 103l-92 270h-506l-108 -302q-17 -47 -17 -65q0 -20 10.5 -35t28.5 -22.5t58 -7.5q27 0 44 -1v-84h-417v84q58 0 83.5 11.5t44.5 37t50 107.5zM441 615
h431l-216 600zM695 1736l291 -191l-27 -51l-264 93l-263 -93l-27 51z" />
    <glyph glyph-name="Ecircumflex" unicode="&#xca;" horiz-adv-x="1475" 
d="M98 1395h1134l131 -367l-88 -33q-33 90 -72 141.5t-93.5 87.5t-110 48t-200.5 12h-338v-511h168q93 0 140.5 31.5t65.5 78.5q14 35 14 122v23h98v-612h-98v53q0 70 -10.5 101t-38.5 58.5t-60.5 37.5t-110.5 10h-168v-454q0 -71 6.5 -86.5t21.5 -22.5t82 -7h209
q175 0 273.5 42t173.5 129q59 68 113 192l91 -32l-156 -437h-1177v84h40q70 0 87 9q26 13 40 42q10 20 10 87v960q0 65 -13 87t-45 34q-17 7 -119 7v85zM736 1736l291 -191l-27 -51l-264 93l-263 -93l-27 51z" />
    <glyph glyph-name="Aacute" unicode="&#xc1;" horiz-adv-x="1393" 
d="M616 1395h165l433 -1166q32 -88 64.5 -116.5t87.5 -28.5h22v-84h-497v84q24 2 47 2q48 0 63 10q29 19 29 48q0 21 -28 103l-92 270h-506l-108 -302q-17 -47 -17 -65q0 -20 10.5 -35t28.5 -22.5t58 -7.5q27 0 44 -1v-84h-417v84q58 0 83.5 11.5t44.5 37t50 107.5zM441 615
h431l-216 600zM549 1501v35l185 136q95 70 159 70q30 0 50.5 -21.5t20.5 -53.5q0 -39 -28 -64.5t-101 -41.5z" />
    <glyph glyph-name="Edieresis" unicode="&#xcb;" horiz-adv-x="1475" 
d="M98 1395h1134l131 -367l-88 -33q-33 90 -72 141.5t-93.5 87.5t-110 48t-200.5 12h-338v-511h168q93 0 140.5 31.5t65.5 78.5q14 35 14 122v23h98v-612h-98v53q0 70 -10.5 101t-38.5 58.5t-60.5 37.5t-110.5 10h-168v-454q0 -71 6.5 -86.5t21.5 -22.5t82 -7h209
q175 0 273.5 42t173.5 129q59 68 113 192l91 -32l-156 -437h-1177v84h40q70 0 87 9q26 13 40 42q10 20 10 87v960q0 65 -13 87t-45 34q-17 7 -119 7v85zM570 1709q50 0 86 -36t36 -87q0 -50 -36 -86t-86 -36t-86 36t-36 86q0 51 35.5 87t86.5 36zM904 1709q50 0 86 -36
t36 -87q0 -50 -36 -86t-86 -36q-51 0 -86.5 36t-35.5 86q0 51 35.5 87t86.5 36z" />
    <glyph glyph-name="Egrave" unicode="&#xc8;" horiz-adv-x="1475" 
d="M98 1395h1134l131 -367l-88 -33q-33 90 -72 141.5t-93.5 87.5t-110 48t-200.5 12h-338v-511h168q93 0 140.5 31.5t65.5 78.5q14 35 14 122v23h98v-612h-98v53q0 70 -10.5 101t-38.5 58.5t-60.5 37.5t-110.5 10h-168v-454q0 -71 6.5 -86.5t21.5 -22.5t82 -7h209
q175 0 273.5 42t173.5 129q59 68 113 192l91 -32l-156 -437h-1177v84h40q70 0 87 9q26 13 40 42q10 20 10 87v960q0 65 -13 87t-45 34q-17 7 -119 7v85zM945 1501l-286 60q-75 16 -103 41.5t-28 62.5q0 34 20.5 55.5t52.5 21.5q64 0 159 -70l185 -136v-35z" />
    <glyph glyph-name="Iacute" unicode="&#xcd;" horiz-adv-x="696" 
d="M81 1395h534v-85h-41q-58 0 -84 -16t-38 -45.5t-12 -114.5v-899q0 -68 13 -96.5t36.5 -41.5t84.5 -13h41v-84h-534v84h44q59 0 83.5 13.5t35.5 39t11 98.5v920q0 77 -11 103.5t-35.5 39t-83.5 12.5h-44v85zM201 1501v35l185 136q95 70 159 70q30 0 50.5 -21.5t20.5 -53.5
q0 -39 -28 -64.5t-101 -41.5z" />
    <glyph glyph-name="Icircumflex" unicode="&#xce;" horiz-adv-x="696" 
d="M81 1395h534v-85h-41q-58 0 -84 -16t-38 -45.5t-12 -114.5v-899q0 -68 13 -96.5t36.5 -41.5t84.5 -13h41v-84h-534v84h44q59 0 83.5 13.5t35.5 39t11 98.5v920q0 77 -11 103.5t-35.5 39t-83.5 12.5h-44v85zM347 1736l291 -191l-27 -51l-264 93l-263 -93l-27 51z" />
    <glyph glyph-name="Idieresis" unicode="&#xcf;" horiz-adv-x="696" 
d="M81 1395h534v-85h-41q-58 0 -84 -16t-38 -45.5t-12 -114.5v-899q0 -68 13 -96.5t36.5 -41.5t84.5 -13h41v-84h-534v84h44q59 0 83.5 13.5t35.5 39t11 98.5v920q0 77 -11 103.5t-35.5 39t-83.5 12.5h-44v85zM181 1709q50 0 86 -36t36 -87q0 -50 -36 -86t-86 -36t-86 36
t-36 86q0 51 35.5 87t86.5 36zM515 1709q50 0 86 -36t36 -87q0 -50 -36 -86t-86 -36q-51 0 -86.5 36t-35.5 86q0 51 35.5 87t86.5 36z" />
    <glyph glyph-name="Igrave" unicode="&#xcc;" horiz-adv-x="696" 
d="M81 1395h534v-85h-41q-58 0 -84 -16t-38 -45.5t-12 -114.5v-899q0 -68 13 -96.5t36.5 -41.5t84.5 -13h41v-84h-534v84h44q59 0 83.5 13.5t35.5 39t11 98.5v920q0 77 -11 103.5t-35.5 39t-83.5 12.5h-44v85zM496 1501l-286 60q-75 16 -103 41.5t-28 62.5q0 34 20.5 55.5
t52.5 21.5q64 0 159 -70l185 -136v-35z" />
    <glyph glyph-name="Oacute" unicode="&#xd3;" horiz-adv-x="1638" 
d="M839 1419q191 0 345 -92q167 -99 256.5 -257t89.5 -366q0 -322 -200 -525t-510 -203q-346 0 -548 244q-165 199 -165 476q0 206 93 369.5t264 258.5t375 95zM839 1311q-156 0 -268 -71.5t-179.5 -210.5t-67.5 -343q0 -195 66.5 -330.5t178.5 -207.5t252 -72
q139 0 246 70.5t177 222t70 336.5q0 188 -70 344q-60 134 -159 198t-246 64zM671 1501v35l185 136q95 70 159 70q30 0 50.5 -21.5t20.5 -53.5q0 -39 -28 -64.5t-101 -41.5z" />
    <glyph glyph-name="Ocircumflex" unicode="&#xd4;" horiz-adv-x="1638" 
d="M839 1419q191 0 345 -92q167 -99 256.5 -257t89.5 -366q0 -322 -200 -525t-510 -203q-346 0 -548 244q-165 199 -165 476q0 206 93 369.5t264 258.5t375 95zM839 1311q-156 0 -268 -71.5t-179.5 -210.5t-67.5 -343q0 -195 66.5 -330.5t178.5 -207.5t252 -72
q139 0 246 70.5t177 222t70 336.5q0 188 -70 344q-60 134 -159 198t-246 64zM818 1736l291 -191l-27 -51l-264 93l-263 -93l-27 51z" />
    <glyph glyph-name="apple" unicode="&#xf000;" horiz-adv-x="1617" 
 />
    <glyph glyph-name="Ograve" unicode="&#xd2;" horiz-adv-x="1638" 
d="M839 1419q191 0 345 -92q167 -99 256.5 -257t89.5 -366q0 -322 -200 -525t-510 -203q-346 0 -548 244q-165 199 -165 476q0 206 93 369.5t264 258.5t375 95zM839 1311q-156 0 -268 -71.5t-179.5 -210.5t-67.5 -343q0 -195 66.5 -330.5t178.5 -207.5t252 -72
q139 0 246 70.5t177 222t70 336.5q0 188 -70 344q-60 134 -159 198t-246 64zM967 1501l-286 60q-75 16 -103 41.5t-28 62.5q0 34 20.5 55.5t52.5 21.5q64 0 159 -70l185 -136v-35z" />
    <glyph glyph-name="Uacute" unicode="&#xda;" horiz-adv-x="1597" 
d="M78 1395h539v-85h-36q-66 0 -94 -13q-22 -10 -33 -34t-11 -96v-628q0 -168 40.5 -249t135 -136t207.5 -55q114 0 216 59t143 140t41 256v604q0 66 -13 95t-39.5 43t-82.5 14h-39v85h467v-85h-32q-79 0 -108.5 -30t-29.5 -113v-643q0 -176 -66 -293.5t-192 -186
t-293 -68.5q-158 0 -289 70t-192.5 174.5t-61.5 262.5v684q0 66 -12 92.5t-35 38.5t-80 12h-50v85zM651 1501v35l185 136q95 70 159 70q30 0 50.5 -21.5t20.5 -53.5q0 -39 -28 -64.5t-101 -41.5z" />
    <glyph glyph-name="Ucircumflex" unicode="&#xdb;" horiz-adv-x="1597" 
d="M78 1395h539v-85h-36q-66 0 -94 -13q-22 -10 -33 -34t-11 -96v-628q0 -168 40.5 -249t135 -136t207.5 -55q114 0 216 59t143 140t41 256v604q0 66 -13 95t-39.5 43t-82.5 14h-39v85h467v-85h-32q-79 0 -108.5 -30t-29.5 -113v-643q0 -176 -66 -293.5t-192 -186
t-293 -68.5q-158 0 -289 70t-192.5 174.5t-61.5 262.5v684q0 66 -12 92.5t-35 38.5t-80 12h-50v85zM798 1736l291 -191l-27 -51l-264 93l-263 -93l-27 51z" />
    <glyph glyph-name="Ugrave" unicode="&#xd9;" horiz-adv-x="1597" 
d="M78 1395h539v-85h-36q-66 0 -94 -13q-22 -10 -33 -34t-11 -96v-628q0 -168 40.5 -249t135 -136t207.5 -55q114 0 216 59t143 140t41 256v604q0 66 -13 95t-39.5 43t-82.5 14h-39v85h467v-85h-32q-79 0 -108.5 -30t-29.5 -113v-643q0 -176 -66 -293.5t-192 -186
t-293 -68.5q-158 0 -289 70t-192.5 174.5t-61.5 262.5v684q0 66 -12 92.5t-35 38.5t-80 12h-50v85zM947 1501l-286 60q-75 16 -103 41.5t-28 62.5q0 34 20.5 55.5t52.5 21.5q64 0 159 -70l185 -136v-35z" />
    <glyph glyph-name="dotlessi" unicode="&#x131;" horiz-adv-x="614" 
d="M61 821v83q83 10 139.5 28t128.5 57h73v-756q0 -77 5 -93q9 -30 36 -44q21 -12 83 -12h47v-84h-512v84h41q67 0 90 12t32.5 34t9.5 103v588h-173z" />
    <glyph glyph-name="circumflex" unicode="&#x2c6;" horiz-adv-x="860" 
d="M429 1404l291 -191l-27 -51l-264 93l-263 -93l-27 51z" />
    <glyph glyph-name="tilde" unicode="&#x2dc;" horiz-adv-x="901" 
d="M766 1325q-17 -66 -74.5 -110t-128.5 -44q-23 0 -42 4t-90 26q-109 34 -155 34q-44 0 -81 -41l-59 20q19 63 68.5 101.5t108.5 38.5q60 0 194 -38q66 -18 101 -18q64 0 98 45z" />
    <glyph glyph-name="macron" unicode="&#x2c9;" horiz-adv-x="901" 
d="M754 1305v-103h-606v103h606z" />
    <glyph glyph-name="breve" unicode="&#x2d8;" horiz-adv-x="942" 
d="M135 1370l48 38q128 -107 291 -107q80 0 160 31t128 76l46 -38q-46 -91 -139.5 -149t-200.5 -58q-73 0 -139 25.5t-114.5 70.5t-79.5 111z" />
    <glyph glyph-name="dotaccent" unicode="&#x2d9;" horiz-adv-x="532" 
d="M266 1376q51 0 87 -35.5t36 -85.5q0 -51 -36 -86.5t-87 -35.5t-87 35.5t-36 86.5q0 50 36 85.5t87 35.5z" />
    <glyph glyph-name="ring" unicode="&#x2da;" horiz-adv-x="655" 
d="M327 1499q79 0 134 -55.5t55 -133.5q0 -79 -55.5 -134.5t-133.5 -55.5t-133 55.5t-55 134.5q0 78 55 133.5t133 55.5zM327 1429q-49 0 -83.5 -35t-34.5 -84q0 -50 34.5 -85t83.5 -35t84 35t35 85q0 49 -35 84t-84 35z" />
    <glyph glyph-name="cedilla" unicode="&#xb8;" horiz-adv-x="655" 
d="M317 0l-26 -87q41 3 49 3q56 0 104 -22q36 -16 56.5 -49.5t20.5 -79.5q0 -78 -51.5 -126.5t-138.5 -48.5t-150 43q-47 31 -47 72q0 22 14.5 37t37.5 15t38 -10.5t26 -39.5q15 -34 25 -43q23 -18 54 -18q40 0 68 30.5t28 79.5q0 51 -30 78t-93 27q-41 0 -98 -20l51 159h62
z" />
    <glyph glyph-name="hungarumlaut" unicode="&#x2dd;" horiz-adv-x="778" 
d="M235 1105l-33 22l72 185q29 73 53.5 97.5t53.5 24.5q23 0 38 -14.5t15 -34.5q0 -48 -42 -98zM500 1105l-33 22l72 185q28 72 53 96.5t54 24.5q23 0 38 -14.5t15 -33.5q0 -48 -42 -98z" />
    <glyph glyph-name="ogonek" unicode="&#x2db;" horiz-adv-x="655" 
d="M324 0q-38 -28 -65 -71q-18 -29 -18 -59q0 -36 25 -60.5t59 -24.5q31 0 72 19t79 56l33 -43q-70 -61 -113 -82q-65 -32 -120 -32q-56 0 -93.5 39t-37.5 95q0 45 33 96q23 35 70 67h76z" />
    <glyph glyph-name="caron" unicode="&#x2c7;" horiz-adv-x="860" 
d="M429 1134l-290 191l27 51l263 -93l264 93l27 -51z" />
    <glyph glyph-name="Lslash" unicode="&#x141;" horiz-adv-x="1229" 
d="M457 823l372 312v-126l-372 -312v-478q0 -67 5 -80q6 -18 26 -26q14 -6 81 -6h75q129 0 224 37.5t164 109t133 213.5l89 -30l-156 -437h-1004v84h44q64 0 86 11t34 36.5t12 87.5v320l-176 -147v126l176 148v502q0 72 -11 96.5t-32 35t-89 10.5h-44v85h541v-85h-50
q-58 0 -82 -11t-35 -32t-11 -75v-369z" />
    <glyph glyph-name="lslash" unicode="&#x142;" horiz-adv-x="655" 
d="M423 858l176 149v-113l-176 -148v-510q0 -78 10 -98q13 -28 38 -41t96 -13h32v-84h-515v84h52q49 0 74 15t35 41t10 104v361l-171 -144v113l171 143v584h-171v82q136 10 265 84h74v-609z" />
    <glyph glyph-name="Scaron" unicode="&#x160;" horiz-adv-x="1352" 
d="M1036 1395h72l107 -430l-92 -28q-88 181 -234 285q-120 87 -266 87q-88 0 -158 -31.5t-105 -81.5t-35 -102q0 -47 27 -91t82 -77.5t180 -70.5l261 -77q48 -14 139.5 -54t142.5 -84.5t80 -109t29 -139.5q0 -166 -145.5 -290.5t-376.5 -124.5q-119 0 -213 34.5t-203 122.5
l-46 -133h-70l-93 501l93 19q51 -139 135.5 -236t187 -146.5t208.5 -49.5q144 0 252 87q90 73 90 172q0 91 -65 149q-66 58 -236 108l-250 72q-210 61 -296 156t-86 218q0 96 56 177.5t172 136.5t254 55q116 0 222 -40q75 -28 138 -80zM675 1466l-290 191l27 51l263 -93
l264 93l27 -51z" />
    <glyph glyph-name="scaron" unicode="&#x161;" horiz-adv-x="1065" 
d="M751 965h70l90 -306l-90 -30q-54 123 -151.5 193.5t-197.5 70.5q-77 0 -125 -37.5t-48 -86.5q0 -46 35 -79q34 -34 153 -77l195 -69q165 -59 225 -126q59 -68 59 -154q0 -73 -44 -140.5t-127.5 -107.5t-191.5 -40q-168 0 -288 96l-21 -72h-71l-125 327l91 36
q91 -144 172 -204q113 -85 244 -85q87 0 143 46.5t56 103.5q0 47 -35 86q-36 38 -138 74l-231 84q-149 54 -207 118t-58 147q0 101 94.5 178.5t240.5 77.5q76 0 136 -19.5t118 -64.5zM532 1134l-290 191l27 51l263 -93l264 93l27 -51z" />
    <glyph glyph-name="Zcaron" unicode="&#x17d;" horiz-adv-x="1311" 
d="M245 1395h971v-85l-911 -1202h335q228 0 347.5 76.5t213.5 279.5l92 -31l-161 -433h-1079v84l913 1203h-290q-146 0 -231 -28t-149 -87.5t-134 -186.5l-86 42zM654 1466l-290 191l27 51l263 -93l264 93l27 -51z" />
    <glyph glyph-name="zcaron" unicode="&#x17e;" horiz-adv-x="983" 
d="M205 965h729v-84l-674 -788h166q195 0 280 47q117 66 174 223l89 -32l-123 -331h-810v84l674 781h-197q-137 0 -213.5 -49t-141.5 -186l-86 41zM491 1134l-290 191l27 51l263 -93l264 93l27 -51z" />
    <glyph glyph-name="brokenbar" unicode="&#xa6;" horiz-adv-x="1229" 
d="M543 1467h146v-834l-146 -82v916zM543 387l146 82v-915h-146v833z" />
    <glyph glyph-name="Eth" unicode="&#xd0;" horiz-adv-x="1638" 
d="M275 649h-178v97h178v413q0 79 -10 102q-14 31 -45 43q-18 6 -123 6v85h498q342 0 477 -43q199 -63 323 -235q137 -190 137 -437q0 -168 -67.5 -312.5t-177.5 -232.5q-91 -74 -219 -104.5t-258 -30.5h-713v84h58l19 -1q37 0 60.5 15t33.5 40q7 19 7 88v423zM461 649v-541
h302q45 0 149.5 16t149.5 39q66 34 128 109.5t95.5 181t33.5 241.5q0 135 -33.5 234t-101 178t-150 120.5t-184.5 52.5q-55 5 -184 5h-205v-539h429v-97h-429z" />
    <glyph glyph-name="eth" unicode="&#xf0;" horiz-adv-x="1147" 
d="M995 1444l22 -80l-255 -70q91 -102 165 -235.5t105.5 -251.5t31.5 -243q0 -183 -67.5 -317t-177 -202.5t-262.5 -68.5q-228 0 -351.5 150t-123.5 357q0 148 61.5 264.5t168.5 179t242 62.5q66 0 125.5 -16.5t97 -43t73.5 -77.5q-40 197 -201 415l-296 -80l-23 80l260 70
q-24 31 -44 51l-81 79h133q52 -47 99 -103zM573 893q-78 0 -148 -48t-108.5 -140.5t-38.5 -231.5q0 -196 89 -310q74 -95 201 -95q87 0 153 44.5t107.5 140t41.5 228.5q0 132 -40 227.5t-106 140t-151 44.5z" />
    <glyph glyph-name="Yacute" unicode="&#xdd;" horiz-adv-x="1311" 
d="M5 1395h522v-85h-59q-54 0 -69.5 -10t-15.5 -33q0 -20 19 -54q5 -8 13 -23l272 -504l301 523q18 32 21.5 41.5t3.5 19.5q0 14 -7.5 23.5t-23.5 14.5q-10 2 -56 2h-52v85h431v-85q-57 1 -84.5 -7t-45 -24.5t-49.5 -69.5l-378 -630v-351q0 -77 12.5 -100t39.5 -33.5
t126 -10.5v-84h-545v84h42q67 0 89.5 12t35.5 39q9 19 9 93v314l-369 656q-44 79 -73.5 94.5t-109.5 17.5v85zM508 1501v35l185 136q95 70 159 70q30 0 50.5 -21.5t20.5 -53.5q0 -39 -28 -64.5t-101 -41.5z" />
    <glyph glyph-name="yacute" unicode="&#xfd;" horiz-adv-x="1106" 
d="M-11 965h486v-84h-40q-57 0 -68 -3q-13 -4 -22 -16.5t-9 -31.5q0 -27 27 -91l232 -545l215 521q38 92 38 122q0 23 -17 33.5t-77 10.5h-47v84h409v-84h-24q-60 0 -78 -8t-35 -32.5t-54 -111.5l-367 -855q-40 -92 -89 -170.5t-123 -121.5t-163 -43q-103 0 -165 47
q-53 40 -53 100q0 37 23 61.5t54 24.5q24 0 45 -10q13 -5 54 -42q50 -44 70.5 -54t40.5 -10q41 0 81 28t68 79q40 73 66 137l41 100l-330 739q-35 78 -59 105t-48 33q-13 4 -82 4v84zM385 1170v35l185 136q95 70 159 70q30 0 50.5 -21.5t20.5 -53.5q0 -39 -28 -64.5
t-101 -41.5z" />
    <glyph glyph-name="Thorn" unicode="&#xde;" horiz-adv-x="1270" 
d="M92 1395h540v-85h-29q-82 0 -111.5 -19.5t-29.5 -82.5l-1 -30l-4 -81h186q249 0 344 -30q120 -38 198 -131t78 -234q0 -122 -59 -209q-71 -106 -172.5 -150.5t-319.5 -44.5h-255v-61q0 -80 9 -101q12 -29 33 -40.5t85 -11.5h48v-84h-540v84h33q69 0 94 11.5t36.5 36
t11.5 92.5v954q0 66 -10.5 88.5t-35 33t-96.5 10.5h-33v85zM457 990v-585h215q163 0 228.5 29t108.5 100.5t43 167.5q0 105 -50 175.5t-136 94.5q-60 18 -234 18h-175z" />
    <glyph glyph-name="thorn" unicode="&#xfe;" horiz-adv-x="1270" 
d="M64 1299v83q75 0 133 18.5t127 66.5h79v-645q125 99 208 133t166 34q171 0 291.5 -134t120.5 -349q0 -238 -137 -390q-125 -140 -322 -140q-98 0 -184 37q-62 26 -143 93v-329q0 -74 4 -87q5 -19 20 -32t38 -17q17 -3 114 -3v-84h-515v84h45q69 0 89.5 10.5t30.5 32.5
q6 17 6 104v1514h-171zM403 719v-344q0 -68 8 -101q12 -51 46.5 -92t94 -70t124.5 -29q130 0 225.5 98t95.5 297q0 186 -79 287.5t-187 101.5q-70 0 -152 -37t-176 -111z" />
    <glyph glyph-name="minus" unicode="&#x2212;" horiz-adv-x="1229" 
d="M1102 759v-123h-975v123h975z" />
    <glyph glyph-name="multiply" unicode="&#xd7;" horiz-adv-x="1229" 
d="M1035 364l-87 -87l-334 333l-333 -333l-87 87l334 333l-334 334l87 87l333 -334l334 334l87 -87l-334 -334z" />
    <glyph glyph-name="onesuperior" unicode="&#xb9;" horiz-adv-x="762" 
d="M469 1406v-598q0 -50 10.5 -60.5t59.5 -10.5h70v-56h-413v56h76q40 0 50.5 5t16.5 18t6 48v480h-149v56q57 7 137 28q49 13 56 23.5t18 10.5h62z" />
    <glyph glyph-name="twosuperior" unicode="&#xb2;" horiz-adv-x="762" 
d="M155 1126l-80 -9q-6 43 -6 67q0 59 37 114t108.5 88t164.5 33q135 0 213 -64.5t78 -160.5q0 -58 -28.5 -113t-94.5 -106t-317 -204h278q48 0 60.5 5t19 17t17.5 67h75l-43 -205h-59l-7 26h-517v51l102 67q173 112 249.5 178t106.5 122q21 40 21 87q0 71 -48.5 115.5
t-131.5 44.5q-91 0 -146 -49.5t-55 -120.5q0 -15 3 -50z" />
    <glyph glyph-name="threesuperior" unicode="&#xb3;" horiz-adv-x="762" 
d="M176 1202l-80 10q8 54 26 86q31 52 97 86.5t159 34.5q127 0 198.5 -54.5t71.5 -130.5q0 -46 -34 -84q-47 -50 -118 -73q88 -17 138.5 -70.5t50.5 -119.5q0 -83 -87.5 -151t-231.5 -68q-139 0 -226.5 60t-87.5 115q0 23 18.5 39t48.5 16q28 0 46.5 -14t31.5 -52
q36 -103 159 -103q86 0 138.5 47.5t52.5 118.5q0 32 -12.5 57.5t-39 47.5t-55.5 29q-47 12 -100 12h-67v62h47q102 0 146.5 33t44.5 89q0 52 -40.5 85.5t-113.5 33.5q-49 0 -87.5 -17t-60.5 -45t-33 -80z" />
    <glyph glyph-name="onehalf" unicode="&#xbd;" horiz-adv-x="1905" 
d="M516 1406v-598q0 -50 10.5 -60.5t59.5 -10.5h70v-56h-413v56h76q40 0 50.5 5t16.5 18t6 48v480h-149v56q57 7 137 28q49 13 56 23.5t18 10.5h62zM1477 1419l-930 -1443h-119l928 1443h121zM1251 446l-80 -9q-6 43 -6 67q0 59 37 114t108.5 88t164.5 33q135 0 213 -64.5
t78 -160.5q0 -58 -28.5 -113t-94.5 -106t-317 -204h278q48 0 60.5 5t19 17t17.5 67h75l-43 -205h-59l-7 26h-517v51l102 67q173 112 249.5 178t106.5 122q21 40 21 87q0 71 -48.5 115.5t-131.5 44.5q-91 0 -146 -49.5t-55 -120.5q0 -15 3 -50z" />
    <glyph glyph-name="onequarter" unicode="&#xbc;" horiz-adv-x="1905" 
d="M516 1406v-598q0 -50 10.5 -60.5t59.5 -10.5h70v-56h-413v56h76q40 0 50.5 5t16.5 18t6 48v480h-149v56q57 7 137 28q49 13 56 23.5t18 10.5h62zM1501 1419l-930 -1443h-119l928 1443h121zM1533 725h118v-414h155v-77h-155v-234h-123v234h-388v98zM1528 311v304
l-303 -304h303z" />
    <glyph glyph-name="threequarters" unicode="&#xbe;" horiz-adv-x="1905" 
d="M224 1202l-80 10q8 54 26 86q31 52 97 86.5t159 34.5q127 0 198.5 -54.5t71.5 -130.5q0 -46 -34 -84q-47 -50 -118 -73q88 -17 138.5 -70.5t50.5 -119.5q0 -83 -87.5 -151t-231.5 -68q-139 0 -226.5 60t-87.5 115q0 23 18.5 39t48.5 16q28 0 46.5 -14t31.5 -52
q36 -103 159 -103q86 0 138.5 47.5t52.5 118.5q0 32 -12.5 57.5t-39 47.5t-55.5 29q-47 12 -100 12h-67v62h47q102 0 146.5 33t44.5 89q0 52 -40.5 85.5t-113.5 33.5q-49 0 -87.5 -17t-60.5 -45t-33 -80zM1526 1419l-930 -1443h-119l928 1443h121zM1534 725h118v-414h155
v-77h-155v-234h-123v234h-388v98zM1529 311v304l-303 -304h303z" />
    <glyph glyph-name="franc" unicode="&#x20a3;" horiz-adv-x="1311" 
d="M466 372h174v-97h-174v-59q0 -60 12.5 -83.5t37 -36t87.5 -12.5h37v-84h-531v84h34q64 0 88.5 12t36 37.5t11.5 92.5v49h-170v97h170v803q0 62 -11 87t-33.5 36.5t-78.5 11.5h-47v85h1067l129 -366l-87 -33q-55 128 -108 184t-123 80t-220 24h-301v-536h137q108 0 155 21
t72 66.5t25 129.5v37h98v-612h-98v54q0 79 -24 123t-65.5 63.5t-147.5 19.5h-152v-278z" />
    <glyph glyph-name="Gbreve" unicode="&#x11e;" horiz-adv-x="1638" 
d="M1197 1395h73l114 -430l-90 -31q-90 204 -207 291t-265 87q-213 0 -357 -177t-144 -422q0 -176 73.5 -323t196.5 -224t261 -77q89 0 169.5 32.5t130.5 77.5q37 34 50 75t12 114v66q0 79 -18.5 112t-52.5 47q-26 11 -140 11v84h566v-84h-46q-59 0 -80.5 -11.5t-31.5 -35.5
t-10 -94v-483h-99l-53 122q-84 -61 -179 -95q-142 -51 -281 -51q-281 0 -481.5 206.5t-200.5 514.5q0 306 203 514t486 208q71 0 140 -14t126 -40q43 -19 100 -62zM483 1701l48 38q128 -107 291 -107q80 0 160 31t128 76l46 -38q-46 -91 -139.5 -149t-200.5 -58
q-73 0 -139 25.5t-114.5 70.5t-79.5 111z" />
    <glyph glyph-name="gbreve" unicode="&#x11f;" horiz-adv-x="1106" 
d="M847 886q45 53 91.5 78t85.5 25q36 0 60.5 -21.5t24.5 -52.5q0 -32 -22 -54t-56 -22q-14 0 -38 5q-28 7 -47 7q-25 0 -52 -23q62 -75 62 -176q0 -138 -116 -239t-293 -101q-98 0 -197 41q-66 -47 -75 -58q-14 -17 -14 -36q0 -29 30 -48q38 -25 150 -42l289 -43
q96 -15 193 -50t140.5 -91t43.5 -134q0 -132 -122 -211q-155 -101 -460 -101q-160 0 -260 34t-155 96q-40 45 -40 93q0 62 40.5 121t187.5 168q-95 24 -136 56q-52 41 -52 93q0 26 9.5 48.5t31 45t78.5 62.5q36 25 51 37q-73 52 -110 116.5t-37 141.5q0 127 98 222
q119 116 321 116q90 0 157 -22.5t138 -80.5zM543 896q-98 0 -166 -71t-68 -176q0 -70 31 -126.5t87 -89t118 -32.5t118.5 33t87 89t30.5 126q0 110 -66.5 178.5t-171.5 68.5zM384 28q-96 -82 -127.5 -133t-31.5 -98q0 -40 31.5 -77.5t107.5 -61.5t191 -24q136 0 233.5 29.5
t139.5 75.5q31 36 31 85q0 42 -25.5 71t-96 50.5t-131.5 31.5zM252 1370l48 38q128 -107 291 -107q80 0 160 31t128 76l46 -38q-46 -91 -139.5 -149t-200.5 -58q-73 0 -139 25.5t-114.5 70.5t-79.5 111z" />
    <glyph glyph-name="Idot" unicode="&#x130;" horiz-adv-x="696" 
d="M81 1395h534v-85h-41q-58 0 -84 -16t-38 -45.5t-12 -114.5v-899q0 -68 13 -96.5t36.5 -41.5t84.5 -13h41v-84h-534v84h44q59 0 83.5 13.5t35.5 39t11 98.5v920q0 77 -11 103.5t-35.5 39t-83.5 12.5h-44v85zM348 1721q51 0 87 -35.5t36 -85.5q0 -51 -36 -86.5t-87 -35.5
t-87 35.5t-36 86.5q0 50 36 85.5t87 35.5z" />
    <glyph glyph-name="Scedilla" unicode="&#x15e;" horiz-adv-x="1352" 
d="M1036 1395h72l107 -430l-92 -28q-88 181 -234 285q-120 87 -266 87q-88 0 -158 -31.5t-105 -81.5t-35 -102q0 -47 27 -91t82 -77.5t180 -70.5l261 -77q48 -14 139.5 -54t142.5 -84.5t80 -109t29 -139.5q0 -166 -145.5 -290.5t-376.5 -124.5q-119 0 -213 34.5t-203 122.5
l-46 -133h-70l-93 501l93 19q51 -139 135.5 -236t187 -146.5t208.5 -49.5q144 0 252 87q90 73 90 172q0 91 -65 149q-66 58 -236 108l-250 72q-210 61 -296 156t-86 218q0 96 56 177.5t172 136.5t254 55q116 0 222 -40q75 -28 138 -80zM762 0l-26 -87q41 3 49 3
q56 0 104 -22q36 -16 56.5 -49.5t20.5 -79.5q0 -78 -51.5 -126.5t-138.5 -48.5t-150 43q-47 31 -47 72q0 22 14.5 37t37.5 15t38 -10.5t26 -39.5q15 -34 25 -43q23 -18 54 -18q40 0 68 30.5t28 79.5q0 51 -30 78t-93 27q-41 0 -98 -20l51 159h62z" />
    <glyph glyph-name="scedilla" unicode="&#x15f;" horiz-adv-x="1065" 
d="M751 965h70l90 -306l-90 -30q-54 123 -151.5 193.5t-197.5 70.5q-77 0 -125 -37.5t-48 -86.5q0 -46 35 -79q34 -34 153 -77l195 -69q165 -59 225 -126q59 -68 59 -154q0 -73 -44 -140.5t-127.5 -107.5t-191.5 -40q-168 0 -288 96l-21 -72h-71l-125 327l91 36
q91 -144 172 -204q113 -85 244 -85q87 0 143 46.5t56 103.5q0 47 -35 86q-36 38 -138 74l-231 84q-149 54 -207 118t-58 147q0 101 94.5 178.5t240.5 77.5q76 0 136 -19.5t118 -64.5zM582 0l-26 -87q41 3 49 3q56 0 104 -22q36 -16 56.5 -49.5t20.5 -79.5
q0 -78 -51.5 -126.5t-138.5 -48.5t-150 43q-47 31 -47 72q0 22 14.5 37t37.5 15t38 -10.5t26 -39.5q15 -34 25 -43q23 -18 54 -18q40 0 68 30.5t28 79.5q0 51 -30 78t-93 27q-41 0 -98 -20l51 159h62z" />
    <glyph glyph-name="Cacute" unicode="&#x106;" horiz-adv-x="1515" 
d="M1208 1395h72l127 -465l-93 -26q-75 161 -114 216q-64 89 -159.5 141t-210.5 52q-135 0 -248.5 -72.5t-184 -212.5t-70.5 -315q0 -180 71.5 -321t193.5 -217t263 -76q133 0 272 76t241 213l80 -55q-62 -92 -134 -156q-114 -103 -237 -152t-270 -49q-325 0 -528 241
q-168 200 -168 476q0 203 93 367.5t256.5 261.5t352.5 97q101 0 187.5 -27.5t175.5 -88.5zM671 1494v35l185 136q95 70 159 70q30 0 50.5 -21.5t20.5 -53.5q0 -39 -28 -64.5t-101 -41.5z" />
    <glyph glyph-name="cacute" unicode="&#x107;" horiz-adv-x="1065" 
d="M958 279l64 -52q-188 -251 -451 -251q-205 0 -346 146t-141 363q0 145 65.5 260.5t182 179.5t267.5 64q172 0 287 -84.5t115 -170.5q0 -46 -27 -71t-61 -25q-18 0 -35 9t-35 29q-8 9 -29 56q-27 58 -42 78q-31 40 -76.5 63t-101.5 23q-85 0 -157.5 -47t-115 -138.5
t-42.5 -218.5q0 -197 105 -313q91 -100 217 -100q58 0 117.5 19.5t112.5 57.5q39 27 127 123zM457 1170v35l185 136q95 70 159 70q30 0 50.5 -21.5t20.5 -53.5q0 -39 -28 -64.5t-101 -41.5z" />
    <glyph glyph-name="Ccaron" unicode="&#x10c;" horiz-adv-x="1515" 
d="M1208 1395h72l127 -465l-93 -26q-75 161 -114 216q-64 89 -159.5 141t-210.5 52q-135 0 -248.5 -72.5t-184 -212.5t-70.5 -315q0 -180 71.5 -321t193.5 -217t263 -76q133 0 272 76t241 213l80 -55q-62 -92 -134 -156q-114 -103 -237 -152t-270 -49q-325 0 -528 241
q-168 200 -168 476q0 203 93 367.5t256.5 261.5t352.5 97q101 0 187.5 -27.5t175.5 -88.5zM837 1494l-290 191l27 51l263 -93l264 93l27 -51z" />
    <glyph glyph-name="ccaron" unicode="&#x10d;" horiz-adv-x="1065" 
d="M958 279l64 -52q-188 -251 -451 -251q-205 0 -346 146t-141 363q0 145 65.5 260.5t182 179.5t267.5 64q172 0 287 -84.5t115 -170.5q0 -46 -27 -71t-61 -25q-18 0 -35 9t-35 29q-8 9 -29 56q-27 58 -42 78q-31 40 -76.5 63t-101.5 23q-85 0 -157.5 -47t-115 -138.5
t-42.5 -218.5q0 -197 105 -313q91 -100 217 -100q58 0 117.5 19.5t112.5 57.5q39 27 127 123zM580 1134l-290 191l27 51l263 -93l264 93l27 -51z" />
    <glyph glyph-name="dmacron" unicode="&#x111;" horiz-adv-x="1270" 
d="M1038 1185h174v-82h-174v-849q0 -84 4 -102q10 -38 34 -53t93 -15h43v-84l-347 -16v159q-100 -91 -187.5 -129t-175.5 -38q-181 0 -300.5 145.5t-119.5 350.5q0 146 63.5 267.5t167.5 185.5t228 64q95 0 176 -33t148 -99v246l-391 -1v83h391v113h-168v85q68 6 124.5 23.5
t141.5 60.5h75v-282zM865 242v378q0 81 -30.5 132.5t-100 89.5t-142.5 38q-87 0 -160.5 -47.5t-115 -137t-41.5 -216.5q0 -120 38.5 -207.5t103.5 -133t133 -45.5q67 0 152 38.5t163 110.5z" />
    <glyph glyph-name="overscore" unicode="&#xaf;" horiz-adv-x="1024" 
d="M-12 1596h1048v-102h-1048v102z" />
    <glyph glyph-name="middot" unicode="&#xb7;" horiz-adv-x="533" 
d="M266 855q51 0 87 -35.5t36 -85.5q0 -51 -36 -86.5t-87 -35.5t-87 35.5t-36 86.5q0 50 36 85.5t87 35.5z" />
    <glyph glyph-name="foursuperior" unicode="&#xf003;" horiz-adv-x="762" 
d="M438 1406h118v-414h155v-77h-155v-234h-123v234h-388v98zM433 992v304l-303 -304h303z" />
    <glyph glyph-name="Abreve" unicode="&#x102;" horiz-adv-x="1393" 
d="M616 1395h165l433 -1166q32 -88 64.5 -116.5t87.5 -28.5h22v-84h-497v84q24 2 47 2q48 0 63 10q29 19 29 48q0 21 -28 103l-92 270h-506l-108 -302q-17 -47 -17 -65q0 -20 10.5 -35t28.5 -22.5t58 -7.5q27 0 44 -1v-84h-417v84q58 0 83.5 11.5t44.5 37t50 107.5zM441 615
h431l-216 600zM360 1702l48 38q128 -107 291 -107q80 0 160 31t128 76l46 -38q-46 -91 -139.5 -149t-200.5 -58q-73 0 -139 25.5t-114.5 70.5t-79.5 111z" />
    <glyph glyph-name="abreve" unicode="&#x103;" horiz-adv-x="1188" 
d="M793 579v109q0 111 -62 158.5t-175 47.5q-56 0 -98 -13.5t-67.5 -37t-37.5 -53.5q-5 -11 -24 -85q-23 -90 -93 -90q-40 0 -64.5 26.5t-24.5 71.5q0 66 49 129.5t149.5 105t237.5 41.5q128 0 219 -39.5t134 -113.5q30 -51 30 -186v-385q0 -82 5 -107q11 -43 38.5 -64.5
t71.5 -21.5q46 0 110 22v-87q-83 -24 -149 -24q-71 0 -119.5 20t-79.5 58.5t-40 91.5q-120 -94 -217 -132t-196 -38q-138 0 -224 75t-86 176q0 61 31.5 116t96 97t202.5 74t383 58zM793 492q-232 -34 -287 -47q-109 -25 -156 -55t-67 -64.5t-20 -73.5t22.5 -75.5t63.5 -57.5
t87 -21q65 0 147 31t210 121v242zM257 1370l48 38q128 -107 291 -107q80 0 160 31t128 76l46 -38q-46 -91 -139.5 -149t-200.5 -58q-73 0 -139 25.5t-114.5 70.5t-79.5 111z" />
    <glyph glyph-name="Aogonek" unicode="&#x104;" horiz-adv-x="1393" 
d="M616 1395h165l433 -1166q32 -88 64.5 -116.5t87.5 -28.5h22v-84h-497v84q24 2 47 2q48 0 63 10q29 19 29 48q0 21 -28 103l-92 270h-506l-108 -302q-17 -47 -17 -65q0 -20 10.5 -35t28.5 -22.5t58 -7.5q27 0 44 -1v-84h-417v84q58 0 83.5 11.5t44.5 37t50 107.5zM441 615
h431l-216 600zM1174 0q-38 -28 -65 -71q-18 -29 -18 -59q0 -36 25 -60.5t59 -24.5q31 0 72 19t79 56l33 -43q-70 -61 -113 -82q-65 -32 -120 -32q-56 0 -93.5 39t-37.5 95q0 45 33 96q23 35 70 67h76z" />
    <glyph glyph-name="aogonek" unicode="&#x105;" horiz-adv-x="1188" 
d="M793 579v109q0 111 -62 158.5t-175 47.5q-56 0 -98 -13.5t-67.5 -37t-37.5 -53.5q-5 -11 -24 -85q-23 -90 -93 -90q-40 0 -64.5 26.5t-24.5 71.5q0 66 49 129.5t149.5 105t237.5 41.5q128 0 219 -39.5t134 -113.5q30 -51 30 -186v-385q0 -82 5 -107q11 -43 38.5 -64.5
t71.5 -21.5q46 0 110 22v-87q-83 -24 -149 -24q-71 0 -119.5 20t-79.5 58.5t-40 91.5q-120 -94 -217 -132t-196 -38q-138 0 -224 75t-86 176q0 61 31.5 116t96 97t202.5 74t383 58zM793 492q-232 -34 -287 -47q-109 -25 -156 -55t-67 -64.5t-20 -73.5t22.5 -75.5t63.5 -57.5
t87 -21q65 0 147 31t210 121v242zM1027 0q-38 -28 -65 -71q-18 -29 -18 -59q0 -36 25 -60.5t59 -24.5q31 0 72 19t79 56l33 -43q-70 -61 -113 -82q-65 -32 -120 -32q-56 0 -93.5 39t-37.5 95q0 45 33 96q23 35 70 67h76z" />
    <glyph glyph-name="Dcaron" unicode="&#x10e;" horiz-adv-x="1638" 
d="M97 1310v85h498q342 0 477 -43q199 -63 323 -235q137 -190 137 -437q0 -168 -67.5 -312.5t-177.5 -232.5q-91 -74 -219 -104.5t-258 -30.5h-713v84h58l19 -1q37 0 60.5 15t33.5 40q7 19 7 88v933q0 79 -10 102q-14 31 -45 43q-18 6 -123 6zM461 108h302q45 0 149.5 16
t149.5 39q66 34 128 109.5t95.5 181t33.5 241.5q0 135 -33.5 234t-101 178t-150 120.5t-184.5 52.5q-55 5 -184 5h-205v-1177zM795 1466l-290 191l27 51l263 -93l264 93l27 -51z" />
    <glyph glyph-name="dcaron" unicode="&#x10f;" horiz-adv-x="1366" 
d="M697 1298v85q68 6 124.5 23.5t141.5 60.5h75v-1213q0 -84 4 -102q10 -38 34 -53t93 -15h43v-84l-347 -16v159q-100 -91 -187.5 -129t-175.5 -38q-181 0 -300.5 145.5t-119.5 350.5q0 146 63.5 267.5t167.5 185.5t228 64q95 0 176 -33t148 -99v441h-168zM865 242v378
q0 81 -30.5 132.5t-100 89.5t-142.5 38q-87 0 -160.5 -47.5t-115 -137t-41.5 -216.5q0 -120 38.5 -207.5t103.5 -133t133 -45.5q67 0 152 38.5t163 110.5zM1131 927l-49 60q185 150 185 245q0 12 -4 34q-29 -13 -53 -13q-46 0 -72 28.5t-26 70.5q0 38 29.5 71.5t78.5 33.5
q61 0 105 -49t44 -126q0 -68 -37.5 -145t-200.5 -210z" />
    <glyph glyph-name="Dslash" unicode="&#x110;" horiz-adv-x="1638" 
d="M275 649h-178v97h178v413q0 79 -10 102q-14 31 -45 43q-18 6 -123 6v85h498q342 0 477 -43q199 -63 323 -235q137 -190 137 -437q0 -168 -67.5 -312.5t-177.5 -232.5q-91 -74 -219 -104.5t-258 -30.5h-713v84h58l19 -1q37 0 60.5 15t33.5 40q7 19 7 88v423zM461 649v-541
h302q45 0 149.5 16t149.5 39q66 34 128 109.5t95.5 181t33.5 241.5q0 135 -33.5 234t-101 178t-150 120.5t-184.5 52.5q-55 5 -184 5h-205v-539h429v-97h-429z" />
    <glyph glyph-name="Eogonek" unicode="&#x118;" horiz-adv-x="1475" 
d="M98 1395h1134l131 -367l-88 -33q-33 90 -72 141.5t-93.5 87.5t-110 48t-200.5 12h-338v-511h168q93 0 140.5 31.5t65.5 78.5q14 35 14 122v23h98v-612h-98v53q0 70 -10.5 101t-38.5 58.5t-60.5 37.5t-110.5 10h-168v-454q0 -71 6.5 -86.5t21.5 -22.5t82 -7h209
q175 0 273.5 42t173.5 129q59 68 113 192l91 -32l-156 -437h-1177v84h40q70 0 87 9q26 13 40 42q10 20 10 87v960q0 65 -13 87t-45 34q-17 7 -119 7v85zM1124 0q-38 -28 -65 -71q-18 -29 -18 -59q0 -36 25 -60.5t59 -24.5q31 0 72 19t79 56l33 -43q-70 -61 -113 -82
q-65 -32 -120 -32q-56 0 -93.5 39t-37.5 95q0 45 33 96q23 35 70 67h76z" />
    <glyph glyph-name="eogonek" unicode="&#x119;" horiz-adv-x="1065" 
d="M930 258l64 -52q-73 -87 -141.5 -138t-129.5 -71.5t-143 -20.5q-147 0 -250 60q-118 69 -181 180t-63 262q0 158 61 270t170.5 176.5t253.5 64.5q107 0 186 -33.5t134 -101t80 -154.5q14 -51 16 -132h-707q-3 -49 -3 -73q0 -126 44 -224.5t116.5 -145t164.5 -46.5
q78 0 151 36.5t177 142.5zM802 662q-15 92 -42.5 136t-78 70t-113.5 26t-118 -26t-91.5 -72t-63.5 -134h507zM599 0q-38 -28 -65 -71q-18 -29 -18 -59q0 -36 25 -60.5t59 -24.5q31 0 72 19t79 56l33 -43q-70 -61 -113 -82q-65 -32 -120 -32q-56 0 -93.5 39t-37.5 95
q0 45 33 96q23 35 70 67h76z" />
    <glyph glyph-name="Ecaron" unicode="&#x11a;" horiz-adv-x="1475" 
d="M98 1395h1134l131 -367l-88 -33q-33 90 -72 141.5t-93.5 87.5t-110 48t-200.5 12h-338v-511h168q93 0 140.5 31.5t65.5 78.5q14 35 14 122v23h98v-612h-98v53q0 70 -10.5 101t-38.5 58.5t-60.5 37.5t-110.5 10h-168v-454q0 -71 6.5 -86.5t21.5 -22.5t82 -7h209
q175 0 273.5 42t173.5 129q59 68 113 192l91 -32l-156 -437h-1177v84h40q70 0 87 9q26 13 40 42q10 20 10 87v960q0 65 -13 87t-45 34q-17 7 -119 7v85zM736 1466l-290 191l27 51l263 -93l264 93l27 -51z" />
    <glyph glyph-name="ecaron" unicode="&#x11b;" horiz-adv-x="1065" 
d="M930 258l64 -52q-73 -87 -141.5 -138t-129.5 -71.5t-143 -20.5q-147 0 -250 60q-118 69 -181 180t-63 262q0 158 61 270t170.5 176.5t253.5 64.5q107 0 186 -33.5t134 -101t80 -154.5q14 -51 16 -132h-707q-3 -49 -3 -73q0 -126 44 -224.5t116.5 -145t164.5 -46.5
q78 0 151 36.5t177 142.5zM802 662q-15 92 -42.5 136t-78 70t-113.5 26t-118 -26t-91.5 -72t-63.5 -134h507zM557 1134l-290 191l27 51l263 -93l264 93l27 -51z" />
    <glyph glyph-name="IJ" unicode="&#x132;" horiz-adv-x="1925" 
d="M81 1395h534v-85h-41q-78 0 -106 -35.5t-28 -140.5v-899q0 -88 27.5 -119.5t106.5 -31.5h41v-84h-534v84h44q75 0 102.5 26.5t27.5 124.5v920q0 94 -23.5 124.5t-106.5 30.5h-44v85zM1310 1395h534v-85h-53q-64 0 -93 -23t-29 -95v-737q0 -178 -60.5 -271.5t-176 -150.5
t-269.5 -57q-216 0 -344 114t-128 261q0 76 34 117t86 41q44 0 68.5 -33t24.5 -75q0 -14 -9 -57q-9 -45 -9 -63q0 -77 77.5 -136t192.5 -59q125 0 226 73t101 272v729q0 96 -27 123t-112 27h-34v85z" />
    <glyph glyph-name="ij" unicode="&#x133;" horiz-adv-x="1229" 
d="M321 1440q48 0 82 -33.5t34 -81.5t-34 -82t-82 -34t-82 34t-34 82t34.5 81.5t81.5 33.5zM948 1440q46 0 80.5 -33t34.5 -82q0 -48 -33.5 -82t-81.5 -34t-82 34t-34 82q0 49 34.5 82t81.5 33zM66 821v83q144 15 268 85h73v-756q0 -79 7.5 -101.5t31.5 -35t85 -12.5h47v-84
h-512v84h41q64 0 89.5 11.5t34 35.5t8.5 102v588h-173zM692 821v82q129 9 269 86h73v-1089q0 -163 -98.5 -267.5t-265.5 -104.5q-104 0 -170 44t-66 94q0 40 25.5 66t66.5 26t92 -50q76 -76 123 -76q125 0 125 203v986h-174z" />
    <glyph glyph-name="Lacute" unicode="&#x139;" horiz-adv-x="1229" 
d="M94 1395h541v-85h-50q-58 0 -82 -11t-35 -32t-11 -75v-973q0 -67 5 -80q6 -18 26 -26q14 -6 81 -6h75q129 0 224 37.5t164 109t133 213.5l89 -30l-156 -437h-1004v84h44q64 0 86 11t34 36.5t12 87.5v949q0 72 -11 96.5t-32 35t-89 10.5h-44v85zM359 1501v35l185 136
q95 70 159 70q30 0 50.5 -21.5t20.5 -53.5q0 -39 -28 -64.5t-101 -41.5z" />
    <glyph glyph-name="lacute" unicode="&#x13a;" horiz-adv-x="614" 
d="M63 1301v82q136 10 265 84h74v-1231q0 -78 10 -98q13 -28 38 -41t96 -13h32v-84h-515v84h52q49 0 73.5 15t35 41t10.5 104v1057h-171zM111 1505v35l185 136q95 70 159 70q30 0 50.5 -21.5t20.5 -53.5q0 -39 -28 -64.5t-101 -41.5z" />
    <glyph glyph-name="Lcaron" unicode="&#x13d;" horiz-adv-x="1229" 
d="M94 1395h541v-85h-50q-58 0 -82 -11t-35 -32t-11 -75v-973q0 -67 5 -80q6 -18 26 -26q14 -6 81 -6h75q129 0 224 37.5t164 109t133 213.5l89 -30l-156 -437h-1004v84h44q64 0 86 11t34 36.5t12 87.5v949q0 72 -11 96.5t-32 35t-89 10.5h-44v85zM765 889l-49 60
q185 150 185 245q0 12 -4 34q-29 -13 -53 -13q-46 0 -72 28.5t-26 70.5q0 38 29.5 71.5t78.5 33.5q61 0 105 -49t44 -126q0 -68 -37.5 -145t-200.5 -210z" />
    <glyph glyph-name="lcaron" unicode="&#x13e;" horiz-adv-x="731" 
d="M63 1301v82q136 10 265 84h74v-1231q0 -78 10 -98q13 -28 38 -41t96 -13h32v-84h-515v84h52q49 0 73.5 15t35 41t10.5 104v1057h-171zM496 927l-49 60q185 150 185 245q0 12 -4 34q-29 -13 -53 -13q-46 0 -72 28.5t-26 70.5q0 38 29.5 71.5t78.5 33.5q61 0 105 -49
t44 -126q0 -68 -37.5 -145t-200.5 -210z" />
    <glyph glyph-name="Ldot" unicode="&#x13f;" horiz-adv-x="1229" 
d="M94 1395h541v-85h-50q-58 0 -82 -11t-35 -32t-11 -75v-973q0 -67 5 -80q6 -18 26 -26q14 -6 81 -6h75q129 0 224 37.5t164 109t133 213.5l89 -30l-156 -437h-1004v84h44q64 0 86 11t34 36.5t12 87.5v949q0 72 -11 96.5t-32 35t-89 10.5h-44v85zM664 864q51 0 87 -35.5
t36 -85.5q0 -51 -36 -86.5t-87 -35.5t-87 35.5t-36 86.5q0 50 36 85.5t87 35.5z" />
    <glyph glyph-name="ldot" unicode="&#x140;" horiz-adv-x="689" 
d="M63 1301v82q136 10 265 84h74v-1231q0 -78 10 -98q13 -28 38 -41t96 -13h32v-84h-515v84h52q49 0 73.5 15t35 41t10.5 104v1057h-171zM600 864q51 0 87 -35.5t36 -85.5q0 -51 -36 -86.5t-87 -35.5t-87 35.5t-36 86.5q0 50 36 85.5t87 35.5z" />
    <glyph glyph-name="Nacute" unicode="&#x143;" horiz-adv-x="1515" 
d="M88 1395h428l635 -1046v796q0 71 -14 102t-42 47t-83 16h-36v85h467v-85h-25q-62 0 -84 -10q-31 -14 -46.5 -51t-15.5 -104v-1145h-121l-765 1257v-996q0 -83 5 -101q7 -23 25.5 -42t43.5 -26t101 -8v-84h-473v84h25q72 0 97.5 14t39.5 48t14 115v884q0 83 -4 101
q-9 34 -34.5 49t-101.5 15h-36v85zM587 1501v35l185 136q95 70 159 70q30 0 50.5 -21.5t20.5 -53.5q0 -39 -28 -64.5t-101 -41.5z" />
    <glyph glyph-name="nacute" unicode="&#x144;" horiz-adv-x="1352" 
d="M75 821v84q89 10 133 24t127 60h72v-190q132 111 225.5 150.5t189.5 39.5q82 0 145 -27.5t102.5 -74.5t52.5 -107q8 -37 8 -112v-440q0 -79 11.5 -101.5t36.5 -32.5t123 -10v-84h-515v84h28q72 0 98 13t37.5 38t11.5 102v368q0 114 -18.5 158t-63 71.5t-112.5 27.5
q-81 0 -173 -41.5t-178 -122.5v-461q0 -78 11.5 -104t37.5 -39q18 -10 96 -10h29v-84h-515v84h25q74 0 101 12.5t38 44.5q6 16 6 110v570h-170zM517 1170v35l185 136q95 70 159 70q30 0 50.5 -21.5t20.5 -53.5q0 -39 -28 -64.5t-101 -41.5z" />
    <glyph glyph-name="Ncaron" unicode="&#x147;" horiz-adv-x="1515" 
d="M88 1395h428l635 -1046v796q0 71 -14 102t-42 47t-83 16h-36v85h467v-85h-25q-62 0 -84 -10q-31 -14 -46.5 -51t-15.5 -104v-1145h-121l-765 1257v-996q0 -83 5 -101q7 -23 25.5 -42t43.5 -26t101 -8v-84h-473v84h25q72 0 97.5 14t39.5 48t14 115v884q0 83 -4 101
q-9 34 -34.5 49t-101.5 15h-36v85zM757 1466l-290 191l27 51l263 -93l264 93l27 -51z" />
    <glyph glyph-name="ncaron" unicode="&#x148;" horiz-adv-x="1352" 
d="M75 821v84q89 10 133 24t127 60h72v-190q132 111 225.5 150.5t189.5 39.5q82 0 145 -27.5t102.5 -74.5t52.5 -107q8 -37 8 -112v-440q0 -79 11.5 -101.5t36.5 -32.5t123 -10v-84h-515v84h28q72 0 98 13t37.5 38t11.5 102v368q0 114 -18.5 158t-63 71.5t-112.5 27.5
q-81 0 -173 -41.5t-178 -122.5v-461q0 -78 11.5 -104t37.5 -39q18 -10 96 -10h29v-84h-515v84h25q74 0 101 12.5t38 44.5q6 16 6 110v570h-170zM675 1134l-290 191l27 51l263 -93l264 93l27 -51z" />
    <glyph glyph-name="napostrophe" unicode="&#x149;" horiz-adv-x="1537" 
d="M259 821v84q89 10 133 24t127 60h72v-190q132 111 225.5 150.5t189.5 39.5q82 0 145 -27.5t102.5 -74.5t52.5 -107q8 -37 8 -112v-440q0 -79 11.5 -101.5t36.5 -32.5t123 -10v-84h-515v84h28q72 0 98 13t37.5 38t11.5 102v368q0 114 -18.5 158t-63 71.5t-112.5 27.5
q-81 0 -173 -41.5t-178 -122.5v-461q0 -78 11.5 -104t37.5 -39q18 -10 96 -10h29v-84h-515v84h25q74 0 101 12.5t38 44.5q6 16 6 110v570h-170zM10 878l-54 66q205 167 205 279q0 13 -2 32q-17 -7 -33 -11t-30 -4q-48 0 -77 31t-29 79q0 47 35 82t84 35q68 0 116.5 -54.5
t48.5 -140.5q0 -56 -23 -117.5t-67 -114t-174 -162.5z" />
    <glyph glyph-name="Odblacute" unicode="&#x150;" horiz-adv-x="1638" 
d="M839 1419q191 0 345 -92q167 -99 256.5 -257t89.5 -366q0 -322 -200 -525t-510 -203q-346 0 -548 244q-165 199 -165 476q0 206 93 369.5t264 258.5t375 95zM839 1311q-156 0 -268 -71.5t-179.5 -210.5t-67.5 -343q0 -195 66.5 -330.5t178.5 -207.5t252 -72
q139 0 246 70.5t177 222t70 336.5q0 188 -70 344q-60 134 -159 198t-246 64zM724 1501l-33 22l72 185q29 73 53.5 97.5t53.5 24.5q23 0 38 -14.5t15 -34.5q0 -48 -42 -98zM989 1501l-33 22l72 185q28 72 53 96.5t54 24.5q23 0 38 -14.5t15 -33.5q0 -48 -42 -98z" />
    <glyph glyph-name="odblacute" unicode="&#x151;" horiz-adv-x="1147" 
d="M579 989q147 0 254.5 -61t169.5 -178t62 -267t-63.5 -267t-173 -178.5t-261.5 -61.5q-242 0 -363.5 151t-121.5 355q0 149 63 264.5t176.5 179t257.5 63.5zM571 892q-114 0 -193 -90q-100 -112 -100 -326q0 -206 85 -314q77 -96 209 -96q85 0 151.5 45t107.5 143.5
t41 231.5q0 130 -44 233q-34 82 -102.5 127.5t-154.5 45.5zM435 1105l-33 22l72 185q29 73 53.5 97.5t53.5 24.5q23 0 38 -14.5t15 -34.5q0 -48 -42 -98zM700 1105l-33 22l72 185q28 72 53 96.5t54 24.5q23 0 38 -14.5t15 -33.5q0 -48 -42 -98z" />
    <glyph glyph-name="Racute" unicode="&#x154;" horiz-adv-x="1475" 
d="M99 1395h720q205 0 310 -42.5t161.5 -123t56.5 -186.5q0 -109 -55 -193.5t-158.5 -133t-274.5 -50.5l368 -450q45 -56 59 -69q35 -31 73.5 -47t86.5 -16h25v-84h-318l-512 666h-179v-430q0 -72 5 -90q11 -34 35.5 -48t95.5 -14h36v-84h-535v84h48q54 0 72.5 7t33 24.5
t20.5 44.5q2 11 3 101v914q0 60 -12 86t-33.5 37.5t-74.5 11.5h-57v85zM462 1286v-525h287q146 0 205 18q84 24 132.5 88t48.5 163q0 84 -35 141.5t-95.5 86t-180.5 28.5h-362zM530 1501v35l185 136q95 70 159 70q30 0 50.5 -21.5t20.5 -53.5q0 -39 -28 -64.5t-101 -41.5z
" />
    <glyph glyph-name="racute" unicode="&#x155;" horiz-adv-x="901" 
d="M72 822v82q73 6 130 24.5t130 60.5h75v-189q71 87 165 138t169 51q74 0 117 -35t43 -85q0 -36 -28.5 -63.5t-68.5 -27.5q-18 0 -31 5t-38 22q-55 36 -92 36q-50 0 -110 -42q-76 -54 -119 -106v-461q0 -60 6.5 -81.5t21.5 -37t37 -22.5t77 -7h33v-84h-517v84h43
q61 0 80 11q26 15 38.5 41.5t12.5 95.5v590h-174zM304 1170v35l185 136q95 70 159 70q30 0 50.5 -21.5t20.5 -53.5q0 -39 -28 -64.5t-101 -41.5z" />
    <glyph glyph-name="Rcaron" unicode="&#x158;" horiz-adv-x="1475" 
d="M99 1395h720q205 0 310 -42.5t161.5 -123t56.5 -186.5q0 -109 -55 -193.5t-158.5 -133t-274.5 -50.5l368 -450q45 -56 59 -69q35 -31 73.5 -47t86.5 -16h25v-84h-318l-512 666h-179v-430q0 -72 5 -90q11 -34 35.5 -48t95.5 -14h36v-84h-535v84h48q54 0 72.5 7t33 24.5
t20.5 44.5q2 11 3 101v914q0 60 -12 86t-33.5 37.5t-74.5 11.5h-57v85zM462 1286v-525h287q146 0 205 18q84 24 132.5 88t48.5 163q0 84 -35 141.5t-95.5 86t-180.5 28.5h-362zM724 1466l-290 191l27 51l263 -93l264 93l27 -51z" />
    <glyph glyph-name="rcaron" unicode="&#x159;" horiz-adv-x="901" 
d="M72 822v82q73 6 130 24.5t130 60.5h75v-189q71 87 165 138t169 51q74 0 117 -35t43 -85q0 -36 -28.5 -63.5t-68.5 -27.5q-18 0 -31 5t-38 22q-55 36 -92 36q-50 0 -110 -42q-76 -54 -119 -106v-461q0 -60 6.5 -81.5t21.5 -37t37 -22.5t77 -7h33v-84h-517v84h43
q61 0 80 11q26 15 38.5 41.5t12.5 95.5v590h-174zM451 1134l-290 191l27 51l263 -93l264 93l27 -51z" />
    <glyph glyph-name="Sacute" unicode="&#x15a;" horiz-adv-x="1352" 
d="M1036 1395h72l107 -430l-92 -28q-88 181 -234 285q-120 87 -266 87q-88 0 -158 -31.5t-105 -81.5t-35 -102q0 -47 27 -91t82 -77.5t180 -70.5l261 -77q48 -14 139.5 -54t142.5 -84.5t80 -109t29 -139.5q0 -166 -145.5 -290.5t-376.5 -124.5q-119 0 -213 34.5t-203 122.5
l-46 -133h-70l-93 501l93 19q51 -139 135.5 -236t187 -146.5t208.5 -49.5q144 0 252 87q90 73 90 172q0 91 -65 149q-66 58 -236 108l-250 72q-210 61 -296 156t-86 218q0 96 56 177.5t172 136.5t254 55q116 0 222 -40q75 -28 138 -80zM505 1501v35l185 136q95 70 159 70
q30 0 50.5 -21.5t20.5 -53.5q0 -39 -28 -64.5t-101 -41.5z" />
    <glyph glyph-name="sacute" unicode="&#x15b;" horiz-adv-x="1065" 
d="M751 965h70l90 -306l-90 -30q-54 123 -151.5 193.5t-197.5 70.5q-77 0 -125 -37.5t-48 -86.5q0 -46 35 -79q34 -34 153 -77l195 -69q165 -59 225 -126q59 -68 59 -154q0 -73 -44 -140.5t-127.5 -107.5t-191.5 -40q-168 0 -288 96l-21 -72h-71l-125 327l91 36
q91 -144 172 -204q113 -85 244 -85q87 0 143 46.5t56 103.5q0 47 -35 86q-36 38 -138 74l-231 84q-149 54 -207 118t-58 147q0 101 94.5 178.5t240.5 77.5q76 0 136 -19.5t118 -64.5zM374 1170v35l185 136q95 70 159 70q30 0 50.5 -21.5t20.5 -53.5q0 -39 -28 -64.5
t-101 -41.5z" />
    <glyph glyph-name="Tcedilla" unicode="&#x162;" horiz-adv-x="1270" 
d="M125 1442h70l10 -47h856l8 47h73l147 -410l-90 -32q-58 150 -145 223.5t-237 73.5q-68 0 -78.5 -10.5t-10.5 -79.5v-968q0 -105 28.5 -130t148.5 -25v-84h-538v84q90 0 117.5 8.5t42 37t14.5 101.5v989q0 54 -10.5 65.5t-62.5 11.5q-142 0 -237.5 -63.5t-159.5 -233.5
l-90 32zM586 -486l-41 48q113 99 113 164q0 9 -1 23q-28 -11 -50 -11q-46 0 -67 25.5t-21 54.5q0 34 28 59.5t69 25.5q55 0 94.5 -40t39.5 -99q0 -127 -164 -250z" />
    <glyph glyph-name="tcedilla" unicode="&#x163;" horiz-adv-x="778" 
d="M337 1305h71v-340h297v-100h-297v-603q0 -100 33.5 -142.5t98.5 -42.5q95 0 210 85v-97q-127 -89 -264 -89q-83 0 -146.5 39t-81 86.5t-17.5 148.5v615h-175v84q232 43 271 356zM376 -486l-41 48q113 99 113 164q0 9 -2 23q-27 -11 -49 -11q-46 0 -67 25.5t-21 54.5
q0 34 28 59.5t69 25.5q55 0 94.5 -40t39.5 -99q0 -127 -164 -250z" />
    <glyph glyph-name="Tcaron" unicode="&#x164;" horiz-adv-x="1270" 
d="M125 1442h70l10 -47h856l8 47h73l147 -410l-90 -32q-65 164 -154 230.5t-228 66.5q-58 0 -69 -4.5t-15.5 -15.5t-4.5 -70v-968q0 -69 7.5 -93t21.5 -37t38.5 -18.5t109.5 -6.5v-84h-538v84q89 1 109 6q35 10 50 38t15 103v989q0 46 -4.5 56t-17 15.5t-51.5 5.5
q-109 0 -174.5 -28t-123.5 -95t-99 -174l-90 32zM635 1466l-290 191l27 51l263 -93l264 93l27 -51z" />
    <glyph glyph-name="tcaron" unicode="&#x165;" horiz-adv-x="773" 
d="M580 1040l-34 55q131 110 131 185q0 9 -3 28q-24 -11 -45 -11q-42 0 -61.5 26t-19.5 57q0 34 26 60.5t63 26.5q51 0 87.5 -40.5t36.5 -104.5q0 -54 -30.5 -118t-150.5 -164zM338 1305h71v-340h297v-100h-297v-603q0 -100 33.5 -142.5t98.5 -42.5q95 0 210 85v-97
q-127 -89 -264 -89q-83 0 -146.5 39t-81 86.5t-17.5 148.5v615h-175v84q232 43 271 356z" />
    <glyph glyph-name="Uring" unicode="&#x16e;" horiz-adv-x="1597" 
d="M78 1395h539v-85h-36q-66 0 -94 -13q-22 -10 -33 -34t-11 -96v-628q0 -168 40.5 -249t135 -136t207.5 -55q114 0 216 59t143 140t41 256v604q0 66 -13 95t-39.5 43t-82.5 14h-39v85h467v-85h-32q-79 0 -108.5 -30t-29.5 -113v-643q0 -176 -66 -293.5t-192 -186
t-293 -68.5q-158 0 -289 70t-192.5 174.5t-61.5 262.5v684q0 66 -12 92.5t-35 38.5t-80 12h-50v85zM798 1831q79 0 134 -55.5t55 -133.5q0 -79 -55.5 -134.5t-133.5 -55.5t-133 55.5t-55 134.5q0 78 55 133.5t133 55.5zM798 1761q-49 0 -83.5 -35t-34.5 -84q0 -50 34.5 -85
t83.5 -35t84 35t35 85q0 49 -35 84t-84 35z" />
    <glyph glyph-name="uring" unicode="&#x16f;" horiz-adv-x="1393" 
d="M20 965l379 15v-644q0 -85 23.5 -135t72 -77.5t113.5 -27.5q80 0 181.5 43t202.5 128v466q0 74 -11 97t-39 37t-88 14h-73v84l379 15v-746q0 -72 12 -99.5t35.5 -39t94.5 -11.5h31v-84l-332 -17v185q-137 -109 -239 -150.5t-207 -41.5q-78 0 -135.5 21t-101 63t-66.5 101
t-23 126v455q0 61 -11 85.5t-36.5 39t-69.5 14.5h-92v84zM672 1499q79 0 134 -55.5t55 -133.5q0 -79 -55.5 -134.5t-133.5 -55.5t-133 55.5t-55 134.5q0 78 55 133.5t133 55.5zM672 1429q-49 0 -83.5 -35t-34.5 -84q0 -50 34.5 -85t83.5 -35t84 35t35 85q0 49 -35 84t-84 35
z" />
    <glyph glyph-name="Udblacute" unicode="&#x170;" horiz-adv-x="1597" 
d="M78 1395h539v-85h-36q-66 0 -94 -13q-22 -10 -33 -34t-11 -96v-628q0 -168 40.5 -249t135 -136t207.5 -55q114 0 216 59t143 140t41 256v604q0 66 -13 95t-39.5 43t-82.5 14h-39v85h467v-85h-32q-79 0 -108.5 -30t-29.5 -113v-643q0 -176 -66 -293.5t-192 -186
t-293 -68.5q-158 0 -289 70t-192.5 174.5t-61.5 262.5v684q0 66 -12 92.5t-35 38.5t-80 12h-50v85zM706 1437l-33 22l72 185q29 73 53.5 97.5t53.5 24.5q23 0 38 -14.5t15 -34.5q0 -48 -42 -98zM971 1437l-33 22l72 185q28 72 53 96.5t54 24.5q23 0 38 -14.5t15 -33.5
q0 -48 -42 -98z" />
    <glyph glyph-name="udblacute" unicode="&#x171;" horiz-adv-x="1393" 
d="M20 965l379 15v-644q0 -85 23.5 -135t72 -77.5t113.5 -27.5q80 0 181.5 43t202.5 128v466q0 74 -11 97t-39 37t-88 14h-73v84l379 15v-746q0 -72 12 -99.5t35.5 -39t94.5 -11.5h31v-84l-332 -17v185q-137 -109 -239 -150.5t-207 -41.5q-78 0 -135.5 21t-101 63t-66.5 101
t-23 126v455q0 61 -11 85.5t-36.5 39t-69.5 14.5h-92v84zM480 1105l-33 22l72 185q29 73 53.5 97.5t53.5 24.5q23 0 38 -14.5t15 -34.5q0 -48 -42 -98zM745 1105l-33 22l72 185q28 72 53 96.5t54 24.5q23 0 38 -14.5t15 -33.5q0 -48 -42 -98z" />
    <glyph glyph-name="Zacute" unicode="&#x179;" horiz-adv-x="1311" 
d="M245 1395h971v-85l-911 -1202h335q228 0 347.5 76.5t213.5 279.5l92 -31l-161 -433h-1079v84l913 1203h-290q-146 0 -231 -28t-149 -87.5t-134 -186.5l-86 42zM520 1501v35l185 136q95 70 159 70q30 0 50.5 -21.5t20.5 -53.5q0 -39 -28 -64.5t-101 -41.5z" />
    <glyph glyph-name="zacute" unicode="&#x17a;" horiz-adv-x="983" 
d="M205 965h729v-84l-674 -788h166q195 0 280 47q117 66 174 223l89 -32l-123 -331h-810v84l674 781h-197q-137 0 -213.5 -49t-141.5 -186l-86 41zM381 1170v35l185 136q95 70 159 70q30 0 50.5 -21.5t20.5 -53.5q0 -39 -28 -64.5t-101 -41.5z" />
    <glyph glyph-name="Zdot" unicode="&#x17b;" horiz-adv-x="1311" 
d="M245 1395h971v-85l-911 -1202h335q228 0 347.5 76.5t213.5 279.5l92 -31l-161 -433h-1079v84l913 1203h-290q-146 0 -231 -28t-149 -87.5t-134 -186.5l-86 42zM666 1708q51 0 87 -35.5t36 -85.5q0 -51 -36 -86.5t-87 -35.5t-87 35.5t-36 86.5q0 50 36 85.5t87 35.5z" />
    <glyph glyph-name="zdot" unicode="&#x17c;" horiz-adv-x="983" 
d="M205 965h729v-84l-674 -788h166q195 0 280 47q117 66 174 223l89 -32l-123 -331h-810v84l674 781h-197q-137 0 -213.5 -49t-141.5 -186l-86 41zM516 1376q51 0 87 -35.5t36 -85.5q0 -51 -36 -86.5t-87 -35.5t-87 35.5t-36 86.5q0 50 36 85.5t87 35.5z" />
    <glyph glyph-name="noGamma" unicode="&#xf100;" horiz-adv-x="1323" 
d="M1253 1356l14 -310h-36q-21 142 -109.5 183.5t-214.5 41.5h-403v-1100q-1 -60 44 -96.5t154 -38.5v-36h-605v36q101 0 147.5 33.5t46.5 126.5v970q0 84 -44.5 119t-149.5 35v36h1156z" />
    <glyph glyph-name="noTheta" unicode="&#xf101;" horiz-adv-x="1592" 
d="M1484 681q0 -298 -202 -505t-482 -207t-486.5 208t-206.5 502q0 290 201 499t487 209q282 0 485.5 -205.5t203.5 -500.5zM1240 674q0 289 -119.5 462t-328.5 173q-204 0 -322.5 -169t-118.5 -459q0 -292 123 -463.5t323 -171.5q209 0 326 176t117 452zM555 916h36
q-1 -81 34.5 -118.5t114.5 -37.5h111q78 0 114 37t35 119h36v-480h-36q1 83 -34.5 121t-114.5 38h-111q-78 0 -114 -38t-35 -121h-36v480z" />
    <glyph glyph-name="noPhi" unicode="&#xf102;" horiz-adv-x="1593" 
d="M903 191q12 -155 192 -155v-36h-598v36q175 0 191 155q-265 0 -423 142.5t-158 344.5q0 219 168 353t413 134q-12 155 -191 155v36h598v-36q-179 0 -192 -155q265 0 423.5 -142t158.5 -345q0 -222 -169 -354.5t-413 -132.5zM688 1110q-115 -3 -203 -56.5t-125 -142
t-37 -245.5q0 -405 365 -420v864zM903 1110v-864q140 0 253 92.5t113 351.5q0 405 -366 420z" />
    <glyph glyph-name="noalpha" unicode="&#xf103;" horiz-adv-x="1097" 
d="M784 916h166l-100 -467q-23 -108 -51 -189q20 -169 118 -169q84 0 103 130h36q-11 -118 -55.5 -183.5t-107.5 -65.5q-92 0 -120 215q-106 -215 -339 -215q-165 0 -258.5 127.5t-93.5 354.5q0 231 104 360t251 129q199 0 286 -315zM703 537q-100 348 -248 348
q-84 0 -135.5 -110t-51.5 -332q0 -235 48.5 -321.5t126.5 -86.5q67 0 121.5 71.5t103.5 280.5z" />
    <glyph glyph-name="nodelta" unicode="&#xf104;" horiz-adv-x="969" 
d="M496 854q-57 63 -139 134q-115 100 -140 156t-25 102q0 174 260 174q156 0 259.5 -50t103.5 -123q0 -33 -22.5 -59t-56.5 -26q-46 0 -108 68q-71 80 -113.5 105t-103.5 25q-74 0 -117 -31.5t-43 -77.5q0 -49 37.5 -96t196.5 -156q162 -111 237 -182t120 -166t45 -204
q0 -189 -130 -332t-302 -143q-156 0 -264.5 113.5t-108.5 308.5q0 190 124 313t290 147zM540 807q-287 -48 -287 -394q0 -184 73.5 -280t164.5 -96q99 0 163 95t64 258q0 119 -34 202.5t-99 159.5q-38 44 -45 55z" />
    <glyph glyph-name="noepsilon" unicode="&#xf105;" horiz-adv-x="907" 
d="M323 486q-197 78 -197 219q0 106 100.5 172t256.5 66q132 0 220 -44t88 -110q0 -35 -26 -60.5t-61 -25.5q-56 0 -92 75q-50 105 -150 105q-76 0 -128.5 -48.5t-52.5 -143.5q0 -183 188 -183q21 0 47 4q46 7 70 7q61 0 61 -36q0 -39 -61 -39q-22 0 -67 8q-34 5 -53 5
q-198 0 -198 -204q0 -99 53 -159t148 -60q119 0 158 123q21 65 45 90t65 25q33 0 61 -24t28 -65q0 -93 -104.5 -152t-244.5 -59q-149 0 -272 76t-123 204q0 156 241 234z" />
    <glyph glyph-name="nosigma" unicode="&#xf106;" horiz-adv-x="1198" 
d="M1153 916v-146h-437q105 -52 197.5 -170.5t92.5 -251.5q0 -170 -135.5 -273t-293.5 -103q-202 0 -348.5 148t-146.5 355q0 145 76 256t177 148t255 37h563zM649 770h-35q-132 0 -201.5 -29t-114 -101t-44.5 -177q0 -175 95.5 -300.5t227.5 -125.5q109 0 182 93t73 237
q0 219 -183 403z" />
    <glyph glyph-name="notau" unicode="&#xf107;" horiz-adv-x="875" 
d="M810 916v-146h-300q-37 -321 -37 -470q0 -82 35 -123t88 -41q95 0 113 116h36q0 -107 -56 -193.5t-145 -86.5q-178 0 -178 330q0 141 35 468h-88q-81 0 -127 -26.5t-85 -111.5h-36q36 118 79 180.5t85 83t115 20.5h466z" />
    <glyph glyph-name="nophi" unicode="&#xf108;" horiz-adv-x="1145" 
d="M462 943v-36q-205 -55 -205 -412q0 -392 256 -463v584q0 121 14 179.5t66.5 103t127.5 44.5q77 0 156.5 -53t133 -158t53.5 -241q0 -191 -111 -342.5t-337 -172.5v-395h-103v395q-195 18 -313 156t-118 360q0 204 112 325t268 126zM616 54q300 47 300 409q0 159 -63 272
t-155 113q-39 0 -61 -37t-21 -160v-597z" />
    <glyph glyph-name="underscoredbl" unicode="&#x2017;" horiz-adv-x="1024" 
d="M-12 -167h1048v-102h-1048v102zM-12 -344h1048v-102h-1048v102z" />
    <glyph glyph-name="minute" unicode="&#x2032;" horiz-adv-x="451" 
d="M131 905l34 350q15 164 111 164q58 0 58 -60q0 -34 -26 -101l-136 -353h-41z" />
    <glyph glyph-name="second" unicode="&#x2033;" horiz-adv-x="778" 
d="M458 905l34 350q16 164 111 164q58 0 58 -60q0 -34 -25 -101l-136 -353h-42zM133 905l34 350q15 164 111 164q58 0 58 -60q0 -34 -26 -101l-136 -353h-41z" />
    <glyph glyph-name="exclamdbl" unicode="&#x203c;" horiz-adv-x="1108" 
d="M264 335l-76 894q-4 38 -4 48q0 142 126 142q50 0 85.5 -31.5t35.5 -90.5q0 -18 -5 -60l-80 -902h-82zM758 335l-77 894q-3 38 -3 48q0 142 126 142q55 0 87.5 -34t32.5 -88q0 -18 -4 -60l-80 -902h-82zM307 233q52 0 89 -36t37 -89q0 -51 -36.5 -88t-89.5 -37
q-51 0 -88 36.5t-37 88.5t37 88.5t88 36.5zM801 233q51 0 88 -36t37 -89q0 -51 -36.5 -88t-88.5 -37q-51 0 -88 36.5t-37 88.5t36.5 88.5t88.5 36.5z" />
    <glyph glyph-name="nsuperior" unicode="&#x207f;" horiz-adv-x="879" 
d="M37 1066v63q97 7 177 51h63v-100q130 100 257 100q74 0 125 -29t69.5 -66.5t18.5 -103.5v-264q0 -55 12 -67.5t65 -12.5h34v-63h-359v63h30q55 0 69.5 14.5t14.5 70.5v221q0 79 -23.5 113.5t-90.5 34.5q-106 0 -216 -93v-276q0 -58 13 -71.5t69 -13.5h31v-63h-359v63h28
q58 0 70 14t12 80v335h-110z" />
    <glyph glyph-name="peseta" unicode="&#x20a7;" horiz-adv-x="2796" 
d="M1261 954q209 51 247 351h71v-340h477q65 24 145 24q151 0 254 -84l27 60h70l90 -306l-90 -30q-47 112 -144.5 188t-204.5 76q-69 0 -121.5 -35t-52.5 -90q0 -47 37.5 -80.5t151.5 -74.5l195 -69q177 -63 230.5 -133t53.5 -147q0 -116 -100.5 -202t-262.5 -86
q-168 0 -288 96l-21 -72h-71l-33 85v-20q-126 -89 -264 -89q-83 0 -146.5 39t-81 86.5t-17.5 148.5v615h-170q-30 -84 -106 -155t-171.5 -93t-252.5 -22h-255v-358q0 -97 23 -125t104 -28h48v-84h-540v84h33q92 0 117 26.5t25 113.5v954q0 84 -24.5 108t-117.5 24h-33v85
h551q247 0 355.5 -34.5t186.5 -127t78 -236.5q0 -21 -2 -43zM457 1286v-585h215q149 0 217 24t115.5 98t47.5 176q0 106 -51 176t-124.5 90.5t-244.5 20.5h-175zM1898 145l-69 182l91 36q91 -145 188.5 -217t226.5 -72q84 0 142 45t58 105q0 98 -173 160l-231 84
q-134 49 -199.5 110.5t-65.5 154.5q0 75 47 132h-334v-603q0 -100 34 -142.5t98 -42.5q87 0 187 68z" />
    <glyph glyph-name="afii61248" unicode="&#x2105;" horiz-adv-x="1764" 
d="M642 991l55 -43q-122 -160 -301 -160q-152 0 -238 98t-86 219q0 136 95 225t247 89q122 0 195.5 -56t73.5 -107q0 -30 -21 -47t-49 -17q-26 0 -42 15t-40 65q-37 77 -121 77q-81 0 -135 -64.5t-54 -175.5q0 -110 56.5 -177.5t137.5 -67.5q63 0 110 27t117 100zM1379 1419
l-929 -1443h-119l928 1443h120zM1369 616q150 0 236.5 -89t86.5 -226t-88.5 -226.5t-241.5 -89.5q-160 0 -241.5 93.5t-81.5 222.5q0 139 91.5 227t238.5 88zM1364 544q-76 0 -126 -65.5t-50 -181.5q0 -115 46.5 -179.5t129.5 -64.5q88 0 134 71t46 179q0 112 -47.5 176.5
t-132.5 64.5z" />
    <glyph glyph-name="afii61289" unicode="&#x2113;" horiz-adv-x="942" 
d="M65 326l198 199v496q0 192 79.5 300t214.5 108q99 0 151.5 -58t52.5 -141q0 -134 -89.5 -274t-248.5 -315v-333q0 -275 175 -275q163 0 249 267h37q-31 -133 -116 -230t-214 -97q-100 0 -172.5 56t-95.5 127.5t-23 217.5v96l-173 -169zM423 698q282 311 282 492
q0 81 -39 131t-101 50q-142 0 -142 -267v-406z" />
    <glyph glyph-name="arrowleft" unicode="&#x2190;" horiz-adv-x="2048" 
d="M492 876h76q-81 -170 -195 -309h1595v-101h-1595q102 -102 198 -309h-78q-223 253 -414 341v45q177 71 413 333z" />
    <glyph glyph-name="arrowup" unicode="&#x2191;" horiz-adv-x="1024" 
d="M153 1050q262 236 333 413h46q87 -192 340 -415v-77q-207 96 -309 197v-1597h-101v1597q-139 -114 -309 -195v77z" />
    <glyph glyph-name="arrowright" unicode="&#x2192;" horiz-adv-x="2048" 
d="M1555 876q237 -262 413 -333v-45q-191 -88 -414 -341h-77q95 207 197 309h-1595v101h1595q-114 139 -195 309h76z" />
    <glyph glyph-name="arrowdown" unicode="&#x2193;" horiz-adv-x="1024" 
d="M153 -16v76q170 -81 309 -195v1598h101v-1598q102 102 309 197v-77q-253 -223 -340 -414h-46q-71 176 -333 413z" />
    <glyph glyph-name="arrowboth" unicode="&#x2194;" horiz-adv-x="2048" 
d="M1968 540v-45q-181 -79 -406 -337h-80q69 172 194 311h-1305q125 -139 194 -311h-80q-224 258 -406 337v45q182 79 406 338h80q-69 -172 -194 -311h1305q-125 139 -194 311h80q225 -259 406 -338z" />
    <glyph glyph-name="arrowupdn" unicode="&#x2195;" horiz-adv-x="1024" 
d="M489 1463h45q79 -182 337 -407v-80q-171 69 -311 195v-1306q140 126 311 194v-79q-258 -225 -337 -407h-45q-79 182 -337 407v79q171 -68 311 -194v1306q-140 -126 -311 -195v80q258 225 337 407z" />
    <glyph glyph-name="arrowupdnbse" unicode="&#x21a8;" horiz-adv-x="1024" 
d="M489 1463h45q79 -182 337 -407v-80q-171 69 -311 195v-1306q140 126 311 194v-79q-258 -225 -337 -407h-45q-79 182 -337 407v79q171 -68 311 -194v1306q-140 -126 -311 -195v80q258 225 337 407zM154 -522h717v-98h-717v98z" />
    <glyph glyph-name="orthogonal" unicode="&#x221f;" horiz-adv-x="2005" 
d="M362 1279h100v-1179h1181v-100h-1281v1279z" />
    <glyph glyph-name="intersection" unicode="&#x2229;" horiz-adv-x="1472" 
d="M302 0h-110v560q1 118 2.5 227.5t19.5 192t59.5 151t114.5 128.5t163.5 92.5t184.5 32.5q144 0 268.5 -70.5t186 -168t76 -206t14.5 -379.5v-560h-109v566q0 232 -12 333.5t-60 183t-149.5 138.5t-214.5 57q-114 0 -215.5 -58t-148 -137t-58.5 -181.5t-12 -335.5v-566z
" />
    <glyph glyph-name="equivalence" unicode="&#x2261;" horiz-adv-x="1229" 
d="M1102 1000v-123h-975v123h975zM1102 759v-123h-975v123h975zM1102 517v-123h-975v123h975z" />
    <glyph glyph-name="H22073" unicode="&#x25a1;" horiz-adv-x="1237" 
d="M146 944h944v-944h-944v944zM222 868v-792h792v792h-792z" />
    <glyph glyph-name="H18543" unicode="&#x25aa;" horiz-adv-x="726" 
d="M594 909v-464h-463v463z" />
    <glyph glyph-name="H18551" unicode="&#x25ab;" horiz-adv-x="726" 
d="M594 909v-464h-463v463zM518 833l-311 -1v-311h311v312z" />
    <glyph glyph-name="H18533" unicode="&#x25cf;" horiz-adv-x="1237" 
d="M619 1018q181 0 310.5 -129t129.5 -311t-129 -311.5t-311 -129.5t-311.5 129.5t-129.5 311.5q0 189 131.5 314.5t309.5 125.5z" />
    <glyph glyph-name="openbullet" unicode="&#x25e6;" horiz-adv-x="726" 
d="M363 928q101 0 176 -72t75 -179q0 -104 -73.5 -177.5t-177.5 -73.5t-177.5 73.5t-73.5 177.5t74 177.5t177 73.5zM363 852q-71 0 -123 -50t-52 -125q0 -73 51.5 -124t123.5 -51t123.5 51t51.5 124q0 74 -52 124.5t-123 50.5z" />
    <glyph glyph-name="commaaccent" unicode="&#xf004;" horiz-adv-x="655" 
d="M216 -651l-49 60q185 150 185 245q0 12 -4 34q-29 -13 -53 -13q-46 0 -72 28.5t-26 70.5q0 38 29.5 71.5t78.5 33.5q61 0 105 -49t44 -126q0 -68 -37.5 -145t-200.5 -210z" />
    <glyph glyph-name="Amacron" unicode="&#x100;" horiz-adv-x="1393" 
d="M617 1395h165l433 -1166q32 -88 64.5 -116.5t87.5 -28.5h22v-84h-497v84q24 2 47 2q48 0 63 10q29 19 29 48q0 21 -28 103l-92 270h-506l-108 -302q-17 -47 -17 -65q0 -20 10.5 -35t28.5 -22.5t58 -7.5q27 0 44 -1v-84h-417v84q58 0 83.5 11.5t44.5 37t50 107.5zM442 615
h431l-216 600zM1000 1637v-103h-606v103h606z" />
    <glyph glyph-name="amacron" unicode="&#x101;" horiz-adv-x="1188" 
d="M793 579v109q0 111 -62 158.5t-175 47.5q-56 0 -98 -13.5t-67.5 -37t-37.5 -53.5q-5 -11 -24 -85q-23 -90 -93 -90q-40 0 -64.5 26.5t-24.5 71.5q0 66 49 129.5t149.5 105t237.5 41.5q128 0 219 -39.5t134 -113.5q30 -51 30 -186v-385q0 -82 5 -107q11 -43 38.5 -64.5
t71.5 -21.5q46 0 110 22v-87q-83 -24 -149 -24q-71 0 -119.5 20t-79.5 58.5t-40 91.5q-120 -94 -217 -132t-196 -38q-138 0 -224 75t-86 176q0 61 31.5 116t96 97t202.5 74t383 58zM793 492q-232 -34 -287 -47q-109 -25 -156 -55t-67 -64.5t-20 -73.5t22.5 -75.5t63.5 -57.5
t87 -21q65 0 147 31t210 121v242zM888 1305v-103h-606v103h606z" />
    <glyph glyph-name="Ccircumflex" unicode="&#x108;" horiz-adv-x="1515" 
d="M1208 1395h72l127 -465l-93 -26q-75 161 -114 216q-64 89 -159.5 141t-210.5 52q-135 0 -248.5 -72.5t-184 -212.5t-70.5 -315q0 -180 71.5 -321t193.5 -217t263 -76q133 0 272 76t241 213l80 -55q-62 -92 -134 -156q-114 -103 -237 -152t-270 -49q-325 0 -528 241
q-168 200 -168 476q0 203 93 367.5t256.5 261.5t352.5 97q101 0 187.5 -27.5t175.5 -88.5zM804 1736l291 -191l-27 -51l-264 93l-263 -93l-27 51z" />
    <glyph glyph-name="ccircumflex" unicode="&#x109;" horiz-adv-x="1065" 
d="M958 279l64 -52q-188 -251 -451 -251q-205 0 -346 146t-141 363q0 145 65.5 260.5t182 179.5t267.5 64q172 0 287 -84.5t115 -170.5q0 -46 -27 -71t-61 -25q-18 0 -35 9t-35 29q-8 9 -29 56q-27 58 -42 78q-31 40 -76.5 63t-101.5 23q-85 0 -157.5 -47t-115 -138.5
t-42.5 -218.5q0 -197 105 -313q91 -100 217 -100q58 0 117.5 19.5t112.5 57.5q39 27 127 123zM577 1404l291 -191l-27 -51l-264 93l-263 -93l-27 51z" />
    <glyph glyph-name="Cdot" unicode="&#x10a;" horiz-adv-x="1515" 
d="M1208 1395h72l127 -465l-93 -26q-75 161 -114 216q-64 89 -159.5 141t-210.5 52q-135 0 -248.5 -72.5t-184 -212.5t-70.5 -315q0 -180 71.5 -321t193.5 -217t263 -76q133 0 272 76t241 213l80 -55q-62 -92 -134 -156q-114 -103 -237 -152t-270 -49q-325 0 -528 241
q-168 200 -168 476q0 203 93 367.5t256.5 261.5t352.5 97q101 0 187.5 -27.5t175.5 -88.5zM830 1707q51 0 87 -35.5t36 -85.5q0 -51 -36 -86.5t-87 -35.5t-87 35.5t-36 86.5q0 50 36 85.5t87 35.5z" />
    <glyph glyph-name="cdot" unicode="&#x10b;" horiz-adv-x="1065" 
d="M958 279l64 -52q-188 -251 -451 -251q-205 0 -346 146t-141 363q0 145 65.5 260.5t182 179.5t267.5 64q172 0 287 -84.5t115 -170.5q0 -46 -27 -71t-61 -25q-18 0 -35 9t-35 29q-8 9 -29 56q-27 58 -42 78q-31 40 -76.5 63t-101.5 23q-85 0 -157.5 -47t-115 -138.5
t-42.5 -218.5q0 -197 105 -313q91 -100 217 -100q58 0 117.5 19.5t112.5 57.5q39 27 127 123zM578 1376q51 0 87 -35.5t36 -85.5q0 -51 -36 -86.5t-87 -35.5t-87 35.5t-36 86.5q0 50 36 85.5t87 35.5z" />
    <glyph glyph-name="Emacron" unicode="&#x112;" horiz-adv-x="1475" 
d="M98 1395h1134l131 -367l-88 -33q-33 90 -72 141.5t-93.5 87.5t-110 48t-200.5 12h-338v-511h168q93 0 140.5 31.5t65.5 78.5q14 35 14 122v23h98v-612h-98v53q0 70 -10.5 101t-38.5 58.5t-60.5 37.5t-110.5 10h-168v-454q0 -71 6.5 -86.5t21.5 -22.5t82 -7h209
q175 0 273.5 42t173.5 129q59 68 113 192l91 -32l-156 -437h-1177v84h40q70 0 87 9q26 13 40 42q10 20 10 87v960q0 65 -13 87t-45 34q-17 7 -119 7v85zM1067 1637v-103h-606v103h606z" />
    <glyph glyph-name="emacron" unicode="&#x113;" horiz-adv-x="1065" 
d="M930 258l64 -52q-73 -87 -141.5 -138t-129.5 -71.5t-143 -20.5q-147 0 -250 60q-118 69 -181 180t-63 262q0 158 61 270t170.5 176.5t253.5 64.5q107 0 186 -33.5t134 -101t80 -154.5q14 -51 16 -132h-707q-3 -49 -3 -73q0 -126 44 -224.5t116.5 -145t164.5 -46.5
q78 0 151 36.5t177 142.5zM802 662q-15 92 -42.5 136t-78 70t-113.5 26t-118 -26t-91.5 -72t-63.5 -134h507zM855 1305v-103h-606v103h606z" />
    <glyph glyph-name="Ebreve" unicode="&#x114;" horiz-adv-x="1475" 
d="M98 1395h1134l131 -367l-88 -33q-33 90 -72 141.5t-93.5 87.5t-110 48t-200.5 12h-338v-511h168q93 0 140.5 31.5t65.5 78.5q14 35 14 122v23h98v-612h-98v53q0 70 -10.5 101t-38.5 58.5t-60.5 37.5t-110.5 10h-168v-454q0 -71 6.5 -86.5t21.5 -22.5t82 -7h209
q175 0 273.5 42t173.5 129q59 68 113 192l91 -32l-156 -437h-1177v84h40q70 0 87 9q26 13 40 42q10 20 10 87v960q0 65 -13 87t-45 34q-17 7 -119 7v85zM428 1702l48 38q128 -107 291 -107q80 0 160 31t128 76l46 -38q-46 -91 -139.5 -149t-200.5 -58q-73 0 -139 25.5
t-114.5 70.5t-79.5 111z" />
    <glyph glyph-name="ebreve" unicode="&#x115;" horiz-adv-x="1065" 
d="M930 258l64 -52q-73 -87 -141.5 -138t-129.5 -71.5t-143 -20.5q-147 0 -250 60q-118 69 -181 180t-63 262q0 158 61 270t170.5 176.5t253.5 64.5q107 0 186 -33.5t134 -101t80 -154.5q14 -51 16 -132h-707q-3 -49 -3 -73q0 -126 44 -224.5t116.5 -145t164.5 -46.5
q78 0 151 36.5t177 142.5zM802 662q-15 92 -42.5 136t-78 70t-113.5 26t-118 -26t-91.5 -72t-63.5 -134h507zM204 1370l48 38q128 -107 291 -107q80 0 160 31t128 76l46 -38q-46 -91 -139.5 -149t-200.5 -58q-73 0 -139 25.5t-114.5 70.5t-79.5 111z" />
    <glyph glyph-name="Edot" unicode="&#x116;" horiz-adv-x="1475" 
d="M98 1395h1134l131 -367l-88 -33q-33 90 -72 141.5t-93.5 87.5t-110 48t-200.5 12h-338v-511h168q93 0 140.5 31.5t65.5 78.5q14 35 14 122v23h98v-612h-98v53q0 70 -10.5 101t-38.5 58.5t-60.5 37.5t-110.5 10h-168v-454q0 -71 6.5 -86.5t21.5 -22.5t82 -7h209
q175 0 273.5 42t173.5 129q59 68 113 192l91 -32l-156 -437h-1177v84h40q70 0 87 9q26 13 40 42q10 20 10 87v960q0 65 -13 87t-45 34q-17 7 -119 7v85zM765 1707q51 0 87 -35.5t36 -85.5q0 -51 -36 -86.5t-87 -35.5t-87 35.5t-36 86.5q0 50 36 85.5t87 35.5z" />
    <glyph glyph-name="edot" unicode="&#x117;" horiz-adv-x="1065" 
d="M930 258l64 -52q-73 -87 -141.5 -138t-129.5 -71.5t-143 -20.5q-147 0 -250 60q-118 69 -181 180t-63 262q0 158 61 270t170.5 176.5t253.5 64.5q107 0 186 -33.5t134 -101t80 -154.5q14 -51 16 -132h-707q-3 -49 -3 -73q0 -126 44 -224.5t116.5 -145t164.5 -46.5
q78 0 151 36.5t177 142.5zM802 662q-15 92 -42.5 136t-78 70t-113.5 26t-118 -26t-91.5 -72t-63.5 -134h507zM553 1376q51 0 87 -35.5t36 -85.5q0 -51 -36 -86.5t-87 -35.5t-87 35.5t-36 86.5q0 50 36 85.5t87 35.5z" />
    <glyph glyph-name="Gcircumflex" unicode="&#x11c;" horiz-adv-x="1638" 
d="M1197 1395h73l114 -430l-90 -31q-90 204 -207 291t-265 87q-213 0 -357 -177t-144 -422q0 -176 73.5 -323t196.5 -224t261 -77q89 0 169.5 32.5t130.5 77.5q37 34 50 75t12 114v66q0 79 -18.5 112t-52.5 47q-26 11 -140 11v84h566v-84h-46q-59 0 -80.5 -11.5t-31.5 -35.5
t-10 -94v-483h-99l-53 122q-84 -61 -179 -95q-142 -51 -281 -51q-281 0 -481.5 206.5t-200.5 514.5q0 306 203 514t486 208q71 0 140 -14t126 -40q43 -19 100 -62zM813 1736l291 -191l-27 -51l-264 93l-263 -93l-27 51z" />
    <glyph glyph-name="gcircumflex" unicode="&#x11d;" horiz-adv-x="1106" 
d="M847 886q45 53 91.5 78t85.5 25q36 0 60.5 -21.5t24.5 -52.5q0 -32 -22 -54t-56 -22q-14 0 -38 5q-28 7 -47 7q-25 0 -52 -23q62 -75 62 -176q0 -138 -116 -239t-293 -101q-98 0 -197 41q-66 -47 -75 -58q-14 -17 -14 -36q0 -29 30 -48q38 -25 150 -42l289 -43
q96 -15 193 -50t140.5 -91t43.5 -134q0 -132 -122 -211q-155 -101 -460 -101q-160 0 -260 34t-155 96q-40 45 -40 93q0 62 40.5 121t187.5 168q-95 24 -136 56q-52 41 -52 93q0 26 9.5 48.5t31 45t78.5 62.5q36 25 51 37q-73 52 -110 116.5t-37 141.5q0 127 98 222
q119 116 321 116q90 0 157 -22.5t138 -80.5zM543 896q-98 0 -166 -71t-68 -176q0 -70 31 -126.5t87 -89t118 -32.5t118.5 33t87 89t30.5 126q0 110 -66.5 178.5t-171.5 68.5zM384 28q-96 -82 -127.5 -133t-31.5 -98q0 -40 31.5 -77.5t107.5 -61.5t191 -24q136 0 233.5 29.5
t139.5 75.5q31 36 31 85q0 42 -25.5 71t-96 50.5t-131.5 31.5zM576 1404l291 -191l-27 -51l-264 93l-263 -93l-27 51z" />
    <glyph glyph-name="Gdot" unicode="&#x120;" horiz-adv-x="1638" 
d="M1197 1395h73l114 -430l-90 -31q-90 204 -207 291t-265 87q-213 0 -357 -177t-144 -422q0 -176 73.5 -323t196.5 -224t261 -77q89 0 169.5 32.5t130.5 77.5q37 34 50 75t12 114v66q0 79 -18.5 112t-52.5 47q-26 11 -140 11v84h566v-84h-46q-59 0 -80.5 -11.5t-31.5 -35.5
t-10 -94v-483h-99l-53 122q-84 -61 -179 -95q-142 -51 -281 -51q-281 0 -481.5 206.5t-200.5 514.5q0 306 203 514t486 208q71 0 140 -14t126 -40q43 -19 100 -62zM838 1707q51 0 87 -35.5t36 -85.5q0 -51 -36 -86.5t-87 -35.5t-87 35.5t-36 86.5q0 50 36 85.5t87 35.5z" />
    <glyph glyph-name="gdot" unicode="&#x121;" horiz-adv-x="1106" 
d="M847 886q45 53 91.5 78t85.5 25q36 0 60.5 -21.5t24.5 -52.5q0 -32 -22 -54t-56 -22q-14 0 -38 5q-28 7 -47 7q-25 0 -52 -23q62 -75 62 -176q0 -138 -116 -239t-293 -101q-98 0 -197 41q-66 -47 -75 -58q-14 -17 -14 -36q0 -29 30 -48q38 -25 150 -42l289 -43
q96 -15 193 -50t140.5 -91t43.5 -134q0 -132 -122 -211q-155 -101 -460 -101q-160 0 -260 34t-155 96q-40 45 -40 93q0 62 40.5 121t187.5 168q-95 24 -136 56q-52 41 -52 93q0 26 9.5 48.5t31 45t78.5 62.5q36 25 51 37q-73 52 -110 116.5t-37 141.5q0 127 98 222
q119 116 321 116q90 0 157 -22.5t138 -80.5zM543 896q-98 0 -166 -71t-68 -176q0 -70 31 -126.5t87 -89t118 -32.5t118.5 33t87 89t30.5 126q0 110 -66.5 178.5t-171.5 68.5zM384 28q-96 -82 -127.5 -133t-31.5 -98q0 -40 31.5 -77.5t107.5 -61.5t191 -24q136 0 233.5 29.5
t139.5 75.5q31 36 31 85q0 42 -25.5 71t-96 50.5t-131.5 31.5zM590 1376q51 0 87 -35.5t36 -85.5q0 -51 -36 -86.5t-87 -35.5t-87 35.5t-36 86.5q0 50 36 85.5t87 35.5z" />
    <glyph glyph-name="Gcedilla" unicode="&#x122;" horiz-adv-x="1638" 
d="M1197 1395h73l114 -430l-90 -31q-90 204 -207 291t-265 87q-213 0 -357 -177t-144 -422q0 -176 73.5 -323t196.5 -224t261 -77q89 0 169.5 32.5t130.5 77.5q37 34 50 75t12 114v66q0 79 -18.5 112t-52.5 47q-26 11 -140 11v84h566v-84h-46q-59 0 -80.5 -11.5t-31.5 -35.5
t-10 -94v-483h-99l-53 122q-84 -61 -179 -95q-142 -51 -281 -51q-281 0 -481.5 206.5t-200.5 514.5q0 306 203 514t486 208q71 0 140 -14t126 -40q43 -19 100 -62zM809 0l-26 -87q41 3 49 3q56 0 104 -22q36 -16 56.5 -49.5t20.5 -79.5q0 -78 -51.5 -126.5t-138.5 -48.5
t-150 43q-47 31 -47 72q0 22 14.5 37t37.5 15t38 -10.5t26 -39.5q15 -34 25 -43q23 -18 54 -18q40 0 68 30.5t28 79.5q0 51 -30 78t-93 27q-41 0 -98 -20l51 159h62z" />
    <glyph glyph-name="gcedilla" unicode="&#x123;" horiz-adv-x="1106" 
d="M847 886q45 53 91.5 78t85.5 25q36 0 60.5 -21.5t24.5 -52.5q0 -32 -22 -54t-56 -22q-14 0 -38 5q-28 7 -47 7q-25 0 -52 -23q62 -75 62 -176q0 -138 -116 -239t-293 -101q-98 0 -197 41q-66 -47 -75 -58q-14 -17 -14 -36q0 -29 30 -48q38 -25 150 -42l289 -43
q96 -15 193 -50t140.5 -91t43.5 -134q0 -132 -122 -211q-155 -101 -460 -101q-160 0 -260 34t-155 96q-40 45 -40 93q0 62 40.5 121t187.5 168q-95 24 -136 56q-52 41 -52 93q0 26 9.5 48.5t31 45t78.5 62.5q36 25 51 37q-73 52 -110 116.5t-37 141.5q0 127 98 222
q119 116 321 116q90 0 157 -22.5t138 -80.5zM543 896q-98 0 -166 -71t-68 -176q0 -70 31 -126.5t87 -89t118 -32.5t118.5 33t87 89t30.5 126q0 110 -66.5 178.5t-171.5 68.5zM384 28q-96 -82 -127.5 -133t-31.5 -98q0 -40 31.5 -77.5t107.5 -61.5t191 -24q136 0 233.5 29.5
t139.5 75.5q31 36 31 85q0 42 -25.5 71t-96 50.5t-131.5 31.5zM599 1522l41 -48q-113 -99 -113 -164q0 -9 2 -23q27 11 50 11q46 0 66.5 -25.5t20.5 -54.5q0 -34 -28 -59.5t-69 -25.5q-55 0 -94 40t-39 99q0 133 163 250z" />
    <glyph glyph-name="Hcircumflex" unicode="&#x124;" horiz-adv-x="1638" 
d="M97 1395h538v-85h-37q-64 0 -91.5 -12t-38.5 -42q-9 -22 -9 -93v-389h723v379q0 77 -5 93q-8 32 -34.5 48t-80.5 16h-55v85h534v-85h-48q-56 0 -79.5 -12.5t-33 -34t-9.5 -92.5v-950q0 -79 10 -100.5t40 -30.5q18 -6 120 -6v-84h-534v84h39q74 0 98.5 10t31.5 32
q6 17 6 107v433h-723v-445q0 -79 10.5 -101t40.5 -30q22 -6 125 -6v-84h-538v84h34q78 0 97.5 8.5t31 32.5t11.5 85v961q0 65 -10.5 90t-33 37t-74.5 12h-56v85zM818 1736l291 -191l-27 -51l-264 93l-263 -93l-27 51z" />
    <glyph glyph-name="hcircumflex" unicode="&#x125;" horiz-adv-x="1352" 
d="M74 1297v86q97 13 151 30.5t113 53.5h78v-661q113 95 214 139t193 44q134 0 221 -80q86 -80 86 -195v-491q0 -73 11.5 -95.5t38.5 -33t121 -10.5v-84h-516v84h38q73 0 96 11.5t33.5 38t10.5 109.5v341q0 113 -8 147q-15 58 -62 93t-120 35q-82 0 -171.5 -40.5
t-185.5 -121.5v-501q0 -56 10 -75t33 -28t92 -9h41v-84h-518v84h31q73 0 106 18q18 9 26 35t8 144v1016h-171zM649 1785l291 -191l-27 -51l-264 93l-263 -93l-27 51z" />
    <glyph glyph-name="Hbar" unicode="&#x126;" horiz-adv-x="1638" 
d="M459 1121h723v32q0 77 -6.5 101t-33 40t-80.5 16h-55v85h534v-85h-48q-75 0 -98.5 -26.5t-23.5 -112.5v-50h158v-97h-158v-803q0 -95 21.5 -116t117.5 -21h31v-84h-534v84h39q74 0 98.5 10t31 30t6.5 109v433h-723v-445q0 -94 21.5 -115.5t117.5 -21.5h37v-84h-538v84h34
q89 0 114.5 19t25.5 107v814h-162v97h162v50q0 87 -24 113t-94 26h-56v85h538v-85h-37q-88 0 -113.5 -27.5t-25.5 -119.5v-42zM459 1024v-250h723v250h-723z" />
    <glyph glyph-name="hbar" unicode="&#x127;" horiz-adv-x="1352" 
d="M414 1185h368v-82h-368v-297q216 183 405 183q99 0 171.5 -40.5t106 -100.5t33.5 -183v-442q0 -87 24.5 -113t105.5 -26h41v-84h-519v84h39q92 0 116 26.5t24 132.5v341q0 107 -12.5 158.5t-60.5 84t-118 32.5q-164 0 -356 -162v-461q0 -105 19 -128.5t116 -23.5h40v-84
h-515v84h31q103 0 121.5 30.5t18.5 166.5v822h-171v82h171v113h-171v85q166 19 264 84h76v-282z" />
    <glyph glyph-name="Itilde" unicode="&#x128;" horiz-adv-x="696" 
d="M81 1395h534v-85h-41q-58 0 -84 -16t-38 -45.5t-12 -114.5v-899q0 -68 13 -96.5t36.5 -41.5t84.5 -13h41v-84h-534v84h44q59 0 83.5 13.5t35.5 39t11 98.5v920q0 77 -11 103.5t-35.5 39t-83.5 12.5h-44v85zM663 1657q-17 -66 -74.5 -110t-128.5 -44q-23 0 -42 4t-90 26
q-109 34 -155 34q-44 0 -81 -41l-59 20q19 63 68.5 101.5t108.5 38.5q60 0 194 -38q66 -18 101 -18q64 0 98 45z" />
    <glyph glyph-name="itilde" unicode="&#x129;" horiz-adv-x="614" 
d="M61 821v83q83 10 139.5 28t128.5 57h73v-756q0 -77 5 -93q9 -30 36 -44q21 -12 83 -12h47v-84h-512v84h41q67 0 90 12t32.5 34t9.5 103v588h-173zM571 1325q-17 -66 -74.5 -110t-128.5 -44q-23 0 -42 4t-90 26q-109 34 -155 34q-44 0 -81 -41l-59 20q19 63 68.5 101.5
t108.5 38.5q60 0 194 -38q66 -18 101 -18q64 0 98 45z" />
    <glyph glyph-name="Imacron" unicode="&#x12a;" horiz-adv-x="696" 
d="M81 1395h534v-85h-41q-58 0 -84 -16t-38 -45.5t-12 -114.5v-899q0 -68 13 -96.5t36.5 -41.5t84.5 -13h41v-84h-534v84h44q59 0 83.5 13.5t35.5 39t11 98.5v920q0 77 -11 103.5t-35.5 39t-83.5 12.5h-44v85zM651 1637v-103h-606v103h606z" />
    <glyph glyph-name="imacron" unicode="&#x12b;" horiz-adv-x="614" 
d="M61 821v83q83 10 139.5 28t128.5 57h73v-756q0 -77 5 -93q9 -30 36 -44q21 -12 83 -12h47v-84h-512v84h41q67 0 90 12t32.5 34t9.5 103v588h-173zM571 1305v-103h-606v103h606z" />
    <glyph glyph-name="Ibreve" unicode="&#x12c;" horiz-adv-x="696" 
d="M81 1395h534v-85h-41q-58 0 -84 -16t-38 -45.5t-12 -114.5v-899q0 -68 13 -96.5t36.5 -41.5t84.5 -13h41v-84h-534v84h44q59 0 83.5 13.5t35.5 39t11 98.5v920q0 77 -11 103.5t-35.5 39t-83.5 12.5h-44v85zM11 1702l48 38q128 -107 291 -107q80 0 160 31t128 76l46 -38
q-46 -91 -139.5 -149t-200.5 -58q-73 0 -139 25.5t-114.5 70.5t-79.5 111z" />
    <glyph glyph-name="ibreve" unicode="&#x12d;" horiz-adv-x="614" 
d="M61 821v83q83 10 139.5 28t128.5 57h73v-756q0 -77 5 -93q9 -30 36 -44q21 -12 83 -12h47v-84h-512v84h41q67 0 90 12t32.5 34t9.5 103v588h-173zM-69 1370l48 38q128 -107 291 -107q80 0 160 31t128 76l46 -38q-46 -91 -139.5 -149t-200.5 -58q-73 0 -139 25.5
t-114.5 70.5t-79.5 111z" />
    <glyph glyph-name="Iogonek" unicode="&#x12e;" horiz-adv-x="696" 
d="M81 1395h534v-85h-41q-58 0 -84 -16t-38 -45.5t-12 -114.5v-899q0 -68 13 -96.5t36.5 -41.5t84.5 -13h41v-84h-534v84h44q59 0 83.5 13.5t35.5 39t11 98.5v920q0 77 -11 103.5t-35.5 39t-83.5 12.5h-44v85zM388 0q-38 -28 -65 -71q-18 -29 -18 -59q0 -36 25 -60.5
t59 -24.5q31 0 72 19t79 56l33 -43q-70 -61 -113 -82q-65 -32 -120 -32q-56 0 -93.5 39t-37.5 95q0 45 33 96q23 35 70 67h76z" />
    <glyph glyph-name="iogonek" unicode="&#x12f;" horiz-adv-x="614" 
d="M321 1440q48 0 82 -33.5t34 -81.5t-34 -82t-82 -34t-82 34t-34 82t34 81.5t82 33.5zM66 821v83q83 10 139.5 28t128.5 57h73v-802q0 -42 12 -63t33.5 -30.5t78.5 -9.5h47v-84h-512v84h41q67 0 90 12t32.5 34t9.5 103v588h-173zM376 0q-38 -28 -65 -71q-18 -29 -18 -59
q0 -36 25 -60.5t59 -24.5q31 0 72 19t79 56l33 -43q-70 -61 -113 -82q-65 -32 -120 -32q-56 0 -93.5 39t-37.5 95q0 45 33 96q23 35 70 67h76z" />
    <glyph glyph-name="Jcircumflex" unicode="&#x134;" horiz-adv-x="1229" 
d="M614 1395h534v-85h-53q-54 0 -76.5 -11t-34.5 -35t-12 -72v-737q0 -167 -54 -261.5t-172.5 -156t-278.5 -61.5q-213 0 -342.5 113t-129.5 263q0 75 34 116t85 41q40 0 66.5 -30t26.5 -78q0 -14 -8 -57q-9 -45 -9 -63q0 -74 75.5 -134.5t195.5 -60.5q99 0 178 44
t113.5 110t34.5 191v729q0 74 -11.5 99.5t-36.5 38t-92 12.5h-33v85zM880 1736l291 -191l-27 -51l-264 93l-263 -93l-27 51z" />
    <glyph glyph-name="jcircumflex" unicode="&#x135;" horiz-adv-x="614" 
d="M209 1404l291 -191l-28 -51l-263 93l-263 -93l-27 51zM78 820v85q130 9 269 84h73v-1089q0 -172 -102 -272t-262 -100q-98 0 -167 41.5t-69 96.5q0 39 25.5 65.5t66.5 26.5t91 -50q76 -76 124 -76q125 0 125 203v985h-174z" />
    <glyph glyph-name="Kcedilla" unicode="&#x136;" horiz-adv-x="1475" 
d="M103 1395h538v-85h-38q-66 0 -93 -16t-38 -50q-9 -25 -9 -82v-527l524 555q41 44 48.5 57t7.5 27q0 18 -17.5 27t-75.5 9h-32v85h500v-85q-59 1 -107 -13t-76 -35q-61 -45 -87 -72l-374 -383l427 -566q58 -77 92 -105.5t70 -40t112 -11.5v-84h-592v84h35q59 0 70 3
q17 4 27 16t10 25q0 26 -69 119l-315 428l-178 -184v-267q0 -69 14 -94t43 -37q23 -9 121 -9v-84h-538v84h42q63 0 86 12.5t35.5 41.5t12.5 103v921q0 73 -12 99.5t-35 37.5t-98 11h-31v85zM581 -114q95 29 156 29q79 0 124 -42t45 -108q0 -76 -49.5 -124t-132.5 -48
q-76 0 -128.5 35t-52.5 78q0 51 48 51q41 0 60 -45q17 -41 31 -53.5t42 -12.5q39 0 62.5 34.5t23.5 74.5q0 106 -121 106q-44 0 -119 -27z" />
    <glyph glyph-name="kcedilla" unicode="&#x137;" horiz-adv-x="1270" 
d="M60 1301v82q128 10 265 84h77v-998l367 292q88 70 88 93q0 14 -19 22q-12 5 -59 5h-53v84h507v-84q-85 0 -136 -17.5t-118 -68.5l-290 -221l342 -374q49 -54 80 -76t62 -30.5t97 -9.5v-84h-532v84h41q61 0 77 9.5t16 25.5t-30 46q-5 5 -11 12l-266 306l-163 -125v-131
q0 -73 11 -96t34.5 -35t90.5 -12h37v-84h-515v84q87 1 107 7q35 11 50.5 39t15.5 108v1063h-173zM479 -114q95 29 156 29q79 0 124 -42t45 -108q0 -76 -49.5 -124t-132.5 -48q-76 0 -128.5 35t-52.5 78q0 51 48 51q41 0 60 -45q17 -41 31 -53.5t42 -12.5q39 0 62.5 34.5
t23.5 74.5q0 106 -121 106q-44 0 -119 -27z" />
    <glyph glyph-name="kgreenlandic" unicode="&#x138;" horiz-adv-x="1282" 
d="M72 820v85q126 8 265 84h77v-520l367 292q87 69 87 94q0 26 -77 26h-53v84h507v-84q-85 0 -135 -17t-119 -69l-290 -221l330 -361q78 -86 121.5 -107.5t129.5 -21.5v-84h-532v84h41q93 0 93 32q0 14 -41 61l-266 306l-163 -125v-131q0 -95 26 -119t110 -24h37v-84h-515
v84q87 1 114.5 9.5t43 36.5t15.5 108v582h-173z" />
    <glyph glyph-name="Lcedilla" unicode="&#x13b;" horiz-adv-x="1229" 
d="M94 1395h541v-85h-50q-58 0 -82 -11t-35 -32t-11 -75v-973q0 -67 5 -80q6 -18 26 -26q14 -6 81 -6h75q129 0 224 37.5t164 109t133 213.5l89 -30l-156 -437h-1004v84h44q64 0 86 11t34 36.5t12 87.5v949q0 72 -11 96.5t-32 35t-89 10.5h-44v85zM458 -114q95 29 156 29
q79 0 124 -42t45 -108q0 -76 -49.5 -124t-132.5 -48q-76 0 -128.5 35t-52.5 78q0 51 48 51q41 0 60 -45q17 -41 31 -53.5t42 -12.5q39 0 62.5 34.5t23.5 74.5q0 106 -121 106q-44 0 -119 -27z" />
    <glyph glyph-name="lcedilla" unicode="&#x13c;" horiz-adv-x="614" 
d="M63 1301v82q136 10 265 84h74v-1231q0 -78 10 -98q13 -28 38 -41t96 -13h32v-84h-515v84h52q49 0 73.5 15t35 41t10.5 104v1057h-171zM157 -114q95 29 156 29q79 0 124 -42t45 -108q0 -76 -49.5 -124t-132.5 -48q-76 0 -128.5 35t-52.5 78q0 51 48 51q41 0 60 -45
q17 -41 31 -53.5t42 -12.5q39 0 62.5 34.5t23.5 74.5q0 106 -121 106q-44 0 -119 -27z" />
    <glyph glyph-name="Ncedilla" unicode="&#x145;" horiz-adv-x="1515" 
d="M88 1395h428l635 -1046v796q0 71 -14 102t-42 47t-83 16h-36v85h467v-85h-25q-62 0 -84 -10q-31 -14 -46.5 -51t-15.5 -104v-1145h-121l-765 1257v-996q0 -83 5 -101q7 -23 25.5 -42t43.5 -26t101 -8v-84h-473v84h25q72 0 97.5 14t39.5 48t14 115v884q0 83 -4 101
q-9 34 -34.5 49t-101.5 15h-36v85zM627 -114q95 29 156 29q79 0 124 -42t45 -108q0 -76 -49.5 -124t-132.5 -48q-76 0 -128.5 35t-52.5 78q0 51 48 51q41 0 60 -45q17 -41 31 -53.5t42 -12.5q39 0 62.5 34.5t23.5 74.5q0 106 -121 106q-44 0 -119 -27z" />
    <glyph glyph-name="ncedilla" unicode="&#x146;" horiz-adv-x="1352" 
d="M75 821v84q89 10 133 24t127 60h72v-190q132 111 225.5 150.5t189.5 39.5q82 0 145 -27.5t102.5 -74.5t52.5 -107q8 -37 8 -112v-440q0 -79 11.5 -101.5t36.5 -32.5t123 -10v-84h-515v84h28q72 0 98 13t37.5 38t11.5 102v368q0 114 -18.5 158t-63 71.5t-112.5 27.5
q-81 0 -173 -41.5t-178 -122.5v-461q0 -78 11.5 -104t37.5 -39q18 -10 96 -10h29v-84h-515v84h25q74 0 101 12.5t38 44.5q6 16 6 110v570h-170zM519 -114q95 29 156 29q79 0 124 -42t45 -108q0 -76 -49.5 -124t-132.5 -48q-76 0 -128.5 35t-52.5 78q0 51 48 51q41 0 60 -45
q17 -41 31 -53.5t42 -12.5q39 0 62.5 34.5t23.5 74.5q0 106 -121 106q-44 0 -119 -27z" />
    <glyph glyph-name="Eng" unicode="&#x14a;" horiz-adv-x="1644" 
d="M459 1026v-805q0 -93 21.5 -115t117.5 -22h37v-84h-538v84h34q89 0 114.5 19.5t25.5 106.5v961q0 87 -24 113t-94 26h-56v85h362v-215q191 239 477 239q275 0 437.5 -204t162.5 -532q0 -308 -135 -507.5t-367 -199.5q-168 0 -257.5 100.5t-89.5 226.5q0 66 35 105.5
t85 39.5q94 0 94 -96q0 -26 -9 -63q-10 -46 -10 -71q0 -142 155 -142q283 0 283 552q0 301 -106.5 485.5t-310.5 184.5q-271 0 -444 -272z" />
    <glyph glyph-name="eng" unicode="&#x14b;" horiz-adv-x="1323" 
d="M1128 668v-768q0 -172 -102 -272t-262 -100q-104 0 -170 44t-66 94q0 39 25.5 65.5t66.5 26.5t91 -50q76 -76 124 -76q124 0 124 203v770q0 110 -17 155t-62.5 73.5t-115.5 28.5q-175 0 -350 -164v-461q0 -70 9.5 -99t33.5 -41.5t102 -12.5h28v-84h-512v84h25
q73 0 100 12.5t36 36t9 118.5v569h-170v85q136 11 260 84h70v-190q218 190 415 190q107 0 180.5 -46t100.5 -107t27 -168z" />
    <glyph glyph-name="Omacron" unicode="&#x14c;" horiz-adv-x="1638" 
d="M839 1419q191 0 345 -92q167 -99 256.5 -257t89.5 -366q0 -322 -200 -525t-510 -203q-346 0 -548 244q-165 199 -165 476q0 206 93 369.5t264 258.5t375 95zM839 1311q-156 0 -268 -71.5t-179.5 -210.5t-67.5 -343q0 -195 66.5 -330.5t178.5 -207.5t252 -72
q139 0 246 70.5t177 222t70 336.5q0 188 -70 344q-60 134 -159 198t-246 64zM1122 1637v-103h-606v103h606z" />
    <glyph glyph-name="omacron" unicode="&#x14d;" horiz-adv-x="1147" 
d="M579 989q147 0 254.5 -61t169.5 -178t62 -267t-63.5 -267t-173 -178.5t-261.5 -61.5q-242 0 -363.5 151t-121.5 355q0 149 63 264.5t176.5 179t257.5 63.5zM571 892q-114 0 -193 -90q-100 -112 -100 -326q0 -206 85 -314q77 -96 209 -96q85 0 151.5 45t107.5 143.5
t41 231.5q0 130 -44 233q-34 82 -102.5 127.5t-154.5 45.5zM877 1305v-103h-606v103h606z" />
    <glyph glyph-name="Obreve" unicode="&#x14e;" horiz-adv-x="1638" 
d="M839 1419q191 0 345 -92q167 -99 256.5 -257t89.5 -366q0 -322 -200 -525t-510 -203q-346 0 -548 244q-165 199 -165 476q0 206 93 369.5t264 258.5t375 95zM839 1311q-156 0 -268 -71.5t-179.5 -210.5t-67.5 -343q0 -195 66.5 -330.5t178.5 -207.5t252 -72
q139 0 246 70.5t177 222t70 336.5q0 188 -70 344q-60 134 -159 198t-246 64zM482 1702l48 38q128 -107 291 -107q80 0 160 31t128 76l46 -38q-46 -91 -139.5 -149t-200.5 -58q-73 0 -139 25.5t-114.5 70.5t-79.5 111z" />
    <glyph glyph-name="obreve" unicode="&#x14f;" horiz-adv-x="1147" 
d="M579 989q147 0 254.5 -61t169.5 -178t62 -267t-63.5 -267t-173 -178.5t-261.5 -61.5q-242 0 -363.5 151t-121.5 355q0 149 63 264.5t176.5 179t257.5 63.5zM571 892q-114 0 -193 -90q-100 -112 -100 -326q0 -206 85 -314q77 -96 209 -96q85 0 151.5 45t107.5 143.5
t41 231.5q0 130 -44 233q-34 82 -102.5 127.5t-154.5 45.5zM237 1370l48 38q128 -107 291 -107q80 0 160 31t128 76l46 -38q-46 -91 -139.5 -149t-200.5 -58q-73 0 -139 25.5t-114.5 70.5t-79.5 111z" />
    <glyph glyph-name="Rcedilla" unicode="&#x156;" horiz-adv-x="1475" 
d="M99 1395h720q205 0 310 -42.5t161.5 -123t56.5 -186.5q0 -109 -55 -193.5t-158.5 -133t-274.5 -50.5l368 -450q45 -56 59 -69q35 -31 73.5 -47t86.5 -16h25v-84h-318l-512 666h-179v-430q0 -72 5 -90q11 -34 35.5 -48t95.5 -14h36v-84h-535v84h48q54 0 72.5 7t33 24.5
t20.5 44.5q2 11 3 101v914q0 60 -12 86t-33.5 37.5t-74.5 11.5h-57v85zM462 1286v-525h287q146 0 205 18q84 24 132.5 88t48.5 163q0 84 -35 141.5t-95.5 86t-180.5 28.5h-362zM605 -114q95 29 156 29q79 0 124 -42t45 -108q0 -76 -49.5 -124t-132.5 -48q-76 0 -128.5 35
t-52.5 78q0 51 48 51q41 0 60 -45q17 -41 31 -53.5t42 -12.5q39 0 62.5 34.5t23.5 74.5q0 106 -121 106q-44 0 -119 -27z" />
    <glyph glyph-name="rcedilla" unicode="&#x157;" horiz-adv-x="901" 
d="M72 822v82q73 6 130 24.5t130 60.5h75v-189q71 87 165 138t169 51q74 0 117 -35t43 -85q0 -36 -28.5 -63.5t-68.5 -27.5q-18 0 -31 5t-38 22q-55 36 -92 36q-50 0 -110 -42q-76 -54 -119 -106v-461q0 -60 6.5 -81.5t21.5 -37t37 -22.5t77 -7h33v-84h-517v84h43
q61 0 80 11q26 15 38.5 41.5t12.5 95.5v590h-174zM294 -114q95 29 156 29q79 0 124 -42t45 -108q0 -76 -49.5 -124t-132.5 -48q-76 0 -128.5 35t-52.5 78q0 51 48 51q41 0 60 -45q17 -41 31 -53.5t42 -12.5q39 0 62.5 34.5t23.5 74.5q0 106 -121 106q-44 0 -119 -27z" />
    <glyph glyph-name="Scircumflex" unicode="&#x15c;" horiz-adv-x="1352" 
d="M1036 1395h72l107 -430l-92 -28q-88 181 -234 285q-120 87 -266 87q-88 0 -158 -31.5t-105 -81.5t-35 -102q0 -47 27 -91t82 -77.5t180 -70.5l261 -77q48 -14 139.5 -54t142.5 -84.5t80 -109t29 -139.5q0 -166 -145.5 -290.5t-376.5 -124.5q-119 0 -213 34.5t-203 122.5
l-46 -133h-70l-93 501l93 19q51 -139 135.5 -236t187 -146.5t208.5 -49.5q144 0 252 87q90 73 90 172q0 91 -65 149q-66 58 -236 108l-250 72q-210 61 -296 156t-86 218q0 96 56 177.5t172 136.5t254 55q116 0 222 -40q75 -28 138 -80zM679 1736l291 -191l-27 -51l-264 93
l-263 -93l-27 51z" />
    <glyph glyph-name="scircumflex" unicode="&#x15d;" horiz-adv-x="1065" 
d="M751 965h70l90 -306l-90 -30q-54 123 -151.5 193.5t-197.5 70.5q-77 0 -125 -37.5t-48 -86.5q0 -46 35 -79q34 -34 153 -77l195 -69q165 -59 225 -126q59 -68 59 -154q0 -73 -44 -140.5t-127.5 -107.5t-191.5 -40q-168 0 -288 96l-21 -72h-71l-125 327l91 36
q91 -144 172 -204q113 -85 244 -85q87 0 143 46.5t56 103.5q0 47 -35 86q-36 38 -138 74l-231 84q-149 54 -207 118t-58 147q0 101 94.5 178.5t240.5 77.5q76 0 136 -19.5t118 -64.5zM531 1404l291 -191l-27 -51l-264 93l-263 -93l-27 51z" />
    <glyph glyph-name="Tbar" unicode="&#x166;" horiz-adv-x="1270" 
d="M728 783h415v-96h-415v-448q0 -105 28.5 -130t148.5 -25v-84h-538v84q90 0 117.5 8.5t42 37t14.5 101.5v456h-416v96h416v436q0 52 -12 65.5t-78 13.5q-155 0 -244.5 -85t-135.5 -213l-90 32l144 410h70l10 -47h856l8 47h74l146 -410l-90 -32q-61 156 -149.5 226.5
t-225.5 70.5q-72 0 -84 -13t-12 -79v-422z" />
    <glyph glyph-name="tbar" unicode="&#x167;" horiz-adv-x="778" 
d="M408 585h297v-82h-297v-241q0 -112 27 -148.5t106 -36.5q85 0 209 85v-97q-127 -89 -260 -89q-90 0 -150 32t-79.5 80t-19.5 162v253h-175v82h175v280h-175v84q232 43 271 356h71v-340h297v-100h-297v-280z" />
    <glyph glyph-name="Utilde" unicode="&#x168;" horiz-adv-x="1597" 
d="M78 1395h539v-85h-36q-66 0 -94 -13q-22 -10 -33 -34t-11 -96v-628q0 -168 40.5 -249t135 -136t207.5 -55q114 0 216 59t143 140t41 256v604q0 66 -13 95t-39.5 43t-82.5 14h-39v85h467v-85h-32q-79 0 -108.5 -30t-29.5 -113v-643q0 -176 -66 -293.5t-192 -186
t-293 -68.5q-158 0 -289 70t-192.5 174.5t-61.5 262.5v684q0 66 -12 92.5t-35 38.5t-80 12h-50v85zM1114 1657q-17 -66 -74.5 -110t-128.5 -44q-23 0 -42 4t-90 26q-109 34 -155 34q-44 0 -81 -41l-59 20q19 63 68.5 101.5t108.5 38.5q60 0 194 -38q66 -18 101 -18
q64 0 98 45z" />
    <glyph glyph-name="utilde" unicode="&#x169;" horiz-adv-x="1393" 
d="M20 965l379 15v-644q0 -85 23.5 -135t72 -77.5t113.5 -27.5q80 0 181.5 43t202.5 128v466q0 74 -11 97t-39 37t-88 14h-73v84l379 15v-746q0 -72 12 -99.5t35.5 -39t94.5 -11.5h31v-84l-332 -17v185q-137 -109 -239 -150.5t-207 -41.5q-78 0 -135.5 21t-101 63t-66.5 101
t-23 126v455q0 61 -11 85.5t-36.5 39t-69.5 14.5h-92v84zM992 1325q-17 -66 -74.5 -110t-128.5 -44q-23 0 -42 4t-90 26q-109 34 -155 34q-44 0 -81 -41l-59 20q19 63 68.5 101.5t108.5 38.5q60 0 194 -38q66 -18 101 -18q64 0 98 45z" />
    <glyph glyph-name="Umacron" unicode="&#x16a;" horiz-adv-x="1597" 
d="M78 1395h539v-85h-36q-66 0 -94 -13q-22 -10 -33 -34t-11 -96v-628q0 -168 40.5 -249t135 -136t207.5 -55q114 0 216 59t143 140t41 256v604q0 66 -13 95t-39.5 43t-82.5 14h-39v85h467v-85h-32q-79 0 -108.5 -30t-29.5 -113v-643q0 -176 -66 -293.5t-192 -186
t-293 -68.5q-158 0 -289 70t-192.5 174.5t-61.5 262.5v684q0 66 -12 92.5t-35 38.5t-80 12h-50v85zM1102 1637v-103h-606v103h606z" />
    <glyph glyph-name="umacron" unicode="&#x16b;" horiz-adv-x="1393" 
d="M20 965l379 15v-644q0 -85 23.5 -135t72 -77.5t113.5 -27.5q80 0 181.5 43t202.5 128v466q0 74 -11 97t-39 37t-88 14h-73v84l379 15v-746q0 -72 12 -99.5t35.5 -39t94.5 -11.5h31v-84l-332 -17v185q-137 -109 -239 -150.5t-207 -41.5q-78 0 -135.5 21t-101 63t-66.5 101
t-23 126v455q0 61 -11 85.5t-36.5 39t-69.5 14.5h-92v84zM980 1305v-103h-606v103h606z" />
    <glyph glyph-name="Ubreve" unicode="&#x16c;" horiz-adv-x="1597" 
d="M78 1395h539v-85h-36q-66 0 -94 -13q-22 -10 -33 -34t-11 -96v-628q0 -168 40.5 -249t135 -136t207.5 -55q114 0 216 59t143 140t41 256v604q0 66 -13 95t-39.5 43t-82.5 14h-39v85h467v-85h-32q-79 0 -108.5 -30t-29.5 -113v-643q0 -176 -66 -293.5t-192 -186
t-293 -68.5q-158 0 -289 70t-192.5 174.5t-61.5 262.5v684q0 66 -12 92.5t-35 38.5t-80 12h-50v85zM487 1702l48 38q128 -107 291 -107q80 0 160 31t128 76l46 -38q-46 -91 -139.5 -149t-200.5 -58q-73 0 -139 25.5t-114.5 70.5t-79.5 111z" />
    <glyph glyph-name="ubreve" unicode="&#x16d;" horiz-adv-x="1393" 
d="M20 965l379 15v-644q0 -85 23.5 -135t72 -77.5t113.5 -27.5q80 0 181.5 43t202.5 128v466q0 74 -11 97t-39 37t-88 14h-73v84l379 15v-746q0 -72 12 -99.5t35.5 -39t94.5 -11.5h31v-84l-332 -17v185q-137 -109 -239 -150.5t-207 -41.5q-78 0 -135.5 21t-101 63t-66.5 101
t-23 126v455q0 61 -11 85.5t-36.5 39t-69.5 14.5h-92v84zM340 1370l48 38q128 -107 291 -107q80 0 160 31t128 76l46 -38q-46 -91 -139.5 -149t-200.5 -58q-73 0 -139 25.5t-114.5 70.5t-79.5 111z" />
    <glyph glyph-name="Uogonek" unicode="&#x172;" horiz-adv-x="1597" 
d="M78 1395h539v-85h-36q-66 0 -94 -13q-22 -10 -33 -34t-11 -96v-628q0 -168 40.5 -249t135 -136t207.5 -55q114 0 216 59t143 140t41 256v604q0 66 -13 95t-39.5 43t-82.5 14h-39v85h467v-85h-32q-79 0 -108.5 -30t-29.5 -113v-643q0 -176 -66 -293.5t-192 -186
t-293 -68.5q-158 0 -289 70t-192.5 174.5t-61.5 262.5v684q0 66 -12 92.5t-35 38.5t-80 12h-50v85zM884 0q-38 -28 -65 -71q-18 -29 -18 -59q0 -36 25 -60.5t59 -24.5q31 0 72 19t79 56l33 -43q-70 -61 -113 -82q-65 -32 -120 -32q-56 0 -93.5 39t-37.5 95q0 45 33 96
q23 35 70 67h76z" />
    <glyph glyph-name="uogonek" unicode="&#x173;" horiz-adv-x="1393" 
d="M20 965l379 15v-644q0 -85 23.5 -135t72 -77.5t113.5 -27.5q80 0 181.5 43t202.5 128v466q0 74 -11 97t-39 37t-88 14h-73v84l379 15v-746q0 -72 12 -99.5t35.5 -39t94.5 -11.5h31v-84l-332 -17v185q-137 -109 -239 -150.5t-207 -41.5q-78 0 -135.5 21t-101 63t-66.5 101
t-23 126v455q0 61 -11 85.5t-36.5 39t-69.5 14.5h-92v84zM1176 0q-38 -28 -65 -71q-18 -29 -18 -59q0 -36 25 -60.5t59 -24.5q31 0 72 19t79 56l33 -43q-70 -61 -113 -82q-65 -32 -120 -32q-56 0 -93.5 39t-37.5 95q0 45 33 96q23 35 70 67h76z" />
    <glyph glyph-name="Wcircumflex" unicode="&#x174;" horiz-adv-x="1966" 
d="M26 1395h500v-85h-53q-52 0 -71 -10q-29 -16 -29 -48q0 -23 16 -73l286 -930l248 764l-58 185q-21 66 -64 95q-26 17 -91 17v85h496v-85h-47q-61 0 -82 -15t-21 -41q0 -22 16 -75l287 -936l289 936q15 49 15 74q0 29 -20 43t-79 14h-50v85h426v-85q-54 1 -80.5 -10.5
t-43.5 -33t-37 -87.5l-385 -1179h-145l-269 834l-270 -834h-144l-378 1179q-27 85 -67 112q-30 19 -95 19v85zM982 1736l291 -191l-27 -51l-264 93l-263 -93l-27 51z" />
    <glyph glyph-name="wcircumflex" unicode="&#x175;" horiz-adv-x="1597" 
d="M-1 965h460v-84h-32q-59 0 -78 -9q-30 -14 -30 -44q0 -28 23 -90l207 -547l202 508l-18 47q-31 81 -72 112q-27 20 -80 23v84h458v-84h-39q-55 0 -71 -9q-28 -16 -28 -51q0 -30 21 -83l207 -547l202 555q16 45 17 51q3 11 3 23q0 28 -22 44.5t-81 16.5h-37v84h388v-84
q-43 -2 -70 -15t-43 -34t-45 -94l-292 -738h-120l-231 576l-228 -576h-119l-295 738q-28 71 -46 94t-44.5 36t-66.5 13v84zM798 1404l291 -191l-27 -51l-264 93l-263 -93l-27 51z" />
    <glyph glyph-name="Ycircumflex" unicode="&#x176;" horiz-adv-x="1311" 
d="M5 1395h522v-85h-59q-54 0 -69.5 -10t-15.5 -33q0 -20 19 -54q5 -8 13 -23l272 -504l301 523q18 32 21.5 41.5t3.5 19.5q0 14 -7.5 23.5t-23.5 14.5q-10 2 -56 2h-52v85h431v-85q-57 1 -84.5 -7t-45 -24.5t-49.5 -69.5l-378 -630v-351q0 -77 12.5 -100t39.5 -33.5
t126 -10.5v-84h-545v84h42q67 0 89.5 12t35.5 39q9 19 9 93v314l-369 656q-44 79 -73.5 94.5t-109.5 17.5v85zM655 1736l291 -191l-27 -51l-264 93l-263 -93l-27 51z" />
    <glyph glyph-name="ycircumflex" unicode="&#x177;" horiz-adv-x="1106" 
d="M-11 965h486v-84h-40q-57 0 -68 -3q-13 -4 -22 -16.5t-9 -31.5q0 -27 27 -91l232 -545l215 521q38 92 38 122q0 23 -17 33.5t-77 10.5h-47v84h409v-84h-24q-60 0 -78 -8t-35 -32.5t-54 -111.5l-367 -855q-40 -92 -89 -170.5t-123 -121.5t-163 -43q-103 0 -165 47
q-53 40 -53 100q0 37 23 61.5t54 24.5q24 0 45 -10q13 -5 54 -42q50 -44 70.5 -54t40.5 -10q41 0 81 28t68 79q40 73 66 137l41 100l-330 739q-35 78 -59 105t-48 33q-13 4 -82 4v84zM552 1404l291 -191l-27 -51l-264 93l-263 -93l-27 51z" />
    <glyph glyph-name="longs" unicode="&#x17f;" horiz-adv-x="614" 
d="M556 84v-84h-515v84h31q96 0 118 22.5t22 122.5v871q0 177 106 272t263 95q111 0 172.5 -46t61.5 -100q0 -33 -23.5 -59t-63.5 -26q-38 0 -63.5 16.5t-66.5 55.5q-53 50 -100 50t-81.5 -43t-34.5 -179v-922q0 -89 22 -109.5t111 -20.5h41z" />
    <glyph glyph-name="Aringacute" unicode="&#x1fa;" horiz-adv-x="1393" 
d="M616 1395h165l433 -1166q32 -88 64.5 -116.5t87.5 -28.5h22v-84h-497v84q24 2 47 2q48 0 63 10q29 19 29 48q0 21 -28 103l-92 270h-506l-108 -302q-17 -47 -17 -65q0 -20 10.5 -35t28.5 -22.5t58 -7.5q27 0 44 -1v-84h-417v84q58 0 83.5 11.5t44.5 37t50 107.5zM441 615
h431l-216 600zM695 1755q79 0 134 -55.5t55 -133.5q0 -79 -55.5 -134.5t-133.5 -55.5t-133 55.5t-55 134.5q0 78 55 133.5t133 55.5zM695 1685q-49 0 -83.5 -35t-34.5 -84q0 -50 34.5 -85t83.5 -35t84 35t35 85q0 49 -35 84t-84 35zM532 1790v35l185 136q95 70 159 70
q30 0 50.5 -21.5t20.5 -53.5q0 -39 -28 -64.5t-101 -41.5z" />
    <glyph glyph-name="aringacute" unicode="&#x1fb;" horiz-adv-x="1188" 
d="M793 579v109q0 111 -62 158.5t-175 47.5q-56 0 -98 -13.5t-67.5 -37t-37.5 -53.5q-5 -11 -24 -85q-23 -90 -93 -90q-40 0 -64.5 26.5t-24.5 71.5q0 66 49 129.5t149.5 105t237.5 41.5q128 0 219 -39.5t134 -113.5q30 -51 30 -186v-385q0 -82 5 -107q11 -43 38.5 -64.5
t71.5 -21.5q46 0 110 22v-87q-83 -24 -149 -24q-71 0 -119.5 20t-79.5 58.5t-40 91.5q-120 -94 -217 -132t-196 -38q-138 0 -224 75t-86 176q0 61 31.5 116t96 97t202.5 74t383 58zM793 492q-232 -34 -287 -47q-109 -25 -156 -55t-67 -64.5t-20 -73.5t22.5 -75.5t63.5 -57.5
t87 -21q65 0 147 31t210 121v242zM593 1499q79 0 134 -55.5t55 -133.5q0 -79 -55.5 -134.5t-133.5 -55.5t-133 55.5t-55 134.5q0 78 55 133.5t133 55.5zM593 1429q-49 0 -83.5 -35t-34.5 -84q0 -50 34.5 -85t83.5 -35t84 35t35 85q0 49 -35 84t-84 35zM428 1538v35l185 136
q95 70 159 70q30 0 50.5 -21.5t20.5 -53.5q0 -39 -28 -64.5t-101 -41.5z" />
    <glyph glyph-name="AEacute" unicode="&#x1fc;" horiz-adv-x="2580" 
d="M738 1395h1600l131 -363l-88 -31q-67 161 -150 221q-94 68 -290 68h-428v-515h204q96 0 141 21.5t71.5 65.5t26.5 109v61h96v-614h-96v57q0 80 -24 121t-67.5 61t-147.5 20h-204v-490l1 -24q0 -24 4 -31q8 -13 22 -19q10 -4 47 -4h323q143 0 236.5 35.5t162.5 106.5
t136 218l91 -30l-155 -439h-1230v84h55q71 0 100 33q24 27 24 97v463h-665l-280 -451l-8 -11q-35 -46 -35 -82q0 -23 19.5 -36t76.5 -13h43v-84h-479v84q55 1 82 10.5t48 28.5q34 32 67 82l641 983q34 52 34 79q0 21 -18 32t-71 11h-47v85zM1047 1290l-321 -515h604v515
h-283zM1274 1501v35l185 136q95 70 159 70q30 0 50.5 -21.5t20.5 -53.5q0 -39 -28 -64.5t-101 -41.5z" />
    <glyph glyph-name="aeacute" unicode="&#x1fd;" horiz-adv-x="1761" 
d="M1625 259l66 -52q-92 -120 -197 -175.5t-234 -55.5q-126 0 -223.5 55t-165.5 165q-94 -92 -256 -169q-108 -51 -218 -51q-140 0 -225.5 75t-85.5 179q0 65 31 119.5t99 98t212 77t370 54.5v83q0 91 -23 134.5t-78 70.5t-136 27q-65 0 -112 -19t-71.5 -50t-38.5 -96
q-12 -53 -24 -73.5t-31 -31.5t-42 -11q-41 0 -65 25.5t-24 74.5q0 105 117 190.5t313 85.5q89 0 155 -18.5t116 -53.5q38 -26 70 -76q148 148 337 148q188 0 301.5 -112.5t118.5 -306.5h-707q-4 -51 -4 -76q0 -121 47 -218.5t121.5 -146.5t161.5 -49q80 0 164 43.5
t161 135.5zM1498 662q-8 105 -73.5 169t-160.5 64t-170.5 -61.5t-104.5 -171.5h509zM798 490q-156 -17 -273.5 -43.5t-166.5 -56t-69 -63.5t-20 -72q0 -40 21.5 -77.5t64 -59.5t87.5 -22q61 0 156.5 38t199.5 116v240zM743 1170v35l185 136q95 70 159 70q30 0 50.5 -21.5
t20.5 -53.5q0 -39 -28 -64.5t-101 -41.5z" />
    <glyph glyph-name="Oslashacute" unicode="&#x1fe;" horiz-adv-x="1638" 
d="M1267 1270l133 149h130l-192 -215q99 -104 145.5 -224t46.5 -276q0 -322 -200 -525t-510 -203q-265 0 -450 148l-133 -148h-130l192 214q-192 208 -192 506q0 206 93 369.5t263.5 258.5t373.5 95q243 0 430 -149zM1175 1167q-59 73 -141.5 108.5t-196.5 35.5
q-155 0 -266.5 -71.5t-179 -210.5t-67.5 -341q0 -227 88 -372zM1228 1081l-758 -846q138 -159 351 -159q139 0 246.5 70.5t177 222t69.5 338.5q0 207 -86 374zM671 1501v35l185 136q95 70 159 70q30 0 50.5 -21.5t20.5 -53.5q0 -39 -28 -64.5t-101 -41.5z" />
    <glyph glyph-name="oslashacute" unicode="&#x1ff;" horiz-adv-x="1147" 
d="M880 898l79 91h106l-126 -146q59 -65 92.5 -159.5t33.5 -200.5q0 -150 -63.5 -267.5t-173 -178.5t-263.5 -61q-182 0 -299 90l-77 -90h-107l126 146q-126 153 -126 359q0 150 63 265.5t176.5 179t258.5 63.5q179 0 300 -91zM787 791q-36 46 -94 73.5t-120 27.5
q-119 0 -198 -93q-97 -113 -97 -325q0 -128 38 -227zM829 716l-472 -546q78 -104 215 -104q85 0 152 45t107.5 143.5t40.5 231.5q0 131 -43 230zM366 1170v35l185 136q95 70 159 70q30 0 50.5 -21.5t20.5 -53.5q0 -39 -28 -64.5t-101 -41.5z" />
    <glyph glyph-name="tonos" unicode="&#x384;" horiz-adv-x="860" 
d="M399 1097l-42 181q-19 81 -19 103q0 35 24 60.5t66 25.5q94 0 94 -80q0 -23 -23 -106l-50 -184h-50z" />
    <glyph glyph-name="dieresistonos" unicode="&#x385;" horiz-adv-x="860" 
d="M401 1097l-42 181q-19 81 -19 103q0 35 24 60.5t66 25.5q94 0 94 -80q0 -23 -23 -106l-50 -184h-50zM274 1238q0 -45 -32.5 -77.5t-76.5 -32.5q-45 0 -77.5 32.5t-32.5 77.5q0 46 32.5 78.5t77.5 32.5t77 -32.5t32 -78.5zM805 1238q0 -45 -32.5 -77.5t-77.5 -32.5
t-77 32.5t-32 77.5q0 46 32 78.5t77 32.5q46 0 78 -32.5t32 -78.5z" />
    <glyph glyph-name="Alphatonos" unicode="&#x386;" horiz-adv-x="1393" 
d="M616 1395h165l433 -1166q32 -88 64.5 -116.5t87.5 -28.5h22v-84h-497v84q24 2 47 2q48 0 63 10q29 19 29 48q0 21 -28 103l-92 270h-506l-108 -302q-17 -47 -17 -65q0 -20 10.5 -35t28.5 -22.5t58 -7.5q27 0 44 -1v-84h-417v84q58 0 83.5 11.5t44.5 37t50 107.5zM441 615
h431l-216 600zM159 1049l-42 181q-19 81 -19 103q0 35 24 60.5t66 25.5q94 0 94 -80q0 -23 -23 -106l-50 -184h-50z" />
    <glyph glyph-name="anoteleia" unicode="&#x387;" horiz-adv-x="682" 
d="M467 863q0 -52 -37 -89.5t-89 -37.5q-51 0 -88 36.5t-37 88.5q0 55 40 91.5t85 36.5q53 0 89.5 -37.5t36.5 -88.5z" />
    <glyph glyph-name="Epsilontonos" unicode="&#x388;" horiz-adv-x="1585" 
d="M211 1395h1134l131 -367l-88 -33q-33 90 -72 141.5t-93.5 87.5t-110 48t-200.5 12h-338v-511h168q93 0 140.5 31.5t65.5 78.5q14 35 14 122v23h98v-612h-98v53q0 70 -10.5 101t-38.5 58.5t-60.5 37.5t-110.5 10h-168v-454q0 -71 6.5 -86.5t21.5 -22.5t82 -7h209
q175 0 273.5 42t173.5 129q59 68 113 192l91 -32l-156 -437h-1177v84h40q70 0 87 9q26 13 40 42q10 20 10 87v960q0 65 -13 87t-45 34q-17 7 -119 7v85zM13 1049l-42 181q-19 81 -19 103q0 35 24 60.5t66 25.5q94 0 94 -80q0 -23 -23 -106l-50 -184h-50z" />
    <glyph glyph-name="Etatonos" unicode="&#x389;" horiz-adv-x="1749" 
d="M211 1395h538v-85h-37q-64 0 -91.5 -12t-38.5 -42q-9 -22 -9 -93v-389h723v379q0 77 -5 93q-8 32 -34.5 48t-80.5 16h-55v85h534v-85h-48q-56 0 -79.5 -12.5t-33 -34t-9.5 -92.5v-950q0 -79 10 -100.5t40 -30.5q18 -6 120 -6v-84h-534v84h39q74 0 98.5 10t31.5 32
q6 17 6 107v433h-723v-445q0 -79 10.5 -101t40.5 -30q22 -6 125 -6v-84h-538v84h34q78 0 97.5 8.5t31 32.5t11.5 85v961q0 65 -10.5 90t-33 37t-74.5 12h-56v85zM13 1049l-42 181q-19 81 -19 103q0 35 24 60.5t66 25.5q94 0 94 -80q0 -23 -23 -106l-50 -184h-50z" />
    <glyph glyph-name="Iotatonos" unicode="&#x38a;" horiz-adv-x="823" 
d="M211 1395h534v-85h-41q-58 0 -84 -16t-38 -45.5t-12 -114.5v-899q0 -68 13 -96.5t36.5 -41.5t84.5 -13h41v-84h-534v84h44q59 0 83.5 13.5t35.5 39t11 98.5v920q0 77 -11 103.5t-35.5 39t-83.5 12.5h-44v85zM13 1049l-42 181q-19 81 -19 103q0 35 24 60.5t66 25.5
q94 0 94 -80q0 -23 -23 -106l-50 -184h-50z" />
    <glyph glyph-name="Omicrontonos" unicode="&#x38c;" horiz-adv-x="1638" 
d="M839 1419q191 0 345 -92q167 -99 256.5 -257t89.5 -366q0 -322 -200 -525t-510 -203q-346 0 -548 244q-165 199 -165 476q0 206 93 369.5t264 258.5t375 95zM839 1311q-156 0 -268 -71.5t-179.5 -210.5t-67.5 -343q0 -195 66.5 -330.5t178.5 -207.5t252 -72
q139 0 246 70.5t177 222t70 336.5q0 188 -70 344q-60 134 -159 198t-246 64zM13 1049l-42 181q-19 81 -19 103q0 35 24 60.5t66 25.5q94 0 94 -80q0 -23 -23 -106l-50 -184h-50z" />
    <glyph glyph-name="Upsilontonos" unicode="&#x38e;" horiz-adv-x="1520" 
d="M211 1395h522v-85h-59q-54 0 -69.5 -10t-15.5 -33q0 -20 19 -54q5 -8 13 -23l272 -504l301 523q18 32 21.5 41.5t3.5 19.5q0 14 -7.5 23.5t-23.5 14.5q-10 2 -56 2h-52v85h431v-85q-57 1 -84.5 -7t-45 -24.5t-49.5 -69.5l-378 -630v-351q0 -77 12.5 -100t39.5 -33.5
t126 -10.5v-84h-545v84h42q67 0 89.5 12t35.5 39q9 19 9 93v314l-369 656q-44 79 -73.5 94.5t-109.5 17.5v85zM13 1049l-42 181q-19 81 -19 103q0 35 24 60.5t66 25.5q94 0 94 -80q0 -23 -23 -106l-50 -184h-50z" />
    <glyph glyph-name="Omegatonos" unicode="&#x38f;" horiz-adv-x="1616" 
d="M909 0l31 315q347 144 347 525q0 232 -127.5 351.5t-321.5 119.5q-222 0 -347.5 -148t-125.5 -365q0 -337 349 -483l30 -315h-559l-124 360l91 32q61 -135 144 -194.5t332 -59.5l-12 92q-268 120 -367.5 258.5t-99.5 321.5q0 276 200 442.5t497 166.5q285 0 471 -155
t186 -417q0 -439 -465 -617l-12 -92q222 0 312.5 50.5t163.5 203.5l91 -32l-124 -360h-560zM13 1049l-42 181q-19 81 -19 103q0 35 24 60.5t66 25.5q94 0 94 -80q0 -23 -23 -106l-50 -184h-50z" />
    <glyph glyph-name="iotadieresistonos" unicode="&#x390;" horiz-adv-x="655" 
d="M252 821h-173v83q144 15 268 85h73l-1 -727q0 -113 21.5 -149t80.5 -36q42 0 103 37v-98q-75 -40 -154 -40q-78 0 -131 32t-70 80.5t-17 161.5v571zM310 1097l-42 181q-19 81 -19 103q0 35 24 60.5t66 25.5q94 0 94 -80q0 -23 -23 -106l-50 -184h-50zM183 1238
q0 -45 -32.5 -77.5t-76.5 -32.5q-45 0 -77.5 32.5t-32.5 77.5q0 46 32.5 78.5t77.5 32.5t77 -32.5t32 -78.5zM714 1238q0 -45 -32.5 -77.5t-77.5 -32.5t-77 32.5t-32 77.5q0 46 32 78.5t77 32.5q46 0 78 -32.5t32 -78.5z" />
    <glyph glyph-name="Alpha" unicode="&#x391;" horiz-adv-x="1393" 
d="M616 1395h165l433 -1166q32 -88 64.5 -116.5t87.5 -28.5h22v-84h-497v84q24 2 47 2q48 0 63 10q29 19 29 48q0 21 -28 103l-92 270h-506l-108 -302q-17 -47 -17 -65q0 -20 10.5 -35t28.5 -22.5t58 -7.5q27 0 44 -1v-84h-417v84q58 0 83.5 11.5t44.5 37t50 107.5zM441 615
h431l-216 600z" />
    <glyph glyph-name="Beta" unicode="&#x392;" horiz-adv-x="1515" 
d="M83 1395h663q243 0 333 -22q133 -32 210.5 -116t77.5 -202q0 -85 -41 -152.5t-119 -115.5q-50 -31 -136 -53q109 -20 166 -48q86 -42 136 -120t50 -176q0 -95 -49 -176t-138.5 -133t-208.5 -66.5t-245 -14.5h-699v84h47q68 0 93 21q36 29 36 96v969q0 68 -11 93t-33 36
t-85 11h-47v85zM446 1284v-511h255q179 0 245 17q103 27 157.5 92t54.5 167q0 86 -49.5 143.5t-132.5 78.5q-54 13 -224 13h-306zM446 677v-458q0 -69 6 -82q8 -18 32 -25q17 -5 96 -5h136q202 0 288.5 22.5t147.5 95t61 174.5q0 86 -49.5 152.5t-137 96t-310.5 29.5h-270z
" />
    <glyph glyph-name="Gamma" unicode="&#x393;" horiz-adv-x="1188" 
d="M111 1395h978l129 -366l-87 -33q-75 174 -163 231t-288 57h-212v-1068q0 -81 28 -106.5t109 -25.5h37v-84h-531v84h34q84 0 110 27.5t26 114.5v949q0 90 -27.5 112.5t-95.5 22.5h-47v85z" />
    <glyph glyph-name="Delta" unicode="&#x394;" horiz-adv-x="1229" 
d="M535 1395h164l511 -1311v-84h-1192v84zM148 106h855l-429 1109z" />
    <glyph glyph-name="Epsilon" unicode="&#x395;" horiz-adv-x="1475" 
d="M98 1395h1134l131 -367l-88 -33q-33 90 -72 141.5t-93.5 87.5t-110 48t-200.5 12h-338v-511h168q93 0 140.5 31.5t65.5 78.5q14 35 14 122v23h98v-612h-98v53q0 70 -10.5 101t-38.5 58.5t-60.5 37.5t-110.5 10h-168v-454q0 -71 6.5 -86.5t21.5 -22.5t82 -7h209
q175 0 273.5 42t173.5 129q59 68 113 192l91 -32l-156 -437h-1177v84h40q70 0 87 9q26 13 40 42q10 20 10 87v960q0 65 -13 87t-45 34q-17 7 -119 7v85z" />
    <glyph glyph-name="Zeta" unicode="&#x396;" horiz-adv-x="1311" 
d="M245 1395h971v-85l-911 -1202h335q228 0 347.5 76.5t213.5 279.5l92 -31l-161 -433h-1079v84l913 1203h-290q-146 0 -231 -28t-149 -87.5t-134 -186.5l-86 42z" />
    <glyph glyph-name="Eta" unicode="&#x397;" horiz-adv-x="1638" 
d="M97 1395h538v-85h-37q-64 0 -91.5 -12t-38.5 -42q-9 -22 -9 -93v-389h723v379q0 77 -5 93q-8 32 -34.5 48t-80.5 16h-55v85h534v-85h-48q-56 0 -79.5 -12.5t-33 -34t-9.5 -92.5v-950q0 -79 10 -100.5t40 -30.5q18 -6 120 -6v-84h-534v84h39q74 0 98.5 10t31.5 32
q6 17 6 107v433h-723v-445q0 -79 10.5 -101t40.5 -30q22 -6 125 -6v-84h-538v84h34q78 0 97.5 8.5t31 32.5t11.5 85v961q0 65 -10.5 90t-33 37t-74.5 12h-56v85z" />
    <glyph glyph-name="Theta" unicode="&#x398;" horiz-adv-x="1638" 
d="M837 1419q282 0 487.5 -200t205.5 -515q0 -321 -200 -524.5t-510 -203.5q-320 0 -516.5 209t-196.5 511q0 210 99.5 380.5t274 256.5t356.5 86zM839 1311q-191 0 -306 -99.5t-162 -231t-47 -294.5q0 -281 141.5 -445.5t355.5 -164.5q233 0 363 186.5t130 442.5
q0 238 -112 422t-363 184zM501 1004h97v-41q0 -106 50 -134.5t122 -28.5h97q68 0 120.5 28t52.5 135v41h97v-564h-97v71q0 76 -37.5 107t-135.5 31h-97q-83 0 -127.5 -33.5t-44.5 -131.5v-44h-97v564z" />
    <glyph glyph-name="Iota" unicode="&#x399;" horiz-adv-x="696" 
d="M81 1395h534v-85h-41q-58 0 -84 -16t-38 -45.5t-12 -114.5v-899q0 -68 13 -96.5t36.5 -41.5t84.5 -13h41v-84h-534v84h44q59 0 83.5 13.5t35.5 39t11 98.5v920q0 77 -11 103.5t-35.5 39t-83.5 12.5h-44v85z" />
    <glyph glyph-name="Kappa" unicode="&#x39a;" horiz-adv-x="1475" 
d="M103 1395h538v-85h-38q-66 0 -93 -16t-38 -50q-9 -25 -9 -82v-527l524 555q41 44 48.5 57t7.5 27q0 18 -17.5 27t-75.5 9h-32v85h500v-85q-59 1 -107 -13t-76 -35q-61 -45 -87 -72l-374 -383l427 -566q58 -77 92 -105.5t70 -40t112 -11.5v-84h-592v84h35q59 0 70 3
q17 4 27 16t10 25q0 26 -69 119l-315 428l-178 -184v-267q0 -69 14 -94t43 -37q23 -9 121 -9v-84h-538v84h42q63 0 86 12.5t35.5 41.5t12.5 103v921q0 73 -12 99.5t-35 37.5t-98 11h-31v85z" />
    <glyph glyph-name="Lambda" unicode="&#x39b;" horiz-adv-x="1393" 
d="M657 1215l-360 -1000q-17 -47 -17 -65q0 -27 16.5 -43.5t30.5 -18.5t94 -4v-84h-417v84q82 0 111 27.5t67 128.5l435 1155h165l433 -1166q30 -82 61.5 -113.5t89.5 -31.5h23v-84h-497v84q21 2 63 2q76 1 76 58q0 25 -28 103z" />
    <glyph glyph-name="Mu" unicode="&#x39c;" horiz-adv-x="1884" 
d="M96 1395h441l412 -1105l401 1105h426v-85h-36q-65 0 -87.5 -11t-35.5 -38.5t-13 -90.5v-920q0 -87 10.5 -113t35 -39.5t90.5 -13.5h36v-84h-533v84h38q51 0 74.5 8t39 26.5t17.5 38.5q5 41 5 64v1027l-455 -1248h-99l-459 1230v-989q0 -75 13 -101.5t40.5 -41t98.5 -14.5
h32v-84h-492v84h28q71 0 101.5 15t43.5 42.5t13 108.5v911q0 76 -11 100.5t-36.5 36.5t-90.5 12h-48v85z" />
    <glyph glyph-name="Nu" unicode="&#x39d;" horiz-adv-x="1515" 
d="M88 1395h428l635 -1046v796q0 71 -14 102t-42 47t-83 16h-36v85h467v-85h-25q-62 0 -84 -10q-31 -14 -46.5 -51t-15.5 -104v-1145h-121l-765 1257v-996q0 -83 5 -101q7 -23 25.5 -42t43.5 -26t101 -8v-84h-473v84h25q72 0 97.5 14t39.5 48t14 115v884q0 83 -4 101
q-9 34 -34.5 49t-101.5 15h-36v85z" />
    <glyph glyph-name="Xi" unicode="&#x39e;" horiz-adv-x="1468" 
d="M197 966l-88 33l95 396h1062l94 -396l-87 -33q-41 122 -109.5 185t-126.5 78t-204 15h-197q-149 0 -217.5 -21.5t-126 -85t-95.5 -171.5zM393 1028h97v-23q0 -131 55.5 -168t140.5 -37h97q81 0 128 27.5t58 65.5t11 112v23h97v-612h-97v53q0 120 -57.5 150t-139.5 30h-97
q-110 0 -153 -50t-43 -157v-26h-97v612zM41 469l91 32q52 -127 113.5 -194.5t145.5 -112t265 -44.5h157q140 0 222 26t163 102.5t139 222.5l91 -32l-119 -469h-1149z" />
    <glyph glyph-name="Omicron" unicode="&#x39f;" horiz-adv-x="1638" 
d="M839 1419q191 0 345 -92q167 -99 256.5 -257t89.5 -366q0 -322 -200 -525t-510 -203q-346 0 -548 244q-165 199 -165 476q0 206 93 369.5t264 258.5t375 95zM839 1311q-156 0 -268 -71.5t-179.5 -210.5t-67.5 -343q0 -195 66.5 -330.5t178.5 -207.5t252 -72
q139 0 246 70.5t177 222t70 336.5q0 188 -70 344q-60 134 -159 198t-246 64z" />
    <glyph glyph-name="Pi" unicode="&#x3a0;" horiz-adv-x="1618" 
d="M1161 1287h-702v-1066q0 -94 21.5 -115t117.5 -21h37v-85h-538v85h34q89 0 114.5 18.5t25.5 106.5v961q0 87 -24 113t-94 26h-56v85h1423v-85h-48q-75 0 -98 -27t-23 -112v-950q0 -95 21 -115.5t118 -20.5h30v-85h-533v85h39q74 0 98 9t30.5 29t6.5 110v1054z" />
    <glyph glyph-name="Rho" unicode="&#x3a1;" horiz-adv-x="1270" 
d="M92 1395h551q251 0 346 -32q119 -38 196.5 -130t77.5 -234q0 -121 -59 -209q-71 -106 -172.5 -150.5t-319.5 -44.5h-255v-358q0 -80 9 -101q12 -29 33 -40.5t85 -11.5h48v-84h-540v84h33q69 0 94 11.5t36.5 36t11.5 92.5v954q0 66 -10.5 88.5t-35 33t-96.5 10.5h-33v85z
M457 1286v-585h215q163 0 228.5 29t108.5 100.5t43 167.5q0 105 -50 175.5t-136 95.5q-60 17 -234 17h-175z" />
    <glyph glyph-name="Sigma" unicode="&#x3a3;" horiz-adv-x="1311" 
d="M683 753l-437 -603h394q243 0 360.5 82t200.5 263l92 -32l-160 -463h-1092v84l463 633l-439 593v85h927l169 -368l-86 -42q-89 167 -194 234.5t-319 67.5h-278z" />
    <glyph glyph-name="Tau" unicode="&#x3a4;" horiz-adv-x="1270" 
d="M125 1442h70l10 -47h856l8 47h73l147 -410l-90 -32q-65 164 -154 230.5t-228 66.5q-58 0 -69 -4.5t-15.5 -15.5t-4.5 -70v-968q0 -69 7.5 -93t21.5 -37t38.5 -18.5t109.5 -6.5v-84h-538v84q89 1 109 6q35 10 50 38t15 103v989q0 46 -4.5 56t-17 15.5t-51.5 5.5
q-109 0 -174.5 -28t-123.5 -95t-99 -174l-90 32z" />
    <glyph glyph-name="Upsilon" unicode="&#x3a5;" horiz-adv-x="1311" 
d="M5 1395h522v-85h-59q-54 0 -69.5 -10t-15.5 -33q0 -20 19 -54q5 -8 13 -23l272 -504l301 523q18 32 21.5 41.5t3.5 19.5q0 14 -7.5 23.5t-23.5 14.5q-10 2 -56 2h-52v85h431v-85q-57 1 -84.5 -7t-45 -24.5t-49.5 -69.5l-378 -630v-351q0 -77 12.5 -100t39.5 -33.5
t126 -10.5v-84h-545v84h42q67 0 89.5 12t35.5 39q9 19 9 93v314l-369 656q-44 79 -73.5 94.5t-109.5 17.5v85z" />
    <glyph glyph-name="Phi" unicode="&#x3a6;" horiz-adv-x="1651" 
d="M730 1142v35q0 85 -24.5 109t-117.5 24h-33v85h540v-85h-33q-93 0 -117.5 -24t-24.5 -109v-35q410 -7 546 -129.5t136 -321.5q0 -206 -147 -322t-535 -116v-36q0 -85 24.5 -109t117.5 -24h33v-84h-540v84h33q93 0 117.5 24.5t24.5 108.5v36q-418 11 -550 130.5
t-132 313.5q0 197 133 315t549 130zM920 358q282 2 376.5 86.5t94.5 253.5q0 165 -94 250t-377 88v-678zM730 358v678q-290 -9 -380.5 -96.5t-90.5 -248.5q0 -160 96.5 -243t374.5 -90z" />
    <glyph glyph-name="Chi" unicode="&#x3a7;" horiz-adv-x="1475" 
d="M66 1395h533v-85h-42q-60 0 -76 -8t-16 -26q0 -12 6 -24t36 -52l261 -356l285 356q40 50 40 76q0 16 -15.5 25t-65.5 9h-51v85h453v-85q-81 0 -116.5 -17t-98.5 -93l-364 -437l429 -563q41 -54 69 -76.5t54 -31t86 -8.5v-84h-535v84h42q62 0 78.5 8.5t16.5 27.5
q0 11 -6 23q-2 5 -40 57l-319 426l-349 -439q-32 -39 -36 -48q-6 -11 -6 -21q0 -19 23 -28q15 -6 71 -6h42v-84h-452v84q62 0 90.5 8.5t57.5 30.5t74 77l421 507l-374 493q-56 74 -91.5 92t-114.5 18v85z" />
    <glyph glyph-name="Psi" unicode="&#x3a8;" horiz-adv-x="1798" 
d="M668 1310v85h459v-85q-78 0 -105.5 -19.5t-27.5 -119.5v-594h86q148 0 216 46t91 130.5t23 276.5v365h362v-85h-56q-71 0 -94.5 -28t-23.5 -111v-141q0 -268 -34 -348t-135.5 -146.5t-307.5 -66.5h-127v-248q0 -95 21 -115.5t118 -20.5h30v-85h-532v85h39q74 0 98 9
t30.5 29t6.5 110v236h-127q-207 0 -309.5 66t-135 159.5t-32.5 335.5v141q0 87 -24 113t-94 26h-56v85h362v-365q0 -223 22 -283.5t81.5 -115t226.5 -54.5h86v576q0 82 -9 107.5t-37 37.5t-91 12z" />
    <glyph glyph-name="Omega" unicode="&#x3a9;" horiz-adv-x="1577" 
d="M871 0l31 315q347 144 347 525q0 232 -127.5 351.5t-321.5 119.5q-222 0 -347.5 -148t-125.5 -365q0 -337 349 -483l30 -315h-559l-124 360l91 32q61 -135 144 -194.5t332 -59.5l-12 92q-268 120 -367.5 258.5t-99.5 321.5q0 276 200 442.5t497 166.5q285 0 471 -155
t186 -417q0 -439 -465 -617l-12 -92q222 0 312.5 50.5t163.5 203.5l91 -32l-124 -360h-560z" />
    <glyph glyph-name="Iotadieresis" unicode="&#x3aa;" horiz-adv-x="696" 
d="M81 1395h534v-85h-41q-58 0 -84 -16t-38 -45.5t-12 -114.5v-899q0 -68 13 -96.5t36.5 -41.5t84.5 -13h41v-84h-534v84h44q59 0 83.5 13.5t35.5 39t11 98.5v920q0 77 -11 103.5t-35.5 39t-83.5 12.5h-44v85zM181 1709q50 0 86 -36t36 -87q0 -50 -36 -86t-86 -36t-86 36
t-36 86q0 51 35.5 87t86.5 36zM515 1709q50 0 86 -36t36 -87q0 -50 -36 -86t-86 -36q-51 0 -86.5 36t-35.5 86q0 51 35.5 87t86.5 36z" />
    <glyph glyph-name="Upsilondieresis" unicode="&#x3ab;" horiz-adv-x="1311" 
d="M5 1395h522v-85h-59q-54 0 -69.5 -10t-15.5 -33q0 -20 19 -54q5 -8 13 -23l272 -504l301 523q18 32 21.5 41.5t3.5 19.5q0 14 -7.5 23.5t-23.5 14.5q-10 2 -56 2h-52v85h431v-85q-57 1 -84.5 -7t-45 -24.5t-49.5 -69.5l-378 -630v-351q0 -77 12.5 -100t39.5 -33.5
t126 -10.5v-84h-545v84h42q67 0 89.5 12t35.5 39q9 19 9 93v314l-369 656q-44 79 -73.5 94.5t-109.5 17.5v85zM488 1711q50 0 86 -36t36 -87q0 -50 -36 -86t-86 -36t-86 36t-36 86q0 51 35.5 87t86.5 36zM822 1711q50 0 86 -36t36 -87q0 -50 -36 -86t-86 -36q-51 0 -86.5 36
t-35.5 86q0 51 35.5 87t86.5 36z" />
    <glyph glyph-name="alphatonos" unicode="&#x3ac;" horiz-adv-x="1270" 
d="M1038 965v-711q0 -84 7.5 -112.5t31.5 -43t92 -14.5h43v-84l-347 -16v159q-176 -167 -363 -167q-182 0 -301 145.5t-119 350.5q0 216 131 366.5t328 150.5q189 0 324 -152l64 128h109zM865 242v358q0 143 -89.5 211.5t-184.5 68.5q-134 0 -225 -106t-91 -295
q0 -179 83 -282.5t192 -103.5q153 0 315 149zM598 1097l-42 181q-19 81 -19 103q0 35 24 60.5t66 25.5q94 0 94 -80q0 -23 -23 -106l-50 -184h-50z" />
    <glyph glyph-name="epsilontonos" unicode="&#x3ad;" horiz-adv-x="963" 
d="M618 537v-84h-32q-180 0 -247 -49t-67 -139q0 -85 64.5 -136.5t184.5 -51.5q225 0 380 204l64 -52q-103 -140 -211 -196.5t-265 -56.5q-197 0 -303.5 78t-106.5 200q0 197 276 253q-149 46 -197 100.5t-48 128.5q0 107 95.5 180t272.5 73q160 0 260 -56t100 -130
q0 -35 -23.5 -62t-65.5 -27q-40 0 -63 17t-54 66t-62.5 70t-88.5 21q-89 0 -137 -45.5t-48 -119.5q0 -75 58 -130.5t235 -55.5h29zM491 1097l-42 181q-19 81 -19 103q0 35 24 60.5t66 25.5q94 0 94 -80q0 -23 -23 -106l-50 -184h-50z" />
    <glyph glyph-name="etatonos" unicode="&#x3ae;" horiz-adv-x="1296" 
d="M75 821v84q136 11 260 84h70v-190q218 190 415 190q107 0 180.5 -46t100.5 -107t27 -168v-1114h-169v1051q0 110 -17 155t-62.5 73.5t-115.5 28.5q-175 0 -350 -164v-461q0 -70 9.5 -99t33.5 -41.5t102 -12.5h28v-84h-512v84h25q73 0 100 12.5t36 36t9 118.5v570h-170z
M673 1097l-42 181q-19 81 -19 103q0 35 24 60.5t66 25.5q94 0 94 -80q0 -23 -23 -106l-50 -184h-50z" />
    <glyph glyph-name="iotatonos" unicode="&#x3af;" horiz-adv-x="655" 
d="M252 821h-173v83q144 15 268 85h73l-1 -727q0 -113 21.5 -149t80.5 -36q42 0 103 37v-98q-75 -40 -154 -40q-78 0 -131 32t-70 80.5t-17 161.5v571zM329 1097l-42 181q-19 81 -19 103q0 35 24 60.5t66 25.5q94 0 94 -80q0 -23 -23 -106l-50 -184h-50z" />
    <glyph glyph-name="upsilondieresistonos" unicode="&#x3b0;" horiz-adv-x="1257" 
d="M19 881v84l379 15v-524q0 -216 72 -285t199 -69q83 0 148 32.5t95.5 100.5t30.5 221v286q0 87 -26.5 113t-113.5 26h-69v84l379 15v-472q0 -199 -32.5 -302t-130 -166.5t-265.5 -63.5q-191 0 -288.5 59t-133 157.5t-35.5 315.5v234q0 84 -28.5 111.5t-111.5 27.5h-69z
M634 1097l-42 181q-19 81 -19 103q0 35 24 60.5t66 25.5q94 0 94 -80q0 -23 -23 -106l-50 -184h-50zM507 1238q0 -45 -32.5 -77.5t-76.5 -32.5q-45 0 -77.5 32.5t-32.5 77.5q0 46 32.5 78.5t77.5 32.5t77 -32.5t32 -78.5zM1038 1238q0 -45 -32.5 -77.5t-77.5 -32.5t-77 32.5
t-32 77.5q0 46 32 78.5t77 32.5q46 0 78 -32.5t32 -78.5z" />
    <glyph glyph-name="alpha" unicode="&#x3b1;" horiz-adv-x="1270" 
d="M1038 965v-711q0 -84 7.5 -112.5t31.5 -43t92 -14.5h43v-84l-347 -16v159q-176 -167 -363 -167q-182 0 -301 145.5t-119 350.5q0 216 131 366.5t328 150.5q189 0 324 -152l64 128h109zM865 242v358q0 143 -89.5 211.5t-184.5 68.5q-134 0 -225 -106t-91 -295
q0 -179 83 -282.5t192 -103.5q153 0 315 149z" />
    <glyph glyph-name="beta" unicode="&#x3b2;" horiz-adv-x="1255" 
d="M338 122v-568h-167v1411q0 169 34 261t139.5 166.5t258.5 74.5q173 0 285 -89.5t112 -249.5q0 -232 -231 -356q366 -51 366 -370q0 -182 -120.5 -304t-340.5 -122q-224 0 -336 146zM500 801q124 8 179.5 30.5t90 90t34.5 184.5q0 271 -228 271q-88 0 -147 -52t-75 -122.5
t-16 -213.5v-525q0 -208 89.5 -295.5t228.5 -87.5q283 0 283 311q0 120 -40.5 185.5t-119 94t-279.5 28.5v101z" />
    <glyph glyph-name="gamma" unicode="&#x3b3;" horiz-adv-x="1030" 
d="M629 -13q33 -149 33 -244q0 -214 -127 -214q-44 0 -77 34t-33 110q0 78 67 244l-326 832q-29 74 -63 96t-109 22v84l289 15l304 -847l169 392q51 117 51 173q0 27 -19 61q-45 77 -45 127q0 60 35 88.5t82 28.5q56 0 95 -36t39 -107q0 -63 -27 -134t-107 -239z" />
    <glyph glyph-name="delta" unicode="&#x3b4;" horiz-adv-x="1147" 
d="M429 949q-241 70 -241 230q0 114 103 201t294 87q152 0 252 -57t100 -132q0 -35 -23.5 -62t-64.5 -27t-64.5 18t-52.5 67q-28 48 -62 69.5t-93 21.5q-81 0 -138.5 -51.5t-57.5 -130.5q0 -78 51.5 -116t173.5 -68q190 -45 273 -98t134.5 -166t51.5 -252
q0 -221 -132.5 -364t-363.5 -143q-245 0 -366 151.5t-121 348.5q0 322 347 473zM574 892q-118 0 -207 -102t-89 -314q0 -196 78 -303t216 -107q144 0 222 117.5t78 302.5q0 189 -81 297.5t-217 108.5z" />
    <glyph glyph-name="epsilon" unicode="&#x3b5;" horiz-adv-x="963" 
d="M618 537v-84h-32q-180 0 -247 -49t-67 -139q0 -85 64.5 -136.5t184.5 -51.5q225 0 380 204l64 -52q-103 -140 -211 -196.5t-265 -56.5q-197 0 -303.5 78t-106.5 200q0 197 276 253q-149 46 -197 100.5t-48 128.5q0 107 95.5 180t272.5 73q160 0 260 -56t100 -130
q0 -35 -23.5 -62t-65.5 -27q-40 0 -63 17t-54 66t-62.5 70t-88.5 21q-89 0 -137 -45.5t-48 -119.5q0 -75 58 -130.5t235 -55.5h29z" />
    <glyph glyph-name="zeta" unicode="&#x3b6;" horiz-adv-x="780" 
d="M552 1267q-79 -18 -184 -18q-303 0 -303 132q0 36 26 61t74 25q60 0 123 -43q89 -61 186 -61q173 0 371 80l8 -24l-38 -61q-244 -164 -403 -423.5t-159 -456.5q0 -96 43 -141t197 -116q160 -74 223 -110.5t96 -89.5t33 -131q0 -152 -111.5 -256t-302.5 -104
q-125 0 -208 39.5t-83 100.5q0 83 91 83q49 0 91 -53q46 -58 129 -58q92 0 150 53.5t58 145.5q0 75 -47.5 113.5t-211.5 111.5q-152 68 -213 111.5t-95.5 113.5t-34.5 156q0 164 118 375t377 445z" />
    <glyph glyph-name="eta" unicode="&#x3b7;" horiz-adv-x="1296" 
d="M75 821v84q136 11 260 84h70v-190q218 190 415 190q107 0 180.5 -46t100.5 -107t27 -168v-1114h-169v1051q0 110 -17 155t-62.5 73.5t-115.5 28.5q-175 0 -350 -164v-461q0 -70 9.5 -99t33.5 -41.5t102 -12.5h28v-84h-512v84h25q73 0 100 12.5t36 36t9 118.5v570h-170z
" />
    <glyph glyph-name="theta" unicode="&#x3b8;" horiz-adv-x="1178" 
d="M591 1467q243 0 374 -217t131 -559q0 -334 -145 -524.5t-372 -190.5q-212 0 -354.5 185.5t-142.5 536.5q0 384 145.5 576.5t363.5 192.5zM900 798q-32 571 -313 571q-123 0 -207 -134.5t-103 -436.5h623zM273 690q1 -319 89.5 -466.5t221.5 -147.5q128 0 220.5 138.5
t97.5 475.5h-629z" />
    <glyph glyph-name="iota" unicode="&#x3b9;" horiz-adv-x="655" 
d="M252 821h-173v83q144 15 268 85h73l-1 -727q0 -113 21.5 -149t80.5 -36q42 0 103 37v-98q-75 -40 -154 -40q-78 0 -131 32t-70 80.5t-17 161.5v571z" />
    <glyph glyph-name="kappa" unicode="&#x3ba;" horiz-adv-x="1270" 
d="M60 824v81q126 8 265 84h77v-520l367 292q87 69 87 94q0 26 -77 26h-53v84h507v-84q-85 0 -135 -17t-119 -69l-290 -221l342 -374q70 -77 114 -96.5t125 -19.5v-84h-290l-415 483l-163 -125v-131q0 -95 26 -119t110 -24h37v-84h-515v84q87 1 114.5 9.5t43 36.5t15.5 108
v586h-173z" />
    <glyph glyph-name="lambda" unicode="&#x3bb;" horiz-adv-x="1106" 
d="M340 1297h-219v86q166 19 264 84h76l440 -1233q30 -83 63.5 -116t98.5 -34v-84h-459v84h28q63 0 86.5 11t23.5 38q0 28 -21 86l-203 565l-236 -542q-30 -69 -30 -109q0 -49 92 -49h48v-84h-395v84q64 3 91 24.5t81 135.5l309 646z" />
    <glyph glyph-name="mu" unicode="&#x3bc;" horiz-adv-x="1393" 
d="M396 24v-470h-167v1188q0 90 -30.5 114.5t-109.5 24.5h-69v84l379 15v-644q0 -240 209 -240q177 0 384 171v466q0 81 -11 99.5t-37.5 33.5t-89.5 15h-73v84l379 15v-746q0 -92 22.5 -121t119.5 -29h31v-84l-332 -17v185q-236 -192 -437 -192q-88 0 -168 48z" />
    <glyph glyph-name="nu" unicode="&#x3bd;" horiz-adv-x="1030" 
d="M-6 881v84l289 15l304 -803l169 358q51 106 51 165q0 25 -19 59q-45 77 -45 126q0 54 35 79t82 25q55 0 94.5 -32t39.5 -98q0 -51 -20 -114.5t-114 -247.5l-253 -497h-120l-321 763q-32 75 -64.5 96.5t-107.5 21.5z" />
    <glyph glyph-name="xi" unicode="&#x3be;" horiz-adv-x="860" 
d="M469 901q-202 54 -268.5 117.5t-66.5 155.5q0 126 112 209.5t300 83.5q128 0 226.5 -36t98.5 -94q0 -30 -22.5 -58.5t-66.5 -28.5q-52 0 -91 44q-59 65 -163 65q-100 0 -160 -56.5t-60 -135.5q0 -93 86.5 -144t249.5 -82q126 -24 159 -40.5t33 -58.5q0 -32 -21 -54
t-53 -22q-26 0 -69 21q-80 41 -152 41q-133 0 -210 -96t-77 -226q0 -108 53 -167t190 -126q224 -102 286 -158t62 -165q0 -152 -111.5 -256t-302.5 -104q-125 0 -208 39.5t-83 100.5q0 83 91 83q50 0 91 -53q47 -58 129 -58q93 0 150.5 54t57.5 142q0 70 -37.5 105
t-160.5 92q-174 81 -247.5 129.5t-119 124.5t-45.5 173q0 144 103.5 271.5t316.5 167.5z" />
    <glyph glyph-name="omicron" unicode="&#x3bf;" horiz-adv-x="1147" 
d="M579 989q147 0 254.5 -61t169.5 -178t62 -267t-63.5 -267t-173 -178.5t-261.5 -61.5q-242 0 -363.5 151t-121.5 355q0 149 63 264.5t176.5 179t257.5 63.5zM571 892q-114 0 -193 -90q-100 -112 -100 -326q0 -206 85 -314q77 -96 209 -96q85 0 151.5 45t107.5 143.5
t41 231.5q0 130 -44 233q-34 82 -102.5 127.5t-154.5 45.5z" />
    </font>
</defs>
</svg>
