<?xml version="1.0" ?><svg enable-background="new -1163 1657.697 56.693 56.693" height="56.693px" id="Layer_1" version="1.1" viewBox="-1163 1657.697 56.693 56.693" width="56.693px" xml:space="preserve" xmlns="http://www.w3.org/2000/svg" xmlns:xlink="http://www.w3.org/1999/xlink"><g><path d="M-1110.2747,1686.8912c0.0101,0.0011,0.0215,0.0022,0.0316,0.0022c0.079,0,0.1512-0.0575,0.166-0.1388   c0.0168-0.0916-0.0441-0.1796-0.1355-0.1976c-2.3115-0.4258-4.0026-0.8966-9.7083-0.8491   c0.3556-1.3156,0.5476-2.8716,0.5859-4.7144c-0.009-4.9966-2.4006-6.7638-2.8601-7.5936c0.6775-3.7828-0.113-5.5048-0.48-6.0953   c-1.355-0.4822-4.7142,1.2399-6.5492,2.4537c-2.9923-0.8751-9.3157-0.7905-11.6869,0.2258   c-4.3756-3.1335-6.6904-2.6536-6.6904-2.6536s-1.4961,2.6818-0.3951,6.6056c-1.4397,1.835-2.5125,3.1335-2.5125,6.5752   c0,1.9388,0.2281,3.6743,0.743,5.1897c-2.29-0.0056-7.0897,0.3026-9.3379,0.8582c-0.0903,0.0226-0.1458,0.1152-0.1243,0.2056   c0.0193,0.0768,0.0892,0.1287,0.1649,0.1287c0.0135,0,0.0271-0.0011,0.0406-0.0045c2.2684-0.5612,7.2285-0.8661,9.3785-0.848   c0.123,0.3264,0.2609,0.6426,0.4132,0.9486c-5.5272,0.1467-7.0175,0.936-9.3379,1.5153c-0.1682,0.043-0.3331,0.0836-0.4934,0.1232   c-0.0903,0.0226-0.1467,0.1151-0.1243,0.2054c0.0193,0.0768,0.0881,0.1288,0.1649,0.1287c0.0135,0,0.0271-0.0011,0.0406-0.0045   c0.1604-0.0406,0.3252-0.0813,0.4946-0.1241c2.3273-0.5815,3.8376-1.3754,9.4315-1.5098c1.6442,2.9856,4.8148,4.843,10.1626,5.3568   c-0.7633,0.5793-1.6802,1.6791-1.8066,2.9506c-0.9597,0.6211-2.8895,0.8254-4.3903,0.3523   c-2.1025-0.6639-2.9076-4.8271-6.0558-4.2344c-0.682,0.1288-0.5465,0.5781,0.043,0.9598c0.9598,0.621,1.8632,1.3978,2.5598,3.0521   c0.5353,1.2704,1.6599,3.5399,5.2168,3.5399c1.4115,0,2.4006-0.1693,2.4006-0.1693s0.0271,3.2418,0.0271,4.502   c0,1.4532-1.9614,1.8632-1.9614,2.5621c0,0.2766,0.6493,0.3026,1.171,0.3026c1.0309,0,3.1764-0.8605,3.1764-2.3712   c0-1.2003,0.0192-5.2361,0.0192-5.9418c0-1.5436,0.8276-2.0325,0.8276-2.0325s0.1028,8.2395-0.1976,9.3439   c-0.3523,1.2986-0.988,1.1145-0.988,1.6938c0,0.8615,2.5825,0.2111,3.4384-1.6803c0.6617-1.4724,0.3727-9.5551,0.3727-9.5551   l0.7057-0.0146c0,0,0.0396,3.7003,0.0159,5.3917c-0.0249,1.7513-0.1434,3.9668,0.8965,5.0114   c0.6832,0.6865,2.8987,1.8914,2.8987,0.7904c0-0.6403-1.2139-1.1665-1.2139-2.8986c0-1.8846,0-7.4425,0-7.9697   c0.9688,0,0.8231,2.6207,0.8231,2.6207l0.0712,4.869c0,0-0.2134,1.774,1.9185,2.517c0.7521,0.2631,2.3622,0.3342,2.4379-0.1073   c0.0757-0.4426-1.9388-1.101-1.9569-2.4751c-0.0112-0.8379,0.0374-1.3268,0.0374-4.9684s-0.489-4.9875-2.1929-6.0603   c5.2585-0.5409,8.5128-1.8417,10.0994-5.3263c1.8225,0.0598,5.6387,0.2462,10.0741,1.6023   c0.0157,0.0056,0.0327,0.0079,0.0497,0.0079c0.0723,0,0.1389-0.0475,0.1615-0.1198c0.027-0.0903-0.0226-0.1852-0.113-0.2123   c-4.3744-1.338-8.0743-1.547-10.0277-1.6124c0.123-0.3026,0.236-0.6199,0.3364-0.953   C-1114.2794,1685.9946-1112.5839,1686.4644-1110.2747,1686.8912z M-1150.1143,1692.4308c-0.2104,0-0.3811-0.1136-0.3811-0.254   c0-0.1403,0.1707-0.254,0.3811-0.254s0.3811,0.1138,0.3811,0.254C-1149.7332,1692.3171-1149.9038,1692.4308-1150.1143,1692.4308z    M-1148.9286,1693.0754c-0.2104,0-0.3811-0.1138-0.3811-0.254c0-0.1404,0.1707-0.254,0.3811-0.254s0.3811,0.1136,0.3811,0.254   C-1148.5475,1692.9617-1148.7181,1693.0754-1148.9286,1693.0754z M-1148.5852,1693.6824c0-0.1403,0.1707-0.254,0.3811-0.254   s0.3811,0.1138,0.3811,0.254c0,0.1404-0.1707,0.254-0.3811,0.254S-1148.5852,1693.8228-1148.5852,1693.6824z M-1147.5688,1694.9104   c-0.2106,0-0.3812-0.1138-0.3812-0.2542c0-0.1403,0.1707-0.254,0.3812-0.254c0.2104,0,0.3811,0.1138,0.3811,0.254   C-1147.1877,1694.7966-1147.3584,1694.9104-1147.5688,1694.9104z M-1146.8444,1695.8278c-0.2104,0-0.3811-0.1136-0.3811-0.254   c0-0.1403,0.1707-0.254,0.3811-0.254s0.3811,0.1138,0.3811,0.254C-1146.4633,1695.7141-1146.6339,1695.8278-1146.8444,1695.8278z    M-1145.8657,1696.6089c-0.2104,0-0.3811-0.1138-0.3811-0.254c0-0.1404,0.1707-0.2542,0.3811-0.2542s0.3811,0.1138,0.3811,0.2542   C-1145.4846,1696.4951-1145.6553,1696.6089-1145.8657,1696.6089z M-1144.4966,1697.1169c-0.2104,0-0.3811-0.1136-0.3811-0.254   c0-0.1403,0.1707-0.254,0.3811-0.254s0.3811,0.1138,0.3811,0.254C-1144.1155,1697.0033-1144.2861,1697.1169-1144.4966,1697.1169z    M-1143.1228,1697.1169c-0.2104,0-0.3811-0.1136-0.3811-0.254c0-0.1403,0.1707-0.254,0.3811-0.254s0.3811,0.1138,0.3811,0.254   C-1142.7417,1697.0033-1142.9124,1697.1169-1143.1228,1697.1169z M-1141.7443,1696.9005c-0.2104,0-0.3811-0.1138-0.3811-0.254   s0.1707-0.254,0.3811-0.254c0.2106,0,0.3811,0.1138,0.3811,0.254S-1141.5337,1696.9005-1141.7443,1696.9005z M-1130.9503,1691.4921   c-1.1366,0.0377-2.3154,0.0569-3.5028,0.0569c-1.199,0-2.3564-0.0195-3.4398-0.0582c-5.7773-0.2025-8.9592-2.6409-8.9592-6.8652   c0-0.4387,0.0928-1.9808,1.2881-3.4138c1.1617-1.3927,2.9418-2.1292,5.1478-2.1292c0.1503,0,0.4192,0.0165,0.9651,0.0503   c1.1697,0.0728,3.1277,0.1945,5.0663,0.1945c1.7555,0,3.531-0.1295,4.485-0.1993c0.4465-0.0328,0.6257-0.0454,0.7411-0.0454   c4.693,0,6.3649,2.9984,6.3649,5.8043C-1122.7939,1687.7782-1124.209,1691.2712-1130.9503,1691.4921z"/><path d="M-1151.2622,1695.1456c0.9093,0,0.0155-1.4104,0-2.0702C-1151.2664,1693.7175-1152.1715,1695.1456-1151.2622,1695.1456z"/><path d="M-1133.5531,1689.0763c-0.0935,0-0.1693,0.0758-0.1693,0.1693c0,0.3732-0.4386,0.7905-1.0256,0.7905   c-0.0846,0-0.1661-0.0094-0.2441-0.0262c-0.1948-0.0419-0.3669-0.13-0.5078-0.2336c-0.0282-0.0206-0.0551-0.042-0.0807-0.0637   c-0.0768-0.0652-0.1416-0.1337-0.1926-0.1989c-0.0852-0.1088-0.1321-0.2083-0.1321-0.2681c0-0.0935-0.0758-0.1693-0.1694-0.1693   c-0.0935,0-0.1693,0.0758-0.1693,0.1693c0,0.0483,0.0099,0.1022,0.0288,0.1595c0.0284,0.0859,0.0774,0.1796,0.144,0.2737   c0.0668,0.094,0.1514,0.1886,0.2511,0.2764c0.0997,0.0876,0.2146,0.1686,0.3422,0.2356c0.1594,0.0836,0.3384,0.1453,0.5319,0.1709   c0.0645,0.0085,0.1306,0.0131,0.1981,0.0131c0.3518,0,0.6569-0.1139,0.8889-0.2867c0.0331-0.0247,0.0647-0.0505,0.0948-0.0775   c0.0601-0.0538,0.114-0.1119,0.161-0.1729c0.1173-0.1523,0.1917-0.3229,0.2131-0.4913c0.0043-0.0337,0.0065-0.0673,0.0065-0.1007   C-1133.3837,1689.1521-1133.4595,1689.0763-1133.5531,1689.0763z"/><path d="M-1135.2507,1688.1698c0.042,0.062,0.0956,0.1156,0.1576,0.1576c0.0233,0.0156,0.0477,0.0298,0.0732,0.0421   c0.051,0.0245,0.1062,0.0419,0.1642,0.0508c0.0289,0.0044,0.0586,0.0067,0.0889,0.0067c0.1207,0,0.233-0.0367,0.3262-0.0996   c0.0388-0.0262,0.0742-0.057,0.1056-0.0916c0.0438-0.0481,0.0759-0.1055,0.1017-0.1663c0.0298-0.0701,0.0499-0.1451,0.0499-0.2261   c0-0.3221-0.2612-0.5834-0.5834-0.5834c-0.1611,0-0.307,0.0653-0.4126,0.1709c-0.0046,0.0046-0.0081,0.0103-0.0125,0.015   c-0.03,0.0321-0.0555,0.0679-0.0778,0.1062c-0.031,0.0535-0.056,0.1111-0.0688,0.1737c-0.0077,0.038-0.0118,0.0773-0.0118,0.1176   s0.0042,0.0796,0.0118,0.1177C-1135.3229,1688.0371-1135.2926,1688.1077-1135.2507,1688.1698z"/><path d="M-1139.5708,1682.0514c-0.1194-0.1469-0.2485-0.277-0.3855-0.3879c-0.1371-0.111-0.2822-0.2028-0.4336-0.2729   c-0.1515-0.0702-0.3093-0.1189-0.4719-0.1434c-0.0813-0.0123-0.1638-0.0187-0.2472-0.0187c-1.3357,0-2.4183,1.6135-2.4183,3.604   c0,1.9904,1.0826,3.3781,2.4183,3.3781c0.0834,0,0.1659-0.0054,0.2472-0.016c0.1626-0.0214,0.3204-0.0636,0.4719-0.1251   c0.1514-0.0616,0.2965-0.1426,0.4336-0.2415c0.137-0.0989,0.2661-0.2155,0.3855-0.3485s0.2292-0.2823,0.3278-0.4464   c0.3451-0.5743,0.5522-1.3298,0.5522-2.2006c0-0.8708-0.2072-1.6694-0.5522-2.2925   C-1139.3416,1682.3619-1139.4514,1682.1984-1139.5708,1682.0514z"/><path d="M-1128.0388,1681.2284c-1.3357,0-2.4183,1.6135-2.4183,3.604c0,1.9904,1.0826,3.3781,2.4183,3.3781   c1.3356,0,2.4182-1.3877,2.4182-3.3781C-1125.6206,1682.8419-1126.7032,1681.2284-1128.0388,1681.2284z"/></g></svg>