<?xml version="1.0" ?><svg viewBox="0 0 32 32" xmlns="http://www.w3.org/2000/svg"><defs><style>.cls-1{fill:none;stroke:#000;stroke-linejoin:round;stroke-width:2px;}</style></defs><title/><g data-name="40-Gear" id="_40-Gear"><path class="cls-1" d="M31,18V14H27.82a11.92,11.92,0,0,0-2-4.95L28,6.81,25.19,4,22.95,6.23a11.92,11.92,0,0,0-4.95-2V1H14V4.18a11.92,11.92,0,0,0-4.95,2L6.81,4,4,6.81,6.23,9.05a11.92,11.92,0,0,0-2,4.95H1v4H4.18a11.92,11.92,0,0,0,2,4.95L4,25.19,6.81,28l2.25-2.25a11.92,11.92,0,0,0,4.95,2V31h4V27.82a11.92,11.92,0,0,0,4.95-2L25.19,28,28,25.19l-2.25-2.25a11.92,11.92,0,0,0,2-4.95Z"/><circle class="cls-1" cx="16" cy="16" r="5"/></g></svg>